<svg id="Layer_1" data-name="Layer 1" xmlns="http://www.w3.org/2000/svg" viewBox="0 0 306 472.5"><defs><style>.cls-1{fill:none;stroke:#6b6b6b;stroke-miterlimit:10;stroke-width:7px;}</style></defs><title>bur</title><path class="cls-1" d="M324,203.5C324,100.5,257.1,17,174.5,17S25,100.5,25,203.5c0,5.1.2,10.2.5,15.2V466.5s73,15,147,16c69,.9,151-16,151-16V218.7C323.8,213.7,324,208.6,324,203.5Z" transform="translate(-21.5 -13.5)"/><path class="cls-1" d="M164.5,16.5c-105,88-87.6,164-91,456" transform="translate(-21.5 -13.5)"/><path class="cls-1" d="M187.5,17.5c105,88,87.6,165,91,457" transform="translate(-21.5 -13.5)"/><path class="cls-1" d="M133.6,466.5" transform="translate(-21.5 -13.5)"/><path class="cls-1" d="M174.5,17.5c-62,77-50,460-50,460" transform="translate(-21.5 -13.5)"/><path class="cls-1" d="M178.9,16.5c64.6,75,50.6,464,50.6,464" transform="translate(-21.5 -13.5)"/><line class="cls-1" x1="155" y1="469.5" x2="156" y2="5.5"/><path class="cls-1" d="M25.5,350.9c110,26.6,187,22.3,298,0" transform="translate(-21.5 -13.5)"/><path class="cls-1" d="M25.5,231.9c110,26.6,187,22.3,298,0" transform="translate(-21.5 -13.5)"/><path class="cls-1" d="M50.5,94.9c92.5,26.6,157.2,22.3,250.5,0" transform="translate(-21.5 -13.5)"/></svg>
