<svg xmlns="http://www.w3.org/2000/svg" viewBox="0 0 2800 2000"><defs><style>.cls-1,.cls-7{fill:none;}.cls-2{fill:#d3aa8d;}.cls-3{fill:#8e3f8e;}.cls-4{fill:#e8b795;}.cls-5{fill:#a851a6;}.cls-6{fill:#724320;}.cls-7{stroke:#000;stroke-miterlimit:10;}.cls-8{fill:#e66cea;}.cls-9{fill:#e2b423;}</style></defs><title>prinsesse_sprite</title><g id="Sprite"><rect class="cls-1" y="1000" width="350" height="500"/><rect class="cls-1" y="500" width="350" height="500"/><rect class="cls-1" x="350" y="1000" width="350" height="500"/><rect class="cls-1" x="2449" y="1000" width="350" height="500"/><path class="cls-2" d="M1981.4,1288.3s1.7,13.5,15,8.9c5.6-1.9,7.1-11.6,4.4-15.9s-10.8-3.8-10.8-3.8-30.5-19.2-35.3-27.4c-3.8-6.5-15.8-30.6-15.8-30.6l-13.7,5.1s18.7,36.8,28,42.5S1981.4,1288.3,1981.4,1288.3Z"/><path class="cls-3" d="M1946.8,1214s-4.1,18.3-28.2,15.4c0,0-13.9-21.7-1-28.7S1938.5,1198.6,1946.8,1214Z"/><rect class="cls-1" width="350" height="500"/><path class="cls-2" d="M188.5,312.9s37.2,35.3,42,47.1,10.9,51.7,10.9,51.7,29.3,4.4,38.5-2.7c0,0-11.4-13-23.3-11.3,0,0-6.9-40.7-12.3-48.4s-43.8-50.1-43.8-50.1Z"/><path class="cls-3" d="M241.4,411.7s25.5,7,38.5-2.7c0,0-4.3-5.3-9-7.8,0,0-11.9,8.8-30.9,1.5Z"/><path class="cls-4" d="M149.7,300.5s-7.6,50.7-14.5,61.4-36.1,38.5-36.1,38.5,13.2,26.6,24.3,30.1c0,0,4.1-16.8-4.2-25.7,0,0,29.4-28.9,32.6-37.7s16-64.7,16-64.7Z"/><path class="cls-3" d="M99.1,400.4s8.8,25,24.3,30.1c0,0,1.9-6.6,1.3-11.9,0,0-14.1-4.7-19-24.5Z"/><path class="cls-2" d="M113.9,268.7s-12.9,4.4-5.7,16.5c3.1,5,12.9,4.5,16.6,1s1.4-11.3,1.4-11.3,12.5-33.9,19.5-40.3,26.6-21.8,26.6-21.8l-7.8-12.4s-32.1,26-35.7,36.2S113.9,268.7,113.9,268.7Z"/><path class="cls-2" d="M179.3,219.4s-18.7-.2-20.9-24.4c0,0,18.3-18.1,27.9-7S192.7,208,179.3,219.4Z"/><path class="cls-2" d="M2569.9,1259.6s-12.8,4.4-5.6,16.5c3,5,12.9,4.6,16.5,1s1.4-11.3,1.4-11.3,12.5-33.9,19.5-40.3,26.7-21.8,26.7-21.8l-7.9-12.4s-32.1,26-35.7,36.3S2569.9,1259.6,2569.9,1259.6Z"/><path class="cls-2" d="M2635.4,1210.3s-18.8-.2-21-24.4c0,0,18.4-18.1,27.9-7S2648.7,1199,2635.4,1210.3Z"/><path class="cls-4" d="M219.6,79.5s10.3,13.9,11.7,36.5c0,0,11,11.7,1.5,13.2,0,0,2.2,28.5-40.2,32.9,0,0,0,15.4,5.1,22.7,0,0-16.8,19-40.9,6.5S170.6,68.5,219.6,79.5Z"/><path class="cls-5" d="M197.7,184s-31.4,15.4-45.3,7.3v49.8s28.5,19.7,54.8,6.5c0,0,2.2-47.5-9.5-63.6"/><path class="cls-6" d="M155.3,51s24.1-37.3,46-1.5c0,0,23.4-.7,24.9,16.1s-9.5,32.2-24.9,29.2c0,0,0,21.2-21.9,23.4,0,0,8.1,17.6-10.2,26.4,0,0,12.4,16.8,0,27.7,0,0,6.6,33.7-15.4,36.6,0,0,.8,37.3-29.9,13.9,0,0-31.5,13.1-27.1-23.4,0,0-35.8-14.6-5.8-42.4,0,0-16.9-26.3,7.3-37.3,0,0-3-37.3,27-36.5C125.3,83.2,122.4,40.7,155.3,51Z"/><ellipse cx="222.2" cy="112" rx="1.8" ry="4.8"/><path class="cls-7" d="M227.8,145.2s-4.9,1.2-12.9-2.5"/><path class="cls-8" d="M117.4,335.3s79.5,13.2,126.8-3.6c0,0,1-16-.9-28.2s-125.3.4-125.3.4S117.2,318.8,117.4,335.3Z"/><path class="cls-5" d="M153,244s-37.1,22.3-35.3,70.9c0,0,10.9,11.6,30.1,1.9,0,0,16.7,13,36.4-.6,0,0,14.4,8.8,29.2-1.6,0,0,18.6,7.3,30.3-5.5,0,0-2-52.5-36.2-63.7C207.5,245.4,178.9,250.9,153,244Z"/><path class="cls-8" d="M207,243.3s-25.7,13.2-54.5-4.7l-.3,6.1s20.4,21.2,54.8,5.9Z"/><path class="cls-4" d="M231.5,275.3s1.7,13.5,15,9c5.5-1.9,7.1-11.7,4.4-16s-10.8-3.7-10.8-3.7-30.5-19.3-35.4-27.5c-3.7-6.4-15.7-30.6-15.7-30.6l-13.8,5.1s18.8,36.8,28.1,42.5S231.5,275.3,231.5,275.3Z"/><path class="cls-3" d="M196.9,201.1s-4.1,18.2-28.2,15.4c0,0-13.9-21.7-1.1-28.8S188.6,185.6,196.9,201.1Z"/><path class="cls-9" d="M197.7,64.7s-7.9-7.7-14.1,2.9c0,0-18.1-10.3-23.7,7.5,0,0-9.5-7.2-16.7,3.3,0,0,.4-8.3-31.1-19.3,0,0,20.3-13.4,35.2-11,0,0,2.2-10.8,9.3-19.2,0,0,14,.2,21.3,9.4,0,0,15.9-17.3,28.2-14.6C206.1,23.7,191.3,39,197.7,64.7Z"/><rect class="cls-1" x="350" width="350" height="500"/><path class="cls-2" d="M529.7,319s29.7,41.7,32.3,54.2.8,52.8.8,52.8,27.9,9.9,38.3,4.7c0,0-8.7-14.8-20.8-15.5,0,0,1-41.2-2.8-49.8s-33.4-57.6-33.4-57.6Z"/><path class="cls-3" d="M562.8,426s23.7,11.8,38.3,4.7c0,0-3.2-6-7.3-9.4,0,0-13.4,6.4-30.7-4.4Z"/><path class="cls-4" d="M508,303s-4.9,48.7-9,55c-7,10.6-41.9,33.3-41.9,33.3s7.9,28.6,18.1,34.1c0,0,7.2-15.7.8-26,0,0,34.5-28.2,39-36.4,5.5-9.9,8.1-58.4,8-58Z"/><path class="cls-3" d="M457.1,391.3s3.9,26.1,18.1,34.1c0,0,3.1-6.2,3.5-11.4,0,0-12.9-7.3-14-27.7Z"/><path class="cls-2" d="M481.3,294.8s-11.3,7.6-1.3,17.4c4.3,4.1,13.7,1.1,16.3-3.3s-1.6-11.3-1.6-11.3,3.3-35.9,8.4-43.9c4.1-6.3,20.1-27.9,20.1-27.9l-10.8-10s-24.2,33.4-25.1,44.2S481.3,294.8,481.3,294.8Z"/><path class="cls-2" d="M531.7,230.3s-18.1,4.7-26.6-18.2c0,0,13.1-22.2,25.2-13.9S541.7,215.9,531.7,230.3Z"/><path class="cls-4" d="M570.6,91.5s10.3,13.9,11.7,36.5c0,0,11,11.7,1.5,13.2,0,0,2.2,28.5-40.2,32.9,0,0,0,15.4,5.1,22.7,0,0-16.8,19-40.9,6.5S521.6,80.5,570.6,91.5Z"/><path class="cls-5" d="M548.7,196s-31.4,15.4-45.3,7.3v49.8s28.5,19.7,54.8,6.5c0,0,2.2-47.5-9.5-63.6"/><path class="cls-6" d="M506.3,63s24.1-37.3,46-1.5c0,0,23.4-.7,24.9,16.1s-9.5,32.2-24.9,29.2c0,0,0,21.2-21.9,23.4,0,0,8.1,17.6-10.2,26.4,0,0,12.4,16.8,0,27.7,0,0,6.6,33.7-15.4,36.6,0,0,.8,37.3-29.9,13.9,0,0-31.5,13.1-27.1-23.4,0,0-35.8-14.6-5.8-42.4,0,0-16.9-26.3,7.3-37.3,0,0-3-37.3,27-36.5C476.3,95.2,473.4,52.7,506.3,63Z"/><ellipse cx="573.2" cy="124" rx="1.8" ry="4.8"/><path class="cls-7" d="M578.8,157.2s-4.9,1.2-12.9-2.5"/><path class="cls-8" d="M461.8,343.6s78.1,20.1,126.7,7.5c0,0,2.4-15.9,1.5-28.2s-124.8-10.5-124.8-10.5S463.1,327.2,461.8,343.6Z"/><path class="cls-5" d="M505.3,255.8s-38.9,18.9-41.3,67.5c0,0,9.8,12.5,29.8,4.5,0,0,15.5,14.4,36.3,2.6,0,0,13.6,10,29.2,1,0,0,17.9,8.9,30.7-2.9,0,0,2.6-52.4-30.5-66.6C559.5,261.9,530.5,264.9,505.3,255.8Z"/><path class="cls-8" d="M558,255.3s-25.7,13.2-54.5-4.7l-.3,6.1s20.4,21.2,54.8,5.9Z"/><path class="cls-4" d="M562.2,298.2s-1.9,13.5,12.1,12.5c5.9-.4,10-9.4,8.4-14.3s-9.4-6.3-9.4-6.3-24.5-26.5-27-35.7c-2-7.2-7.3-33.6-7.3-33.6l-14.7,1.4s8.7,40.3,16.1,48.2S562.2,298.2,562.2,298.2Z"/><path class="cls-3" d="M548,217.5s-8.7,16.6-31.3,7.6c0,0-7.7-24.5,6.5-28S544,200.5,548,217.5Z"/><path class="cls-9" d="M548.7,76.7s-7.9-7.7-14.1,2.9c0,0-18.1-10.3-23.7,7.5,0,0-9.5-7.2-16.7,3.3,0,0,.4-8.3-31.1-19.3,0,0,20.3-13.4,35.2-11,0,0,2.2-10.8,9.3-19.2,0,0,14,.2,21.3,9.4,0,0,15.9-17.3,28.2-14.6C557.1,35.7,542.3,51,548.7,76.7Z"/><rect class="cls-1" x="700" width="350" height="500"/><path class="cls-2" d="M860,302.8s8.4,50.5,5.2,62.9-22.4,47.8-22.4,47.8,20.8,21.1,32.4,21c0,0-1.4-17.2-11.9-23.1,0,0,19-36.6,19.3-46s-4.8-66.4-4.8-66.4Z"/><path class="cls-3" d="M842.8,413.5s16.1,21,32.4,21c0,0-.3-6.8-2.5-11.6,0,0-14.9-.2-25.7-17.5Z"/><path class="cls-4" d="M868.2,297.9s20.6,43.1,17.2,49.8c-5.9,11.3-38.3,37.5-38.3,37.5s10.9,27.6,21.6,32c0,0,5.5-16.3-1.9-25.9,0,0,31.4-31.6,35-40.3,4.4-10.4-13.3-58.1-16.1-56.5Z"/><path class="cls-3" d="M847.1,385.2s6.6,25.6,21.6,32c0,0,2.4-6.4,2.3-11.7,0,0-13.6-5.9-16.8-26.1Z"/><path class="cls-4" d="M920.6,79.5s10.3,13.9,11.7,36.5c0,0,11,11.7,1.5,13.2,0,0,2.2,28.5-40.2,32.9,0,0,0,15.4,5.1,22.7,0,0-16.8,19-40.9,6.5S871.6,68.5,920.6,79.5Z"/><path class="cls-5" d="M898.7,184s-31.4,15.4-45.3,7.3v49.8s28.5,19.7,54.8,6.5c0,0,2.2-47.5-9.5-63.6"/><path class="cls-6" d="M856.3,51s24.1-37.3,46-1.5c0,0,23.4-.7,24.9,16.1s-9.5,32.2-24.9,29.2c0,0,0,21.2-21.9,23.4,0,0,8.1,17.6-10.2,26.4,0,0,12.4,16.8,0,27.7,0,0,6.6,33.7-15.4,36.6,0,0,.8,37.3-29.9,13.9,0,0-31.5,13.1-27.1-23.4,0,0-35.8-14.6-5.8-42.4,0,0-16.9-26.3,7.3-37.3,0,0-3-37.3,27-36.5C826.3,83.2,823.4,40.7,856.3,51Z"/><ellipse cx="923.2" cy="112" rx="1.8" ry="4.8"/><path class="cls-7" d="M928.8,145.2s-4.9,1.2-12.9-2.5"/><path class="cls-8" d="M816.8,330.6s70.7,19.9,114.7,7.1c0,0,2.2-16,1.4-28.2S820,299.4,820,299.4,818.1,314.2,816.8,330.6Z"/><path class="cls-5" d="M856.5,242.6s-35.3,19.1-37.6,67.7c0,0,8.8,12.4,26.9,4.4,0,0,14,14.4,32.9,2.4,0,0,12.2,10,26.4,1,0,0,16.2,8.8,27.8-3,0,0,2.5-52.5-27.4-66.5C905.5,248.6,879.3,251.7,856.5,242.6Z"/><path class="cls-8" d="M908,243s-25.7,13.5-54.5-4.4l-.3,6.1s20.4,21.2,54.8,5.9Z"/><path class="cls-4" d="M879.3,289s-6.6,11.9,6.8,16.1c5.7,1.7,12.7-5.3,13-10.4s-6.5-9.3-6.5-9.3-13.4-33.5-12.5-43c.7-7.4,5.2-34,5.2-34l-14.1-3.9s-6.4,40.7-2.3,50.8S879.3,289,879.3,289Z"/><path class="cls-3" d="M895,208.6s-14.1,12.4-32-4.1c0,0,1.6-25.7,16.1-23.9S897.3,191.2,895,208.6Z"/><path class="cls-9" d="M898.7,64.7s-7.9-7.7-14.1,2.9c0,0-18.1-10.3-23.7,7.5,0,0-9.5-7.2-16.7,3.3,0,0,.4-8.3-31.1-19.3,0,0,20.3-13.4,35.2-11,0,0,2.2-10.8,9.3-19.2,0,0,14,.2,21.3,9.4,0,0,15.9-17.3,28.2-14.6C907.1,23.7,892.3,39,898.7,64.7Z"/><rect class="cls-1" x="1050" width="350" height="500"/><path class="cls-2" d="M1289.5,262.6s2.6,13.4,15.5,8c5.4-2.3,6.3-12.2,3.3-16.3s-11-2.9-11-2.9-31.8-17.1-37.2-25c-4.2-6.1-17.8-29.4-17.8-29.4l-13.4,6.1s21.3,35.3,30.9,40.4S1289.5,262.6,1289.5,262.6Z"/><path class="cls-2" d="M1249.8,191s-2.8,18.5-27.1,17.4c0,0-15.4-20.7-3.1-28.7S1240.4,176.2,1249.8,191Z"/><path class="cls-2" d="M1208.4,300.8s-3.1,51.2-9,62.4-32.6,41.6-32.6,41.6,15.5,25.3,26.8,27.8c0,0,2.6-17.1-6.4-25.2,0,0,26.7-31.4,29.2-40.4s10.2-65.9,10.2-65.9Z"/><path class="cls-3" d="M1166.8,404.8s10.9,24.1,26.8,27.8c0,0,1.3-6.7.2-11.9,0,0-14.4-3.5-21.1-22.8Z"/><path class="cls-4" d="M1219.6,297.2s38,29.1,37.9,36.6c0,12.7-17,50.7-17,50.7s22.2,19.7,33.8,18.8c0,0-2.6-17.1-13.5-22.2,0,0,13.6-42.4,12.9-51.8-.9-11.3-38.3-45.7-40-43.1Z"/><path class="cls-3" d="M1240.5,384.5s17.5,19.9,33.8,18.8c0,0-.8-6.8-3.3-11.5,0,0-14.8.9-26.8-15.6Z"/><path class="cls-4" d="M1270.6,71.5s10.3,13.9,11.7,36.5c0,0,11,11.7,1.5,13.2,0,0,2.2,28.5-40.2,32.9,0,0,0,15.4,5.1,22.7,0,0-16.8,19-40.9,6.5S1221.6,60.5,1270.6,71.5Z"/><path class="cls-5" d="M1248.7,176s-31.4,15.4-45.3,7.3v49.8s28.5,19.7,54.8,6.5c0,0,2.2-47.5-9.5-63.6"/><path class="cls-6" d="M1206.3,43s24.1-37.3,46-1.5c0,0,23.4-.7,24.9,16.1s-9.5,32.2-24.9,29.2c0,0,0,21.2-21.9,23.4,0,0,8.1,17.6-10.2,26.4,0,0,12.4,16.8,0,27.7,0,0,6.6,33.7-15.4,36.6,0,0,.8,37.3-29.9,13.9,0,0-31.5,13.1-27.1-23.4,0,0-35.8-14.6-5.8-42.4,0,0-16.9-26.3,7.3-37.3,0,0-3-37.3,27-36.5C1176.3,75.2,1173.4,32.7,1206.3,43Z"/><ellipse cx="1273.2" cy="104" rx="1.8" ry="4.8"/><path class="cls-7" d="M1278.8,137.2s-4.9,1.2-12.9-2.5"/><path class="cls-8" d="M1179.4,330.1s73,7.3,114.1-12.9c0,0-.5-18.2-4.5-30.2s-111.9,11.8-111.9,11.8S1177.7,313.7,1179.4,330.1Z"/><path class="cls-5" d="M1203.1,236.6s-31.4,24.9-25.3,73.1c0,0,10.9,10.8,27.3-.3,0,0,16.3,11.8,32.9-3.3,0,0,13.7,7.7,26.1-3.7,0,0,17.5,5.9,26.9-7.7,0,0-6-37.7-33-51.7C1258,243,1227.1,241.5,1203.1,236.6Z"/><path class="cls-8" d="M1258,235s-25.7,13.5-54.5-4.4l-.3,6.1s20.4,21.2,54.8,5.9Z"/><path class="cls-4" d="M1201.9,280.5s-9.8,9.5,1.8,17.3c4.9,3.3,13.6-1.3,15.4-6.1s-3.5-10.8-3.5-10.8-3-36,.7-44.8c2.9-6.8,14.9-30.9,14.9-30.9l-12.3-7.9s-18.1,37.1-17.1,47.9S1201.9,280.5,1201.9,280.5Z"/><path class="cls-3" d="M1240.4,208.2s-17.1,7.7-29.3-13.3c0,0,9-24.1,22.3-18.1S1247.7,192.2,1240.4,208.2Z"/><path class="cls-9" d="M1248.7,56.7s-7.9-7.7-14.1,2.9c0,0-18.1-10.3-23.7,7.5,0,0-9.5-7.2-16.7,3.3,0,0,.4-8.3-31.1-19.3,0,0,20.3-13.4,35.2-11,0,0,2.2-10.8,9.3-19.2,0,0,14,.2,21.3,9.4,0,0,15.9-17.3,28.2-14.6C1257.1,15.7,1242.3,31,1248.7,56.7Z"/><rect class="cls-1" x="1400" width="350" height="500"/><path class="cls-2" d="M1632.5,275.3s1.7,13.5,15,9c5.5-1.9,7.1-11.7,4.4-16s-10.8-3.7-10.8-3.7-30.5-19.3-35.4-27.5c-3.7-6.4-15.7-30.6-15.7-30.6l-13.8,5.1s18.8,36.8,28.1,42.5S1632.5,275.3,1632.5,275.3Z"/><path class="cls-3" d="M1597.9,201.1s-4.1,18.2-28.2,15.4c0,0-13.9-21.7-1.1-28.8S1589.6,185.6,1597.9,201.1Z"/><path class="cls-4" d="M1589.5,312.9s37.2,35.3,42,47.1,10.9,51.7,10.9,51.7,29.3,4.4,38.5-2.7c0,0-11.4-13-23.3-11.3,0,0-6.9-40.7-12.3-48.4s-43.8-50.1-43.8-50.1Z"/><path class="cls-3" d="M1642.4,411.7s25.5,7,38.5-2.7c0,0-4.3-5.3-9-7.8,0,0-11.9,8.8-30.9,1.5Z"/><path class="cls-2" d="M1550.7,300.5s-7.6,50.7-14.5,61.4-36.1,38.5-36.1,38.5,13.2,26.6,24.3,30.1c0,0,4.1-16.8-4.2-25.7,0,0,29.4-28.9,32.6-37.7s16-64.7,16-64.7Z"/><path class="cls-3" d="M1500.1,400.4s8.8,25,24.3,30.1c0,0,1.9-6.6,1.3-11.9,0,0-14.1-4.7-19-24.5Z"/><path class="cls-4" d="M1620.6,79.5s10.3,13.9,11.7,36.5c0,0,11,11.7,1.5,13.2,0,0,2.2,28.5-40.2,32.9,0,0,0,15.4,5.1,22.7,0,0-16.8,19-40.9,6.5S1571.6,68.5,1620.6,79.5Z"/><path class="cls-5" d="M1598.7,184s-31.4,15.4-45.3,7.3v49.8s28.5,19.7,54.8,6.5c0,0,2.2-47.5-9.5-63.6"/><path class="cls-6" d="M1556.3,51s24.1-37.3,46-1.5c0,0,23.4-.7,24.9,16.1s-9.5,32.2-24.9,29.2c0,0,0,21.2-21.9,23.4,0,0,8.1,17.6-10.2,26.4,0,0,12.4,16.8,0,27.7,0,0,6.6,33.7-15.4,36.6,0,0,.8,37.3-29.9,13.9,0,0-31.5,13.1-27.1-23.4,0,0-35.8-14.6-5.8-42.4,0,0-16.9-26.3,7.3-37.3,0,0-3-37.3,27-36.5C1526.3,83.2,1523.4,40.7,1556.3,51Z"/><ellipse cx="1623.2" cy="112" rx="1.8" ry="4.8"/><path class="cls-7" d="M1628.8,145.2s-4.9,1.2-12.9-2.5"/><path class="cls-8" d="M1518.4,335.3s79.5,13.2,126.8-3.6c0,0,1.8-20.7-2.2-32.7s-124,4.9-124,4.9S1518.2,318.8,1518.4,335.3Z"/><path class="cls-5" d="M1554,244s-37.1,22.3-35.3,70.9c0,0,10.9,11.6,30.1,1.9,0,0,16.7,13,36.4-.6,0,0,14.4,8.8,29.2-1.6,0,0,18.6,7.3,30.3-5.5,0,0-3.7-45.1-36.7-59.1C1608,250,1579.9,250.9,1554,244Z"/><path class="cls-8" d="M1608,243.3s-25.7,13.2-54.5-4.7l-.3,6.1s20.4,21.2,54.8,5.9Z"/><path class="cls-9" d="M1598.7,64.7s-7.9-7.7-14.1,2.9c0,0-18.1-10.3-23.7,7.5,0,0-9.5-7.2-16.7,3.3,0,0,.4-8.3-31.1-19.3,0,0,20.3-13.4,35.2-11,0,0,2.2-10.8,9.3-19.2,0,0,14,.2,21.3,9.4,0,0,15.9-17.3,28.2-14.6C1607.1,23.7,1592.3,39,1598.7,64.7Z"/><path class="cls-4" d="M1514.9,268.7s-12.9,4.4-5.7,16.5c3.1,5,12.9,4.5,16.6,1s1.4-11.3,1.4-11.3,12.5-33.9,19.5-40.3,26.6-21.8,26.6-21.8l-7.8-12.4s-32.1,26-35.7,36.2S1514.9,268.7,1514.9,268.7Z"/><path class="cls-3" d="M1580.3,219.4s-18.7-.2-20.9-24.4c0,0,18.3-18.1,27.9-7S1593.7,208,1580.3,219.4Z"/><rect class="cls-1" x="1750" width="350" height="500"/><path class="cls-4" d="M1961.2,298.2s-1.9,13.5,12.1,12.5c5.9-.4,10-9.4,8.4-14.3s-9.4-6.3-9.4-6.3-24.5-26.5-27-35.7c-2-7.2-7.3-33.6-7.3-33.6l-14.7,1.4s8.7,40.3,16.1,48.2S1961.2,298.2,1961.2,298.2Z"/><path class="cls-3" d="M1947,217.5s-8.7,16.6-31.3,7.6c0,0-7.7-24.5,6.5-28S1943,200.5,1947,217.5Z"/><path class="cls-4" d="M1928.7,319s29.7,41.7,32.3,54.2.8,52.8.8,52.8,27.9,9.9,38.3,4.7c0,0-8.7-14.8-20.8-15.5,0,0,1-41.2-2.8-49.8s-33.4-57.6-33.4-57.6Z"/><path class="cls-3" d="M1961.8,426s23.7,11.8,38.3,4.7c0,0-3.2-6-7.3-9.4,0,0-13.4,6.4-30.7-4.4Z"/><path class="cls-2" d="M1907,303s-4.9,48.7-9,55c-7,10.6-41.9,33.3-41.9,33.3s7.9,28.6,18.1,34.1c0,0,7.2-15.7.8-26,0,0,34.5-28.2,39-36.4,5.5-9.9,8.1-58.4,8-58Z"/><path class="cls-3" d="M1856.1,391.3s3.9,26.1,18.1,34.1c0,0,3.1-6.2,3.5-11.4,0,0-12.9-7.3-14-27.7Z"/><path class="cls-4" d="M1969.6,91.5s10.3,13.9,11.7,36.5c0,0,11,11.7,1.5,13.2,0,0,2.2,28.5-40.2,32.9,0,0,0,15.4,5.1,22.7,0,0-16.8,19-40.9,6.5S1920.6,80.5,1969.6,91.5Z"/><path class="cls-5" d="M1947.7,196s-31.4,15.4-45.3,7.3v49.8s28.5,19.7,54.8,6.5c0,0,2.2-47.5-9.5-63.6"/><path class="cls-6" d="M1905.3,63s24.1-37.3,46-1.5c0,0,23.4-.7,24.9,16.1s-9.5,32.2-24.9,29.2c0,0,0,21.2-21.9,23.4,0,0,8.1,17.6-10.2,26.4,0,0,12.4,16.8,0,27.7,0,0,6.6,33.7-15.4,36.6,0,0,.8,37.3-29.9,13.9,0,0-31.5,13.1-27.1-23.4,0,0-35.8-14.6-5.8-42.4,0,0-16.9-26.3,7.3-37.3,0,0-3-37.3,27-36.5C1875.3,95.2,1872.4,52.7,1905.3,63Z"/><ellipse cx="1972.2" cy="124" rx="1.8" ry="4.8"/><path class="cls-7" d="M1977.8,157.2s-4.9,1.2-12.9-2.5"/><path class="cls-8" d="M1860.8,343.6s78.1,20.1,126.7,7.5c0,0,2.4-15.9,1.5-28.2s-124.8-10.5-124.8-10.5S1862.1,327.2,1860.8,343.6Z"/><path class="cls-5" d="M1904.3,255.8s-38.9,18.9-41.3,67.5c0,0,9.8,12.5,29.8,4.5,0,0,15.5,14.4,36.3,2.6,0,0,13.6,10,29.2,1,0,0,17.9,8.9,30.7-2.9,0,0,2.6-52.4-30.5-66.6C1958.5,261.9,1929.5,264.9,1904.3,255.8Z"/><path class="cls-8" d="M1957,255.3s-25.7,13.2-54.5-4.7l-.3,6.1s20.4,21.2,54.8,5.9Z"/><path class="cls-9" d="M1947.7,76.7s-7.9-7.7-14.1,2.9c0,0-18.1-10.3-23.7,7.5,0,0-9.5-7.2-16.7,3.3,0,0,.4-8.3-31.1-19.3,0,0,20.3-13.4,35.2-11,0,0,2.2-10.8,9.3-19.2,0,0,14,.2,21.3,9.4,0,0,15.9-17.3,28.2-14.6C1956.1,35.7,1941.3,51,1947.7,76.7Z"/><path class="cls-4" d="M1880.3,294.8s-11.3,7.6-1.3,17.4c4.3,4.1,13.7,1.1,16.3-3.3s-1.6-11.3-1.6-11.3,3.3-35.9,8.4-43.9c4.1-6.3,20.1-27.9,20.1-27.9l-10.8-10s-24.2,33.4-25.1,44.2S1880.3,294.8,1880.3,294.8Z"/><path class="cls-3" d="M1930.7,230.3s-18.1,4.7-26.6-18.2c0,0,13.1-22.2,25.2-13.9S1940.7,215.9,1930.7,230.3Z"/><rect class="cls-1" x="2100" width="350" height="500"/><path class="cls-2" d="M2268.2,297.9s20.6,43.1,17.2,49.8c-5.9,11.3-38.3,37.5-38.3,37.5s10.9,27.6,21.6,32c0,0,5.5-16.3-1.9-25.9,0,0,31.4-31.6,35-40.3,4.4-10.4-13.3-58.1-16.1-56.5Z"/><path class="cls-3" d="M2247.1,385.2s6.6,25.6,21.6,32c0,0,2.4-6.4,2.3-11.7,0,0-13.6-5.9-16.8-26.1Z"/><path class="cls-2" d="M2260,302.8s8.4,50.5,5.2,62.9-22.4,47.8-22.4,47.8,20.8,21.1,32.4,21c0,0-1.4-17.2-11.9-23.1,0,0,19-36.6,19.3-46s-4.8-66.4-4.8-66.4Z"/><path class="cls-3" d="M2275.2,434.5s-.3-6.8-2.5-11.6c0,0-14.9-.2-25.7-17.5l-4.2,8.1"/><path class="cls-3" d="M2247.1,385.2s6.6,25.6,21.6,32c0,0,2.4-6.4,2.3-11.7,0,0-13.6-5.9-16.8-26.1Z"/><path class="cls-4" d="M2320.6,79.5s10.3,13.9,11.7,36.5c0,0,11,11.7,1.5,13.2,0,0,2.2,28.5-40.2,32.9,0,0,0,15.4,5.1,22.7,0,0-16.8,19-40.9,6.5S2271.6,68.5,2320.6,79.5Z"/><path class="cls-5" d="M2298.7,184s-31.4,15.4-45.3,7.3v49.8s28.5,19.7,54.8,6.5c0,0,2.2-47.5-9.5-63.6"/><path class="cls-6" d="M2256.3,51s24.1-37.3,46-1.5c0,0,23.4-.7,24.9,16.1s-9.5,32.2-24.9,29.2c0,0,0,21.2-21.9,23.4,0,0,8.1,17.6-10.2,26.4,0,0,12.4,16.8,0,27.7,0,0,6.6,33.7-15.4,36.6,0,0,.8,37.3-29.9,13.9,0,0-31.5,13.1-27.1-23.4,0,0-35.8-14.6-5.8-42.4,0,0-16.9-26.3,7.3-37.3,0,0-3-37.3,27-36.5C2226.3,83.2,2223.4,40.7,2256.3,51Z"/><ellipse cx="2323.2" cy="112" rx="1.8" ry="4.8"/><path class="cls-7" d="M2328.8,145.2s-4.9,1.2-12.9-2.5"/><path class="cls-9" d="M2298.7,64.7s-7.9-7.7-14.1,2.9c0,0-18.1-10.3-23.7,7.5,0,0-9.5-7.2-16.7,3.3,0,0,.4-8.3-31.1-19.3,0,0,20.3-13.4,35.2-11,0,0,2.2-10.8,9.3-19.2,0,0,14,.2,21.3,9.4,0,0,15.9-17.3,28.2-14.6C2307.1,23.7,2292.3,39,2298.7,64.7Z"/><path class="cls-4" d="M2260,302.8s8.4,50.5,5.2,62.9-22.4,47.8-22.4,47.8,20.8,21.1,32.4,21c0,0-1.4-17.2-11.9-23.1,0,0,19-36.6,19.3-46s-4.8-66.4-4.8-66.4Z"/><path class="cls-3" d="M2242.8,413.5s16.1,21,32.4,21c0,0-.3-6.8-2.5-11.6,0,0-14.9-.2-25.7-17.5Z"/><path class="cls-8" d="M2216.8,330.6s70.7,19.9,114.7,7.1c0,0,2.2-16,1.4-28.2S2220,299.4,2220,299.4,2218.1,314.2,2216.8,330.6Z"/><path class="cls-5" d="M2256.5,242.6s-35.3,19.1-37.6,67.7c0,0,8.8,12.4,26.9,4.4,0,0,14,14.4,32.9,2.4,0,0,12.2,10,26.4,1,0,0,16.2,8.8,27.8-3,0,0,2.5-52.5-27.4-66.5C2305.5,248.6,2279.3,251.7,2256.5,242.6Z"/><path class="cls-8" d="M2308,243s-25.7,13.5-54.5-4.4l-.3,6.1s20.4,21.2,54.8,5.9Z"/><path class="cls-4" d="M2279.3,289s-6.6,11.9,6.8,16.1c5.7,1.7,12.7-5.3,13-10.4s-6.5-9.3-6.5-9.3-13.4-33.5-12.5-43c.7-7.4,5.2-34,5.2-34l-14.1-3.9s-6.4,40.7-2.3,50.8S2279.3,289,2279.3,289Z"/><path class="cls-3" d="M2295,208.6s-14.1,12.4-32-4.1c0,0,1.6-25.7,16.1-23.9S2297.3,191.2,2295,208.6Z"/><rect class="cls-1" x="2450" width="350" height="500"/><path class="cls-4" d="M2610.4,299.8s-3.1,51.2-9,62.4-32.6,41.6-32.6,41.6,15.5,25.3,26.8,27.8c0,0,2.6-17.1-6.4-25.2,0,0,26.7-31.4,29.2-40.4s10.2-65.9,10.2-65.9Z"/><path class="cls-3" d="M2568.8,403.8s10.9,24.1,26.8,27.8c0,0,1.3-6.7.2-11.9,0,0-14.4-3.5-21.1-22.8Z"/><path class="cls-2" d="M2621.6,296.2s38,29.1,37.9,36.6c0,12.7-17,50.7-17,50.7s22.2,19.7,33.8,18.8c0,0-2.6-17.1-13.5-22.2,0,0,13.6-42.4,12.9-51.8-.9-11.3-38.3-45.7-40-43.1Z"/><path class="cls-3" d="M2642.5,383.5s17.5,19.9,33.8,18.8c0,0-.8-6.8-3.3-11.5,0,0-14.8.9-26.8-15.6Z"/><path class="cls-4" d="M2672.6,70.5s10.3,13.9,11.7,36.5c0,0,11,11.7,1.5,13.2,0,0,2.2,28.5-40.2,32.9,0,0,0,15.4,5.1,22.7,0,0-16.8,19-40.9,6.5S2623.6,59.5,2672.6,70.5Z"/><path class="cls-5" d="M2650.7,175s-31.4,15.4-45.3,7.3v49.8s28.5,19.7,54.8,6.5c0,0,2.2-47.5-9.5-63.6"/><path class="cls-6" d="M2608.3,42s24.1-37.3,46-1.5c0,0,23.4-.7,24.9,16.1s-9.5,32.2-24.9,29.2c0,0,0,21.2-21.9,23.4,0,0,8.1,17.6-10.2,26.4,0,0,12.4,16.8,0,27.7,0,0,6.6,33.7-15.4,36.6,0,0,.8,37.3-29.9,13.9,0,0-31.5,13.1-27.1-23.4,0,0-35.8-14.6-5.8-42.4,0,0-16.9-26.3,7.3-37.3,0,0-3-37.3,27-36.5C2578.3,74.2,2575.4,31.7,2608.3,42Z"/><ellipse cx="2675.2" cy="103" rx="1.8" ry="4.8"/><path class="cls-7" d="M2680.8,136.2s-4.9,1.2-12.9-2.5"/><path class="cls-8" d="M2581.4,329.1s73,7.3,114.1-12.9c0,0-.5-18.2-4.5-30.2s-111.9,11.8-111.9,11.8S2579.7,312.7,2581.4,329.1Z"/><path class="cls-5" d="M2605.1,235.6s-31.4,24.9-25.3,73.1c0,0,10.9,10.8,27.3-.3,0,0,16.3,11.8,32.9-3.3,0,0,13.7,7.7,26.1-3.7,0,0,17.5,5.9,26.9-7.7,0,0-6-37.7-33-51.7C2660,242,2629.1,240.5,2605.1,235.6Z"/><path class="cls-8" d="M2660,234s-25.7,13.5-54.5-4.4l-.3,6.1s20.4,21.2,54.8,5.9Z"/><path class="cls-9" d="M2650.7,55.7s-7.9-7.7-14.1,2.9c0,0-18.1-10.3-23.7,7.5,0,0-9.5-7.2-16.7,3.3,0,0,.4-8.3-31.1-19.3,0,0,20.3-13.4,35.2-11,0,0,2.2-10.8,9.3-19.2,0,0,14,.2,21.3,9.4,0,0,15.9-17.3,28.2-14.6C2659.1,14.7,2644.3,30,2650.7,55.7Z"/><path class="cls-4" d="M2691.5,261.6s2.6,13.4,15.5,8c5.4-2.3,6.3-12.2,3.3-16.3s-11-2.9-11-2.9-31.8-17.1-37.2-25c-4.2-6.1-17.8-29.4-17.8-29.4l-13.4,6.1s21.3,35.3,30.9,40.4S2691.5,261.6,2691.5,261.6Z"/><path class="cls-3" d="M2651.8,190s-2.8,18.5-27.1,17.4c0,0-15.4-20.7-3.1-28.7S2642.4,175.2,2651.8,190Z"/><rect class="cls-1" x="700" y="1000" width="350" height="500"/><path class="cls-2" d="M179.6,1313.5s42.7,28.3,49.6,39.1,19.6,49,19.6,49,29.7-.8,37.5-9.4c0,0-13.4-10.7-25-7,0,0-13.8-38.9-20.4-45.5s-51.9-41.8-51.9-41.8Z"/><path class="cls-3" d="M248.8,1401.6s26.4,2.5,37.5-9.4c0,0-5.2-4.4-10.2-6.1,0,0-10.2,10.8-30.2,6.9Z"/><path class="cls-4" d="M154.7,1296.3s-16.3,48.6-24.9,58S87.6,1386,87.6,1386s8.4,28.4,18.7,33.7c0,0,6.9-15.7.3-25.9,0,0,34-23.4,38.7-31.6s26.9-60.9,26.9-60.9Z"/><path class="cls-3" d="M87.6,1386s4.3,26.1,18.7,33.7c0,0,2.9-6.1,3.3-11.4,0,0-13.1-7.1-14.5-27.5Z"/><path class="cls-2" d="M103.9,1256.1s-13.5,2.1-8.5,15.3c2.1,5.5,11.9,6.7,16.2,3.8s3.3-10.9,3.3-10.9,18.2-31.2,26.2-36.3c6.3-4,30-16.8,30-16.8l-5.6-13.5s-36.1,20-41.4,29.4S103.9,1256.1,103.9,1256.1Z"/><path class="cls-2" d="M176.9,1219s-18.4-3.5-16.4-27.8c0,0,21.2-14.6,28.7-2S192,1210.1,176.9,1219Z"/><path class="cls-4" d="M219.6,1079.5s10.3,13.9,11.7,36.5c0,0,11,11.7,1.5,13.2,0,0,2.2,28.5-40.2,32.9,0,0,0,15.4,5.1,22.7,0,0-16.8,19-40.9,6.5S170.6,1068.5,219.6,1079.5Z"/><path class="cls-5" d="M197.7,1184s-31.4,15.4-45.3,7.3v49.8s28.5,19.7,54.8,6.5c0,0,2.2-47.5-9.5-63.6"/><path class="cls-6" d="M155.3,1051s24.1-37.3,46-1.5c0,0,23.4-.7,24.9,16.1s-9.5,32.2-24.9,29.2c0,0,0,21.2-21.9,23.4,0,0,8.1,17.6-10.2,26.4,0,0,12.4,16.8,0,27.7,0,0,6.6,33.7-15.4,36.6,0,0,.8,37.3-29.9,13.9,0,0-31.5,13.1-27.1-23.4,0,0-35.8-14.6-5.8-42.4,0,0-16.9-26.3,7.3-37.3,0,0-3-37.3,27-36.5C125.3,1083.2,122.4,1040.7,155.3,1051Z"/><ellipse cx="222.2" cy="1112" rx="1.8" ry="4.8"/><path class="cls-8" d="M117.4,1335.3s79.5,13.2,126.8-3.6c0,0,1-16-.9-28.2s-125.3.4-125.3.4S117.2,1318.8,117.4,1335.3Z"/><path class="cls-5" d="M153,1244s-37.1,22.3-35.3,70.9c0,0,10.9,11.6,30.1,1.9,0,0,16.7,13,36.4-.6,0,0,14.4,8.8,29.2-1.6,0,0,18.6,7.3,30.3-5.5,0,0-2-52.5-36.2-63.7C207.5,1245.4,178.9,1250.9,153,1244Z"/><path class="cls-8" d="M207,1243.3s-25.7,13.2-54.5-4.7l-.3,6.1s20.4,21.2,54.8,5.9Z"/><path class="cls-4" d="M246.2,1266.4s3.9,13.1,16.2,6.3c5.2-2.9,5.1-12.7,1.6-16.5s-11.2-1.8-11.2-1.8-33.5-13.7-39.6-20.9c-4.9-5.7-20.8-27.4-20.8-27.4l-12.7,7.4s24.9,33,35,37S246.2,1266.4,246.2,1266.4Z"/><path class="cls-3" d="M199.2,1199.3s-.9,18.8-25.2,20.1c0,0-17.4-18.9-6-28.1S188.3,1185.6,199.2,1199.3Z"/><path class="cls-9" d="M197.7,1064.7s-7.9-7.7-14.1,2.9c0,0-18.1-10.3-23.7,7.5,0,0-9.5-7.2-16.7,3.3,0,0,.4-8.3-31.1-19.3,0,0,20.3-13.4,35.2-11,0,0,2.2-10.8,9.3-19.2,0,0,14,.2,21.3,9.4,0,0,15.9-17.3,28.2-14.6C206.1,1023.7,191.3,1039,197.7,1064.7Z"/><rect class="cls-1" x="1050" y="1000" width="350" height="500"/><path class="cls-2" d="M521.3,1326s36.6,35.9,41.2,47.8,10,51.8,10,51.8,29.2,4.9,38.5-2c0,0-11.1-13.1-23.1-11.7,0,0-6.2-40.7-11.4-48.5s-43-51-43-51Z"/><path class="cls-3" d="M572.5,1425.6s25.3,7.6,38.5-2c0,0-4.2-5.3-8.8-8,0,0-12.1,8.7-31,1Z"/><path class="cls-4" d="M507.4,1304s-13.3,47.2-18.5,52.6c-8.7,9.3-47,25.5-47,25.5s2.8,29.6,11.9,36.7c0,0,9.8-14.1,5.3-25.4,0,0,38.9-21.7,44.7-29,7.1-8.9,18.2-56.2,18-55.8Z"/><path class="cls-3" d="M441.9,1382.1s-.7,26.5,11.9,36.7c0,0,4.1-5.4,5.4-10.6,0,0-11.5-9.4-9-29.7Z"/><path class="cls-2" d="M471.8,1285.7s-12.5,5.5-4.2,16.9c3.4,4.8,13.2,3.4,16.5-.5s.4-11.3.4-11.3,9.5-34.9,16-41.9c5-5.5,24.6-24,24.6-24l-8.9-11.7s-29.7,28.7-32.4,39.3S471.8,1285.7,471.8,1285.7Z"/><path class="cls-2" d="M532.7,1230.9s-18.7,1.4-23-22.5c0,0,16.7-19.6,27.2-9.4S545,1218.4,532.7,1230.9Z"/><path class="cls-4" d="M570.6,1091.5s10.3,13.9,11.7,36.5c0,0,11,11.7,1.5,13.2,0,0,2.2,28.5-40.2,32.9,0,0,0,15.4,5.1,22.7,0,0-16.8,19-40.9,6.5S521.6,1080.5,570.6,1091.5Z"/><path class="cls-5" d="M548.7,1196s-31.4,15.4-45.3,7.3v49.8s28.5,19.7,54.8,6.5c0,0,2.2-47.5-9.5-63.6"/><path class="cls-6" d="M506.3,1063s24.1-37.3,46-1.5c0,0,23.4-.7,24.9,16.1s-9.5,32.2-24.9,29.2c0,0,0,21.2-21.9,23.4,0,0,8.1,17.6-10.2,26.4,0,0,12.4,16.8,0,27.7,0,0,6.6,33.7-15.4,36.6,0,0,.8,37.3-29.9,13.9,0,0-31.5,13.1-27.1-23.4,0,0-35.8-14.6-5.8-42.4,0,0-16.9-26.3,7.3-37.3,0,0-3-37.3,27-36.5C476.3,1095.2,473.4,1052.7,506.3,1063Z"/><ellipse cx="573.2" cy="1124" rx="1.8" ry="4.8"/><path class="cls-8" d="M461.8,1343.6s78.1,20.1,126.7,7.5c0,0,2.4-15.9,1.5-28.2s-124.8-10.5-124.8-10.5S463.1,1327.2,461.8,1343.6Z"/><path class="cls-5" d="M505.3,1255.8s-38.9,18.9-41.3,67.5c0,0,9.8,12.5,29.8,4.5,0,0,15.5,14.4,36.3,2.6,0,0,13.6,10,29.2,1,0,0,17.9,8.9,30.7-2.9,0,0,2.6-52.4-30.5-66.6C559.5,1261.9,530.5,1264.9,505.3,1255.8Z"/><path class="cls-8" d="M558,1255.3s-25.7,13.2-54.5-4.7l-.3,6.1s20.4,21.2,54.8,5.9Z"/><path class="cls-4" d="M575.8,1293.2s.4,13.6,14.1,10.2c5.7-1.4,8.1-10.9,5.8-15.5s-10.4-4.6-10.4-4.6-28.8-21.9-32.9-30.5c-3.1-6.7-12.9-31.8-12.9-31.8l-14.2,3.9s15.5,38.2,24.2,44.7S575.8,1293.2,575.8,1293.2Z"/><path class="cls-3" d="M547.8,1216.2s-5.7,17.9-29.5,12.9c0,0-11.9-22.8,1.5-28.7S540.8,1200.1,547.8,1216.2Z"/><path class="cls-9" d="M548.7,1076.7s-7.9-7.7-14.1,2.9c0,0-18.1-10.3-23.7,7.5,0,0-9.5-7.2-16.7,3.3,0,0,.4-8.3-31.1-19.3,0,0,20.3-13.4,35.2-11,0,0,2.2-10.8,9.3-19.2,0,0,14,.2,21.3,9.4,0,0,15.9-17.3,28.2-14.6C557.1,1035.7,542.3,1051,548.7,1076.7Z"/><rect class="cls-1" x="1400" y="1000" width="350" height="500"/><path class="cls-2" d="M860,1302.8s8.4,50.5,5.2,62.9-22.4,47.8-22.4,47.8,20.8,21.1,32.4,21c0,0-1.4-17.2-11.9-23.1,0,0,19-36.6,19.3-46s-4.8-66.4-4.8-66.4Z"/><path class="cls-3" d="M842.8,1413.5s16.1,21,32.4,21c0,0-.3-6.8-2.5-11.6,0,0-14.9-.2-25.7-17.5Z"/><path class="cls-4" d="M860.4,1296.3s12.8,46,8.2,52c-7.7,10.2-44.1,30.3-44.1,30.3s5.9,29.1,15.7,35.3c0,0,8.2-15.1,2.6-25.8,0,0,36.3-25.8,41.4-33.6,6.1-9.6-3-59.6-6-58.5Z"/><path class="cls-3" d="M824.5,1378.6s2,26.4,15.7,35.3c0,0,3.4-5.9,4.2-11.1,0,0-12.4-8.2-12-28.6Z"/><path class="cls-4" d="M920.6,1079.5s10.3,13.9,11.7,36.5c0,0,11,11.7,1.5,13.2,0,0,2.2,28.5-40.2,32.9,0,0,0,15.4,5.1,22.7,0,0-16.8,19-40.9,6.5S871.6,1068.5,920.6,1079.5Z"/><path class="cls-5" d="M898.7,1184s-31.4,15.4-45.3,7.3v49.8s28.5,19.7,54.8,6.5c0,0,2.2-47.5-9.5-63.6"/><path class="cls-6" d="M856.3,1051s24.1-37.3,46-1.5c0,0,23.4-.7,24.9,16.1s-9.5,32.2-24.9,29.2c0,0,0,21.2-21.9,23.4,0,0,8.1,17.6-10.2,26.4,0,0,12.4,16.8,0,27.7,0,0,6.6,33.7-15.4,36.6,0,0,.8,37.3-29.9,13.9,0,0-31.5,13.1-27.1-23.4,0,0-35.8-14.6-5.8-42.4,0,0-16.9-26.3,7.3-37.3,0,0-3-37.3,27-36.5C826.3,1083.2,823.4,1040.7,856.3,1051Z"/><ellipse cx="923.2" cy="1112" rx="1.8" ry="4.8"/><path class="cls-8" d="M816.8,1330.6s70.7,19.9,114.7,7.1c0,0,2.2-16,1.4-28.2S820,1299.4,820,1299.4,818.1,1314.2,816.8,1330.6Z"/><path class="cls-5" d="M856.5,1242.6s-35.3,19.1-37.6,67.7c0,0,8.8,12.4,26.9,4.4,0,0,14,14.4,32.9,2.4,0,0,12.2,10,26.4,1,0,0,16.2,8.8,27.8-3,0,0,2.5-52.5-27.4-66.5C905.5,1248.6,879.3,1251.7,856.5,1242.6Z"/><path class="cls-8" d="M908,1243s-25.7,13.5-54.5-4.4l-.3,6.1s20.4,21.2,54.8,5.9Z"/><path class="cls-4" d="M879.3,1289s-6.6,11.9,6.8,16.1c5.7,1.7,12.7-5.3,13-10.4.4-6.6-6.5-9.3-6.5-9.3s-13.4-33.5-12.5-43c.7-7.4,5.2-34,5.2-34l-14.1-3.9s-6.4,40.7-2.3,50.8S879.3,1289,879.3,1289Z"/><path class="cls-3" d="M895,1208.6s-14.1,12.4-32-4.1c0,0,1.6-25.7,16.1-23.9S897.3,1191.2,895,1208.6Z"/><path class="cls-9" d="M898.7,1064.7s-7.9-7.7-14.1,2.9c0,0-18.1-10.3-23.7,7.5,0,0-9.5-7.2-16.7,3.3,0,0,.4-8.3-31.1-19.3,0,0,20.3-13.4,35.2-11,0,0,2.2-10.8,9.3-19.2,0,0,14,.2,21.3,9.4,0,0,15.9-17.3,28.2-14.6C907.1,1023.7,892.3,1039,898.7,1064.7Z"/><rect class="cls-1" x="1750" y="1000" width="350" height="500"/><path class="cls-2" d="M1298.8,1253.4s4.9,12.7,16.7,5.1c4.9-3.2,4.1-13.1.4-16.6s-11.3-1-11.3-1-34.3-11.3-41-18.1c-5.2-5.3-22.7-25.9-22.7-25.9l-12.1,8.3s27.1,31.1,37.5,34.4S1298.8,1253.4,1298.8,1253.4Z"/><path class="cls-2" d="M1247.3,1189.7s.4,18.7-23.7,21.8c0,0-18.7-17.7-8-27.7S1235.4,1176.7,1247.3,1189.7Z"/><path class="cls-2" d="M1209.7,1288.8s-12,49.9-19.8,60-39.3,35.2-39.3,35.2,10.9,27.6,21.6,32c0,0,5.5-16.3-1.9-25.8,0,0,31.8-26.3,35.7-34.8s21.6-63.1,21.6-63.1Z"/><path class="cls-3" d="M1150.6,1384s6.6,25.6,21.6,32c0,0,2.4-6.4,2.3-11.7,0,0-13.6-5.9-16.8-26Z"/><path class="cls-4" d="M1224.8,1302.6s42.4,22.1,43.7,29.5c2.1,12.6-8,53-8,53s25.3,15.5,36.5,12.5c0,0-5.4-16.3-17.1-19.5,0,0,6-44.1,3.7-53.2-2.8-11-45.6-38.4-46.9-35.5Z"/><path class="cls-3" d="M1260.5,1385.1s20.7,16.5,36.5,12.5c0,0-1.9-6.5-5.2-10.7,0,0-14.4,3.5-29.1-10.7Z"/><path class="cls-4" d="M1270.6,1071.5s10.3,13.9,11.7,36.5c0,0,11,11.7,1.5,13.2,0,0,2.2,28.5-40.2,32.9,0,0,0,15.4,5.1,22.7,0,0-16.8,19-40.9,6.5S1221.6,1060.5,1270.6,1071.5Z"/><path class="cls-5" d="M1248.7,1176s-31.4,15.4-45.3,7.3v49.8s28.5,19.7,54.8,6.5c0,0,2.2-47.5-9.5-63.6"/><path class="cls-6" d="M1206.3,1043s24.1-37.3,46-1.5c0,0,23.4-.7,24.9,16.1s-9.5,32.2-24.9,29.2c0,0,0,21.2-21.9,23.4,0,0,8.1,17.6-10.2,26.4,0,0,12.4,16.8,0,27.7,0,0,6.6,33.7-15.4,36.6,0,0,.8,37.3-29.9,13.9,0,0-31.5,13.1-27.1-23.4,0,0-35.8-14.6-5.8-42.4,0,0-16.9-26.3,7.3-37.3,0,0-3-37.3,27-36.5C1176.3,1075.2,1173.4,1032.7,1206.3,1043Z"/><ellipse cx="1273.2" cy="1104" rx="1.8" ry="4.8"/><path class="cls-8" d="M1179.4,1330.1s73,7.3,114.1-12.9c0,0-.5-18.2-4.5-30.2s-111.9,11.8-111.9,11.8S1177.7,1313.7,1179.4,1330.1Z"/><path class="cls-5" d="M1203.1,1236.6s-31.4,24.9-25.3,73.1c0,0,10.9,10.8,27.3-.3,0,0,16.3,11.8,32.9-3.3,0,0,13.7,7.7,26.1-3.7,0,0,17.5,5.9,26.9-7.7,0,0-6-37.7-33-51.7C1258,1243,1227.1,1241.5,1203.1,1236.6Z"/><path class="cls-8" d="M1258,1235s-25.7,13.5-54.5-4.4l-.3,6.1s20.4,21.2,54.8,5.9Z"/><path class="cls-4" d="M1186.7,1274.4s-11.3,7.6-1.2,17.4c4.2,4.1,13.6,1.1,16.2-3.3s-1.5-11.2-1.5-11.2,3.3-36,8.4-44c4-6.3,20.1-27.9,20.1-27.9l-10.8-10s-24.3,33.4-25.1,44.3S1186.7,1274.4,1186.7,1274.4Z"/><path class="cls-3" d="M1237.2,1209.9s-18.2,4.7-26.6-18.2c0,0,13-22.2,25.2-13.9S1247.1,1195.5,1237.2,1209.9Z"/><path class="cls-9" d="M1248.7,1056.7s-7.9-7.7-14.1,2.9c0,0-18.1-10.3-23.7,7.5,0,0-9.5-7.2-16.7,3.3,0,0,.4-8.3-31.1-19.3,0,0,20.3-13.4,35.2-11,0,0,2.2-10.8,9.3-19.2,0,0,14,.2,21.3,9.4,0,0,15.9-17.3,28.2-14.6C1257.1,1015.7,1242.3,1031,1248.7,1056.7Z"/><rect class="cls-1" x="2100" y="1000" width="350" height="500"/><path class="cls-2" d="M1645.2,1266.4s3.9,13.1,16.2,6.3c5.2-2.9,5.1-12.7,1.6-16.5s-11.2-1.8-11.2-1.8-33.5-13.7-39.6-20.9c-4.9-5.7-20.8-27.4-20.8-27.4l-12.7,7.4s24.9,33,35,37S1645.2,1266.4,1645.2,1266.4Z"/><path class="cls-3" d="M1598.2,1199.3s-.9,18.8-25.2,20.1c0,0-17.4-18.9-6-28.1S1587.3,1185.6,1598.2,1199.3Z"/><path class="cls-4" d="M1584.6,1314.5s42.7,28.3,49.6,39.1,19.6,49,19.6,49,29.7-.8,37.5-9.4c0,0-13.4-10.7-25-7,0,0-13.8-38.9-20.4-45.5s-51.9-41.8-51.9-41.8Z"/><path class="cls-3" d="M1653.8,1402.6s26.4,2.5,37.5-9.4c0,0-5.2-4.4-10.2-6.1,0,0-10.2,10.8-30.2,6.9Z"/><path class="cls-2" d="M1555.7,1295.3s-16.3,48.6-24.9,58-42.2,31.7-42.2,31.7,8.4,28.4,18.7,33.7c0,0,6.9-15.7.3-25.9,0,0,34-23.4,38.7-31.6s26.9-60.9,26.9-60.9Z"/><path class="cls-3" d="M1488.6,1385s4.3,26.1,18.7,33.7c0,0,2.9-6.1,3.3-11.4,0,0-13.1-7.1-14.5-27.5Z"/><path class="cls-4" d="M1620.6,1079.5s10.3,13.9,11.7,36.5c0,0,11,11.7,1.5,13.2,0,0,2.2,28.5-40.2,32.9,0,0,0,15.4,5.1,22.7,0,0-16.8,19-40.9,6.5S1571.6,1068.5,1620.6,1079.5Z"/><path class="cls-5" d="M1598.7,1184s-31.4,15.4-45.3,7.3v49.8s28.5,19.7,54.8,6.5c0,0,2.2-47.5-9.5-63.6"/><path class="cls-6" d="M1556.3,1051s24.1-37.3,46-1.5c0,0,23.4-.7,24.9,16.1s-9.5,32.2-24.9,29.2c0,0,0,21.2-21.9,23.4,0,0,8.1,17.6-10.2,26.4,0,0,12.4,16.8,0,27.7,0,0,6.6,33.7-15.4,36.6,0,0,.8,37.3-29.9,13.9,0,0-31.5,13.1-27.1-23.4,0,0-35.8-14.6-5.8-42.4,0,0-16.9-26.3,7.3-37.3,0,0-3-37.3,27-36.5C1526.3,1083.2,1523.4,1040.7,1556.3,1051Z"/><ellipse cx="1623.2" cy="1112" rx="1.8" ry="4.8"/><path class="cls-8" d="M1518.4,1335.3s79.5,13.2,126.8-3.6c0,0,1.8-20.7-2.2-32.7s-124,4.9-124,4.9S1518.2,1318.8,1518.4,1335.3Z"/><path class="cls-5" d="M1554,1244s-37.1,22.3-35.3,70.9c0,0,10.9,11.6,30.1,1.9,0,0,16.7,13,36.4-.6,0,0,14.4,8.8,29.2-1.6,0,0,18.6,7.3,30.3-5.5,0,0-3.7-45.1-36.7-59.1C1608,1250,1579.9,1250.9,1554,1244Z"/><path class="cls-8" d="M1608,1243.3s-25.7,13.2-54.5-4.7l-.3,6.1s20.4,21.2,54.8,5.9Z"/><path class="cls-9" d="M1598.7,1064.7s-7.9-7.7-14.1,2.9c0,0-18.1-10.3-23.7,7.5,0,0-9.5-7.2-16.7,3.3,0,0,.4-8.3-31.1-19.3,0,0,20.3-13.4,35.2-11,0,0,2.2-10.8,9.3-19.2,0,0,14,.2,21.3,9.4,0,0,15.9-17.3,28.2-14.6C1607.1,1023.7,1592.3,1039,1598.7,1064.7Z"/><path class="cls-4" d="M1504.9,1259.1s-13.5,2.1-8.5,15.3c2.1,5.5,11.9,6.7,16.2,3.8s3.3-10.9,3.3-10.9,18.2-31.2,26.2-36.3c6.3-4,30-16.8,30-16.8l-5.6-13.5s-36.1,20-41.4,29.4S1504.9,1259.1,1504.9,1259.1Z"/><path class="cls-3" d="M1577.9,1222s-18.4-3.5-16.4-27.8c0,0,21.2-14.6,28.7-2S1593,1213.1,1577.9,1222Z"/><path class="cls-4" d="M1961.2,1298.2s-1.9,13.5,12.1,12.5c5.9-.4,10-9.4,8.4-14.3s-9.4-6.3-9.4-6.3-24.5-26.5-27-35.7c-2-7.2-7.3-33.6-7.3-33.6l-14.7,1.4s8.7,40.3,16.1,48.2S1961.2,1298.2,1961.2,1298.2Z"/><path class="cls-3" d="M1947,1217.5s-8.7,16.6-31.3,7.6c0,0-7.7-24.5,6.5-28S1943,1200.5,1947,1217.5Z"/><path class="cls-4" d="M1926.3,1322s36.6,35.9,41.2,47.8,10,51.8,10,51.8,29.2,4.9,38.5-2c0,0-11.1-13.1-23.1-11.7,0,0-6.2-40.7-11.4-48.5s-43-51-43-51Z"/><path class="cls-3" d="M1977.5,1421.6s25.3,7.6,38.5-2c0,0-4.2-5.3-8.8-8,0,0-12.1,8.7-31,1Z"/><path class="cls-2" d="M1904.4,1309s-13.3,47.2-18.5,52.6c-8.7,9.3-47,25.5-47,25.5s2.8,29.6,11.9,36.7c0,0,9.8-14.1,5.3-25.4,0,0,38.9-21.7,44.7-29,7.1-8.9,18.2-56.2,18-55.8Z"/><path class="cls-3" d="M1838.9,1387.1s-.7,26.5,11.9,36.7c0,0,4.1-5.4,5.4-10.6,0,0-11.5-9.4-9-29.7Z"/><path class="cls-4" d="M1969.6,1091.5s10.3,13.9,11.7,36.5c0,0,11,11.7,1.5,13.2,0,0,2.2,28.5-40.2,32.9,0,0,0,15.4,5.1,22.7,0,0-16.8,19-40.9,6.5S1920.6,1080.5,1969.6,1091.5Z"/><path class="cls-5" d="M1947.7,1196s-31.4,15.4-45.3,7.3v49.8s28.5,19.7,54.8,6.5c0,0,2.2-47.5-9.5-63.6"/><path class="cls-6" d="M1905.3,1063s24.1-37.3,46-1.5c0,0,23.4-.7,24.9,16.1s-9.5,32.2-24.9,29.2c0,0,0,21.2-21.9,23.4,0,0,8.1,17.6-10.2,26.4,0,0,12.4,16.8,0,27.7,0,0,6.6,33.7-15.4,36.6,0,0,.8,37.3-29.9,13.9,0,0-31.5,13.1-27.1-23.4,0,0-35.8-14.6-5.8-42.4,0,0-16.9-26.3,7.3-37.3,0,0-3-37.3,27-36.5C1875.3,1095.2,1872.4,1052.7,1905.3,1063Z"/><ellipse cx="1972.2" cy="1124" rx="1.8" ry="4.8"/><path class="cls-8" d="M1860.8,1343.6s78.1,20.1,126.7,7.5c0,0,2.4-15.9,1.5-28.2s-124.8-10.5-124.8-10.5S1862.1,1327.2,1860.8,1343.6Z"/><path class="cls-5" d="M1904.3,1255.8s-38.9,18.9-41.3,67.5c0,0,9.8,12.5,29.8,4.5,0,0,15.5,14.4,36.3,2.6,0,0,13.6,10,29.2,1,0,0,17.9,8.9,30.7-2.9,0,0,2.6-52.4-30.5-66.6C1958.5,1261.9,1929.5,1264.9,1904.3,1255.8Z"/><path class="cls-8" d="M1957,1255.3s-25.7,13.2-54.5-4.7l-.3,6.1s20.4,21.2,54.8,5.9Z"/><path class="cls-9" d="M1947.7,1076.7s-7.9-7.7-14.1,2.9c0,0-18.1-10.3-23.7,7.5,0,0-9.5-7.2-16.7,3.3,0,0,.4-8.3-31.1-19.3,0,0,20.3-13.4,35.2-11,0,0,2.2-10.8,9.3-19.2,0,0,14,.2,21.3,9.4,0,0,15.9-17.3,28.2-14.6C1956.1,1035.7,1941.3,1051,1947.7,1076.7Z"/><path class="cls-4" d="M1870.8,1285.7s-12.5,5.5-4.2,16.9c3.4,4.8,13.2,3.4,16.5-.5s.4-11.3.4-11.3,9.5-34.9,16-41.9c5-5.5,24.6-24,24.6-24l-8.9-11.7s-29.7,28.7-32.4,39.3S1870.8,1285.7,1870.8,1285.7Z"/><path class="cls-3" d="M1931.7,1230.9s-18.7,1.4-23-22.5c0,0,16.7-19.6,27.2-9.4S1944,1218.4,1931.7,1230.9Z"/><path class="cls-2" d="M2260.4,1291.3s12.8,46,8.2,52c-7.7,10.2-44.1,30.3-44.1,30.3s5.9,29.1,15.7,35.3c0,0,8.2-15.1,2.6-25.8,0,0,36.3-25.8,41.4-33.6,6.1-9.6-3-59.6-6-58.5Z"/><path class="cls-3" d="M2224.5,1373.6s2,26.4,15.7,35.3c0,0,3.4-5.9,4.2-11.1,0,0-12.4-8.2-12-28.6Z"/><path class="cls-2" d="M2260,1302.8s8.4,50.5,5.2,62.9-22.4,47.8-22.4,47.8,20.8,21.1,32.4,21c0,0-1.4-17.2-11.9-23.1,0,0,19-36.6,19.3-46s-4.8-66.4-4.8-66.4Z"/><path class="cls-3" d="M2275.2,1434.5s-.3-6.8-2.5-11.6c0,0-14.9-.2-25.7-17.5l-4.2,8.1"/><path class="cls-4" d="M2320.6,1079.5s10.3,13.9,11.7,36.5c0,0,11,11.7,1.5,13.2,0,0,2.2,28.5-40.2,32.9,0,0,0,15.4,5.1,22.7,0,0-16.8,19-40.9,6.5S2271.6,1068.5,2320.6,1079.5Z"/><path class="cls-5" d="M2298.7,1184s-31.4,15.4-45.3,7.3v49.8s28.5,19.7,54.8,6.5c0,0,2.2-47.5-9.5-63.6"/><path class="cls-6" d="M2256.3,1051s24.1-37.3,46-1.5c0,0,23.4-.7,24.9,16.1s-9.5,32.2-24.9,29.2c0,0,0,21.2-21.9,23.4,0,0,8.1,17.6-10.2,26.4,0,0,12.4,16.8,0,27.7,0,0,6.6,33.7-15.4,36.6,0,0,.8,37.3-29.9,13.9,0,0-31.5,13.1-27.1-23.4,0,0-35.8-14.6-5.8-42.4,0,0-16.9-26.3,7.3-37.3,0,0-3-37.3,27-36.5C2226.3,1083.2,2223.4,1040.7,2256.3,1051Z"/><ellipse cx="2323.2" cy="1112" rx="1.8" ry="4.8"/><path class="cls-9" d="M2298.7,1064.7s-7.9-7.7-14.1,2.9c0,0-18.1-10.3-23.7,7.5,0,0-9.5-7.2-16.7,3.3,0,0,.4-8.3-31.1-19.3,0,0,20.3-13.4,35.2-11,0,0,2.2-10.8,9.3-19.2,0,0,14,.2,21.3,9.4,0,0,15.9-17.3,28.2-14.6C2307.1,1023.7,2292.3,1039,2298.7,1064.7Z"/><path class="cls-4" d="M2260,1302.8s8.4,50.5,5.2,62.9-22.4,47.8-22.4,47.8,20.8,21.1,32.4,21c0,0-1.4-17.2-11.9-23.1,0,0,19-36.6,19.3-46s-4.8-66.4-4.8-66.4Z"/><path class="cls-8" d="M2216.8,1330.6s70.7,19.9,114.7,7.1c0,0,2.2-16,1.4-28.2s-112.9-10.1-112.9-10.1S2218.1,1314.2,2216.8,1330.6Z"/><path class="cls-5" d="M2256.5,1242.6s-35.3,19.1-37.6,67.7c0,0,8.8,12.4,26.9,4.4,0,0,14,14.4,32.9,2.4,0,0,12.2,10,26.4,1,0,0,16.2,8.8,27.8-3,0,0,2.5-52.5-27.4-66.5C2305.5,1248.6,2279.3,1251.7,2256.5,1242.6Z"/><path class="cls-8" d="M2308,1243s-25.7,13.5-54.5-4.4l-.3,6.1s20.4,21.2,54.8,5.9Z"/><path class="cls-4" d="M2279.3,1289s-6.6,11.9,6.8,16.1c5.7,1.7,12.7-5.3,13-10.4.4-6.6-6.5-9.3-6.5-9.3s-13.4-33.5-12.5-43c.7-7.4,5.2-34,5.2-34l-14.1-3.9s-6.4,40.7-2.3,50.8S2279.3,1289,2279.3,1289Z"/><path class="cls-3" d="M2295,1208.6s-14.1,12.4-32-4.1c0,0,1.6-25.7,16.1-23.9S2297.3,1191.2,2295,1208.6Z"/><path class="cls-4" d="M2615.7,1285.8s-12,49.9-19.8,60-39.3,35.2-39.3,35.2,10.9,27.6,21.6,32c0,0,5.5-16.3-1.9-25.8,0,0,31.8-26.3,35.7-34.8s21.6-63.1,21.6-63.1Z"/><path class="cls-3" d="M2556.6,1381s6.6,25.6,21.6,32c0,0,2.4-6.4,2.3-11.7,0,0-13.6-5.9-16.8-26Z"/><path class="cls-2" d="M2631.8,1299.6s42.4,22.1,43.7,29.5c2.1,12.6-8,53-8,53s25.3,15.5,36.5,12.5c0,0-5.4-16.3-17.1-19.5,0,0,6-44.1,3.7-53.2-2.8-11-45.6-38.4-46.9-35.5Z"/><path class="cls-3" d="M2667.5,1382.1s20.7,16.5,36.5,12.5c0,0-1.9-6.5-5.2-10.7,0,0-14.4,3.5-29.1-10.7Z"/><path class="cls-4" d="M2672.6,1070.5s10.3,13.9,11.7,36.5c0,0,11,11.7,1.5,13.2,0,0,2.2,28.5-40.2,32.9,0,0,0,15.4,5.1,22.7,0,0-16.8,19-40.9,6.5S2623.6,1059.5,2672.6,1070.5Z"/><path class="cls-5" d="M2650.7,1175s-31.4,15.4-45.3,7.3v49.8s28.5,19.7,54.8,6.5c0,0,2.2-47.5-9.5-63.6"/><path class="cls-6" d="M2608.3,1042s24.1-37.3,46-1.5c0,0,23.4-.7,24.9,16.1s-9.5,32.2-24.9,29.2c0,0,0,21.2-21.9,23.4,0,0,8.1,17.6-10.2,26.4,0,0,12.4,16.8,0,27.7,0,0,6.6,33.7-15.4,36.6,0,0,.8,37.3-29.9,13.9,0,0-31.5,13.1-27.1-23.4,0,0-35.8-14.6-5.8-42.4,0,0-16.9-26.3,7.3-37.3,0,0-3-37.3,27-36.5C2578.3,1074.2,2575.4,1031.7,2608.3,1042Z"/><ellipse cx="2675.2" cy="1103" rx="1.8" ry="4.8"/><path class="cls-8" d="M2581.4,1329.1s73,7.3,114.1-12.9c0,0-.5-18.2-4.5-30.2s-111.9,11.8-111.9,11.8S2579.7,1312.7,2581.4,1329.1Z"/><path class="cls-5" d="M2605.1,1235.6s-31.4,24.9-25.3,73.1c0,0,10.9,10.8,27.3-.3,0,0,16.3,11.8,32.9-3.3,0,0,13.7,7.7,26.1-3.7,0,0,17.5,5.9,26.9-7.7,0,0-6-37.7-33-51.7C2660,1242,2629.1,1240.5,2605.1,1235.6Z"/><path class="cls-8" d="M2660,1234s-25.7,13.5-54.5-4.4l-.3,6.1s20.4,21.2,54.8,5.9Z"/><path class="cls-9" d="M2650.7,1055.7s-7.9-7.7-14.1,2.9c0,0-18.1-10.3-23.7,7.5,0,0-9.5-7.2-16.7,3.3,0,0,.4-8.3-31.1-19.3,0,0,20.3-13.4,35.2-11,0,0,2.2-10.8,9.3-19.2,0,0,14,.2,21.3,9.4,0,0,15.9-17.3,28.2-14.6C2659.1,1014.7,2644.3,1030,2650.7,1055.7Z"/><path class="cls-4" d="M2691.5,1261.6s2.6,13.4,15.5,8c5.4-2.3,6.3-12.2,3.3-16.3s-11-2.9-11-2.9-31.8-17.1-37.2-25c-4.2-6.1-17.8-29.4-17.8-29.4l-13.4,6.1s21.3,35.3,30.9,40.4S2691.5,1261.6,2691.5,1261.6Z"/><path class="cls-3" d="M2651.8,1190s-2.8,18.5-27.1,17.4c0,0-15.4-20.7-3.1-28.7S2642.4,1175.2,2651.8,1190Z"/><path class="cls-3" d="M2242.8,1413.5s16.1,21,32.4,21c0,0-.3-6.8-2.5-11.6,0,0-14.9-.2-25.7-17.5Z"/><path d="M229,1144a24.1,24.1,0,0,1-4,5s-3.7-5.1-2-8,7.3-5,9-4A41.1,41.1,0,0,1,229,1144Z"/><path d="M580,1156a24.1,24.1,0,0,1-4,5s-3.7-5.1-2-8,7.3-5,9-4A41.1,41.1,0,0,1,580,1156Z"/><path d="M930,1144a24.1,24.1,0,0,1-4,5s-3.7-5.1-2-8,7.3-5,9-4A41.1,41.1,0,0,1,930,1144Z"/><path d="M1280,1136a24.1,24.1,0,0,1-4,5s-3.7-5.1-2-8,7.3-5,9-4A41.1,41.1,0,0,1,1280,1136Z"/><path d="M1630,1144a24.1,24.1,0,0,1-4,5s-3.7-5.1-2-8,7.3-5,9-4A41.1,41.1,0,0,1,1630,1144Z"/><path d="M1979,1156a24.1,24.1,0,0,1-4,5s-3.7-5.1-2-8,7.3-5,9-4A41.1,41.1,0,0,1,1979,1156Z"/><path d="M2330,1144a24.1,24.1,0,0,1-4,5s-3.7-5.1-2-8,7.3-5,9-4A41.1,41.1,0,0,1,2330,1144Z"/><path d="M2682,1135a24.1,24.1,0,0,1-4,5s-3.7-5.1-2-8,7.3-5,9-4A41.1,41.1,0,0,1,2682,1135Z"/><path class="cls-6" d="M220.9,1737.5s15.3,2.7,23.3-2.5,8.2-17.3,2.5-27.5c0,0,20.9-35.8-1.6-62.5,0,0,9.1-45-24.2-54.2,0,0-5.8-36.6-34.2-24.1,0,0-18.3-26.7-40-5.8,0,0-46.6.8-49.1,32.4,0,0-34.2,0-20.9,43.4,0,0-32.5,21.6-5.8,50,0,0-29.2,50,20.8,54.1,0,0,4.2,20,30.9,9.2,0,0,6.6,15.8,26.6,2.5s34.2-7.5,34.2-7.5S207.6,1767.5,220.9,1737.5Z"/><path class="cls-4" d="M164.2,1707.5c12.4-.9,22.4-9.8,20-11.7-8.3-6.6-5.8-16.6-5.8-16.6a132.1,132.1,0,0,0,22.5-10c10.8-6.2,15.5-24.1,16.7-35-11.4-4.1-18.3-9.7-21.7-18.4-22.5,3.4-30-14.1-30-14.1-1.7,8.3-11.7,30-34.2,17.5,0,0,7.1,23.7-14.6,24.6a29.1,29.1,0,0,1-1.7,26.6s2.2,1.3,7.2,3.8c10.1,5,28.3,6.6,28.3,6.6s-2.2,12.1-7.5,19.2C142.2,1701.6,153.5,1708.3,164.2,1707.5Z"/><ellipse cx="187.1" cy="1642.9" rx="2.1" ry="5.4"/><ellipse cx="158" cy="1643.8" rx="2.1" ry="5.4"/><path class="cls-7" d="M173.4,1646.7s2.5,5.8,1.7,8.3-5.9,0-5.9,0"/><path class="cls-7" d="M179.2,1665s-7.5,8.3-20,.8"/><path class="cls-9" d="M105.1,1603.3s.8-12.5,14.1-8.3c0,0,7.5-22.5,25.9-11.7,0,0,2.5-13.3,16.6-9.9,0,0-6.6-6.7,11.7-40,0,0-27.5,4.1-38.3,17.5,0,0-10-7.5-22.5-9.2,0,0-11.7,10.8-10.9,24.2,0,0-26.6-2.5-35,9.1C66.7,1575,90.9,1576.7,105.1,1603.3Z"/><path class="cls-4" d="M171.3,1832.9l8.4,121.8s29.5,7.1,39.5.7c0,0-14.8-17.3-27.1-16.7l-2.5-109.1Z"/><path class="cls-3" d="M179.7,1954.7s25.3,9.5,39.5.7c0,0-4-5.8-8.5-8.8,0,0-12.9,8-31.7-1.2Z"/><path class="cls-4" d="M158.3,1833.8l-8.4,121.7s-29.5,7.1-39.5.7c0,0,14.7-17.2,27.1-16.6l2.5-109.2Z"/><path class="cls-3" d="M149.9,1955.5s-25.3,9.5-39.5.7c0,0,4-5.7,8.5-8.7,0,0,12.9,7.9,31.7-1.3Z"/><path class="cls-8" d="M105.1,1853s76.4,13.8,121.8-3.3c0,0,.8-16.4-1-28.8s-120.3,0-120.3,0S104.9,1836.1,105.1,1853Z"/><path class="cls-5" d="M139,1759.7s-35.5,22.7-33.6,72.4c0,0,10.5,11.9,28.9,2,0,0,16.1,13.4,35-.5,0,0,13.8,9.1,27.9-1.4,0,0,17.9,7.5,29.2-5.6,0,0-2.1-53.7-35-65.3C191.4,1761.3,163.9,1766.9,139,1759.7Z"/><path class="cls-5" d="M146.7,1693.3s9.6,8.8,19.1,9.2,18.4-6.7,18.4-6.7l2.5,29.2s-1.7,14,3.3,32.9c0,0-21.7,10.4-50.8.4,0,0,3.3-19.1.8-35.8Z"/><path class="cls-4" d="M121.7,1716.7s-24.2,46.6-17.5,55.8,41.6,44.2,41.6,44.2,3.4,13.3,13.4,13.3c7.5,0,15-8.3,10.8-18.3s-15-6.7-15-6.7-36.7-30-36.7-38.3,16.7-43.4,16.7-43.4Z"/><path class="cls-3" d="M117.1,1712.9s5.8,10.9,23.3,11.7c0,0,20.9-27.5,2.5-34.2S117.1,1712.9,117.1,1712.9Z"/><path class="cls-4" d="M203.3,1714.2s25.2,37.2,31.8,36.5,37.4-8.2,40.7-12.4c0,0,2.5-12.5,15.9-10s11.6,16.7,6.6,20-8.3,6.7-16.6,2.5c0,0-44.2,19.2-54.2,14.2s-37.5-41.7-37.5-41.7Z"/><path class="cls-3" d="M211.3,1716.3s-5.8,10.8-23.3,11.6c0,0-20.9-27.5-2.5-34.1S211.3,1716.3,211.3,1716.3Z"/><path class="cls-8" d="M189.2,1754.2l2.5,7.5s-22.5,12.5-54.2-.9l2.3-6.5S166.6,1764.3,189.2,1754.2Z"/></g><g id="Contact"><path class="cls-6" d="M239.8,740.9s15.1,2.7,23-2.4,8.1-17.2,2.5-27.2c0,0,20.6-35.5-1.6-61.9,0,0,9-44.5-23.9-53.5,0,0-5.8-36.3-33.8-23.9,0,0-18.2-26.4-39.6-5.8,0,0-46.1.8-48.6,32.1,0,0-33.8,0-20.6,42.9,0,0-32.2,21.4-5.8,49.5,0,0-28.8,49.4,20.6,53.5,0,0,4.1,19.8,30.5,9.1,0,0,6.6,15.7,26.4,2.5s33.8-7.5,33.8-7.5S226.6,770.6,239.8,740.9Z"/><path class="cls-4" d="M183.7,711.3c12.2-.9,22.1-9.7,19.8-11.6-8.2-6.6-5.8-16.5-5.8-16.5a125.1,125.1,0,0,0,22.3-9.9c10.7-6.1,15.3-23.7,16.5-34.6-11.3-4-18.1-9.6-21.5-18.1-22.2,3.3-29.6-14-29.6-14-1.7,8.2-11.6,29.7-33.8,17.3,0,0,6.9,23.5-14.5,24.3a28.7,28.7,0,0,1-1.7,26.4l7.1,3.7c10,5,28,6.6,28,6.6s-2.1,11.9-7.4,18.9C162,705.4,173.1,712,183.7,711.3Z"/><ellipse cx="206.4" cy="647.4" rx="2.1" ry="5.4"/><ellipse cx="177.5" cy="648.2" rx="2.1" ry="5.4"/><path class="cls-7" d="M192.8,651.1s2.5,5.8,1.6,8.2-5.7,0-5.7,0"/><path class="cls-9" d="M125.2,608.2s.8-12.3,14-8.2c0,0,7.4-22.3,25.6-11.5,0,0,2.4-13.2,16.4-9.9,0,0-6.5-6.6,11.6-39.6,0,0-27.2,4.1-37.9,17.3,0,0-9.9-7.4-22.3-9.1,0,0-11.5,10.8-10.7,23.9,0,0-26.4-2.4-34.6,9.1C87.3,580.2,111.2,581.9,125.2,608.2Z"/><path class="cls-4" d="M190.7,835.3,199,955.7s29.2,7.1,39.1.7c0,0-14.6-17-26.8-16.4l-2.5-108Z"/><path class="cls-3" d="M199,955.7s25.1,9.4,39.1.7c0,0-3.9-5.7-8.4-8.6,0,0-12.8,7.8-31.4-1.2Z"/><path class="cls-4" d="M177.9,836.1l-8.3,120.5s-29.2,7-39.1.7c0,0,14.6-17.1,26.8-16.5l2.5-108Z"/><path class="cls-3" d="M169.6,956.6s-25.1,9.4-39.1.7c0,0,3.9-5.7,8.4-8.7,0,0,12.8,7.9,31.3-1.2Z"/><path class="cls-8" d="M125.3,855.2s75.5,13.6,120.4-3.3c0,0,.8-16.2-1-28.5s-118.9,0-118.9,0S125.1,838.5,125.3,855.2Z"/><path class="cls-5" d="M158.8,762.9s-35.1,22.4-33.2,71.6c0,0,10.3,11.8,28.5,2,0,0,15.9,13.3,34.6-.5,0,0,13.7,9,27.7-1.4,0,0,17.7,7.4,28.8-5.5,0,0-2.1-53.1-34.6-64.6C210.6,764.5,183.4,770,158.8,762.9Z"/><path class="cls-5" d="M166.4,697.2s9.4,8.7,18.9,9.1,18.1-6.6,18.1-6.6l2.5,28.9s-1.6,13.8,3.3,32.5c0,0-21.4,10.3-50.3.4,0,0,3.3-18.9.9-35.4Z"/><path class="cls-4" d="M215.1,699.3s41.9,27.1,45.1,21.4,14.5-35,13.1-40.1c0,0-8.8-9.1.8-18.5s20.2,0,20,6,.7,10.5-7.4,14.9c0,0-9.5,46.7-19.3,51.9s-53.6-17.3-53.6-17.3Z"/><path class="cls-3" d="M230.1,703.3s2.5,11.9-10.3,23.7c0,0-33.2-7.6-23.6-24.3S230.1,703.3,230.1,703.3Z"/><path class="cls-8" d="M208.4,757.4l2.5,7.4s-22.3,12.4-53.6-.8l2.2-6.4S186.1,767.4,208.4,757.4Z"/><path class="cls-4" d="M146.9,701.3s-41.9,27-45.1,21.3-14.6-34.9-13.1-40c0,0,8.7-9.1-.9-18.5s-20.1,0-20,5.9-.6,10.6,7.5,15c0,0,9.5,46.6,19.2,51.9s53.7-17.3,53.7-17.3Z"/><path class="cls-3" d="M136.1,701.8s-2.5,11.9,10.3,23.6c0,0,33.2-7.6,23.6-24.3S136.1,701.8,136.1,701.8Z"/><ellipse cx="191.4" cy="671.7" rx="5.8" ry="6.8"/></g></svg>
