<svg xmlns="http://www.w3.org/2000/svg" viewBox="0 0 350 500"><defs><style>.cls-1{fill:#d3aa8d;}.cls-2{fill:#8e3f8e;}.cls-3{fill:#e8b795;}.cls-4{fill:#a851a6;}.cls-5{fill:#724320;}.cls-6{fill:none;stroke:#000;stroke-miterlimit:10;}.cls-7{fill:#e66cea;}.cls-8{fill:#e2b423;}</style></defs><title>prinsessewalk</title><g id="Contact"><path class="cls-1" d="M188.52,312.91s37.15,35.32,42,47.08,10.87,51.66,10.87,51.66,29.34,4.41,38.53-2.69c0,0-11.39-12.92-23.38-11.27,0,0-6.87-40.66-12.25-48.35s-43.84-50.17-43.84-50.17Z"/><path class="cls-2" d="M241.4,411.65s25.5,7.09,38.53-2.69c0,0-4.34-5.28-9-7.81,0,0-11.93,8.84-31,1.52Z"/><path class="cls-3" d="M149.67,300.49s-7.62,50.69-14.47,61.41-36.09,38.54-36.09,38.54,13.23,26.57,24.31,30c0,0,4-16.74-4.17-25.61,0,0,29.36-29,32.57-37.77s16-64.69,16-64.69Z"/><path class="cls-2" d="M99.11,400.44s8.82,25,24.31,30c0,0,1.84-6.58,1.24-11.84,0,0-14.08-4.7-19-24.51Z"/><path class="cls-1" d="M113.91,268.67s-12.89,4.42-5.67,16.49c3,5.06,12.88,4.57,16.54,1,4.74-4.62,1.39-11.28,1.39-11.28S138.66,241,145.7,234.56c5.5-5,26.63-21.73,26.63-21.73l-7.85-12.43s-32.07,26-35.7,36.25C125.59,245.63,113.91,268.67,113.91,268.67Z"/><path class="cls-1" d="M179.33,219.42s-18.72-.22-21-24.45c0,0,18.36-18.06,27.94-7S192.7,208,179.33,219.42Z"/><path class="cls-3" d="M219.62,79.49s10.24,13.89,11.7,36.56c0,0,11,11.69,1.46,13.16,0,0,2.2,28.51-40.2,32.89,0,0,0,15.36,5.11,22.67,0,0-16.81,19-40.94,6.58S170.64,68.53,219.62,79.49Z"/><path class="cls-4" d="M197.69,184s-31.43,15.35-45.32,7.31v49.71s28.51,19.74,54.83,6.58c0,0,2.19-47.52-9.51-63.6"/><path class="cls-5" d="M155.29,51s24.13-37.28,46.06-1.46c0,0,23.39-.73,24.85,16.08s-9.5,32.17-24.85,29.25c0,0,0,21.2-21.93,23.39,0,0,8,17.55-10.24,26.32,0,0,12.43,16.81,0,27.78,0,0,6.58,33.63-15.35,36.55,0,0,.73,37.29-30,13.89,0,0-31.44,13.16-27-23.39,0,0-35.83-14.62-5.85-42.4,0,0-16.82-26.32,7.31-37.29,0,0-2.93-37.28,27.05-36.55C125.32,83.15,122.39,40.75,155.29,51Z"/><ellipse cx="222.18" cy="112.03" rx="1.83" ry="4.75"/><path class="cls-6" d="M227.77,145.25s-4.86,1.14-12.9-2.52"/><path class="cls-7" d="M117.35,335.32s79.55,13.23,126.85-3.6c0,0,1-16.07-.94-28.18S118,303.9,118,303.9,117.22,318.81,117.35,335.32Z"/><path class="cls-4" d="M153,244s-37.07,22.26-35.26,70.87c0,0,10.83,11.6,30,1.9,0,0,16.74,13,36.47-.61,0,0,14.33,8.82,29.12-1.52,0,0,18.63,7.28,30.37-5.51,0,0-2-52.51-36.19-63.76C207.55,245.37,178.91,250.9,153,244Z"/><path class="cls-7" d="M207,243.25s-25.72,13.27-54.53-4.7l-.3,6.16s20.47,21.2,54.83,5.85Z"/><path class="cls-3" d="M231.51,275.28s1.64,13.53,15,9c5.57-1.91,7.14-11.65,4.41-16-3.55-5.59-10.76-3.7-10.76-3.7s-30.54-19.26-35.36-27.49C201,230.66,189,206.53,189,206.53l-13.79,5.1s18.77,36.77,28,42.45C211.39,259.07,231.51,275.28,231.51,275.28Z"/><path class="cls-2" d="M196.93,201.05s-4.11,18.27-28.27,15.42c0,0-13.85-21.72-1-28.79S188.58,185.6,196.93,201.05Z"/><path class="cls-8" d="M197.71,64.67s-7.88-7.66-14.12,2.88c0,0-18.1-10.26-23.69,7.56,0,0-9.46-7.22-16.74,3.27,0,0,.43-8.26-31.09-19.23,0,0,20.38-13.43,35.27-11.1,0,0,2.12-10.75,9.29-19.18,0,0,14,.22,21.24,9.4,0,0,15.92-17.29,28.2-14.57C206.07,23.7,191.3,39,197.71,64.67Z"/></g></svg>
