<?xml version="1.0" encoding="utf-8"?>
<!-- Generator: Adobe Illustrator 22.1.0, SVG Export Plug-In . SVG Version: 6.00 Build 0)  -->
<svg version="1.1" id="Layer_1" xmlns="http://www.w3.org/2000/svg" xmlns:xlink="http://www.w3.org/1999/xlink" x="0px" y="0px"
	 viewBox="0 0 400 600" style="enable-background:new 0 0 400 600;" xml:space="preserve">
<style type="text/css">
	.st0{fill:#E8B795;}
	.st1{fill:#A851A6;}
	.st2{fill:#724320;}
	.st3{fill:none;stroke:#000000;stroke-miterlimit:10;}
	.st4{fill:#E66CEA;}
	.st5{fill:#E2B423;}
</style>
<path class="st0" d="M145.5,499.5c0,0-6,49,15,48s11-48,11-48H145.5z"/>
<path class="st0" d="M194.2,505.5c0,0-5.1,45.5,13.2,40.5s10.1-39.5,10.1-39.5L194.2,505.5z"/>
<path class="st1" d="M145.5,524.5c0,0,0.6,24,13.8,23s15-13.6,14.6-22.3C173.9,525.2,162.5,534.5,145.5,524.5z"/>
<path class="st1" d="M193.6,523c0,0-0.4,25,11.8,25c10,0,14.2-11.1,13.9-24.3C219.3,523.7,205.1,533.5,193.6,523z"/>
<path class="st2" d="M244.6,293.5c0,0,18.4,3.2,28-3c9.2-5.9,9.8-20.8,3-33c0,0,25-43-2-75c0,0,11-54-29-65c0,0-7-44-41-29
	c0,0-22-32-48-7c0,0-56,1-59,39c0,0-41,0-25,52c0,0-39,26-7,60c0,0-35,60,25,65c0,0,5,24,37,11c0,0,8,19,32,3s41-9,41-9
	S228.6,329.5,244.6,293.5z"/>
<path class="st0" d="M176.6,257.5c14.8-1.1,26.8-11.8,24-14c-10-8-7-20-7-20s13-4,27-12c13-7.4,18.6-28.8,20-42
	c-13.7-4.8-21.9-11.6-26-22c-27,4-36-17-36-17c-2,10-14,36-41,21c0,0,9,26-27,23c5.9,13.2-0.2,17.8-4,24c2,5,14,16,20,19
	c12.2,6.1,34,8,34,8s-2.6,14.5-9,23C150.2,250.4,163.7,258.4,176.6,257.5z"/>
<ellipse cx="204.1" cy="180" rx="2.5" ry="6.5"/>
<ellipse cx="169.1" cy="181" rx="2.5" ry="6.5"/>
<path class="st3" d="M187.6,184.5c0,0,3,7,2,10s-7,0-7,0"/>
<path class="st3" d="M194.6,206.5c0,0-9,10-24,1"/>
<path class="st4" d="M75.9,440.4c-3.6,30.9-2.4,52.1-2.4,52.1c126,57,225-9,225-9s-0.4-19.8-10.7-56.9S75.9,440.4,75.9,440.4
	L75.9,440.4L75.9,440.4L75.9,440.4L75.9,440.4L75.9,440.4L75.9,440.4"/>
<path class="st1" d="M208.5,320.5c0,0,59,18,80,111c0,0-10,37-49,19c0,0-24,27-54,2c0,0-30,25-52,1c0,0-34,26-58-5c0,0,3-105,68-129
	C143.5,319.5,180.5,326.5,208.5,320.5z"/>
<path class="st0" d="M223.5,263.5c0,0,30.2,44.7,38.1,43.8c7.9-0.8,44.9-9.8,48.9-14.8c0,0,3-15,19-12s14,20,8,24s-10,8-20,3
	c0,0-53,23-65,17s-45-50-45-50L223.5,263.5z"/>
<path class="st0" d="M122.5,266.5c0,0-29,56-21,67s50,53,50,53s4,16,16,16c9,0,18-10,13-22s-18-8-18-8s-44-36-44-46s20-52,20-52
	L122.5,266.5z"/>
<path class="st1" d="M155.5,238.5l23,11l22-8c22-9,34,25,34,25s-11,15-27,17l-4-7c0,0-2,16.8,4,39.4c0,0-26,12.6-61,0.6
	c0,0,4-23,1-43l-4,10c0,0-14,0-29-11C114.5,272.5,124.5,235.5,155.5,238.5z"/>
<path class="st4" d="M206.5,311.5l3,9c0,0-27,15-65-1l2.7-7.8C147.2,311.7,179.4,323.7,206.5,311.5z"/>
<path class="st5" d="M105.6,132.5c0,0,1-15,17-10c0,0,9-27,31-14c0,0,3-16,20-12c0,0-8-8,14-48c0,0-33,5-46,21c0,0-12-9-27-11
	c0,0-14,13-13,29c0,0-32-3-42,11C59.6,98.5,88.6,100.5,105.6,132.5z"/>
</svg>
