<svg xmlns="http://www.w3.org/2000/svg" viewBox="0 0 350 500"><defs><style>.cls-1{fill:#724320;}.cls-2{fill:#e8b795;}.cls-3{fill:none;stroke:#000;stroke-miterlimit:10;}.cls-4{fill:#e2b423;}.cls-5{fill:#8e3f8e;}.cls-6{fill:#e66cea;}.cls-7{fill:#a851a6;}</style></defs><title>prinsessewalk</title><g id="Contact"><path class="cls-1" d="M237.59,222.4s14.41,2.5,22-2.36c7.19-4.61,7.71-16.34,2.35-25.9,0,0,19.63-33.76-1.57-58.88,0,0,8.64-42.39-22.76-51,0,0-5.5-34.54-32.19-22.77,0,0-17.27-25.12-37.68-5.49,0,0-44,.78-46.31,30.61,0,0-32.19,0-19.63,40.82,0,0-30.61,20.41-5.49,47.1,0,0-27.48,47.1,19.62,51,0,0,3.93,18.84,29.05,8.63,0,0,6.28,14.92,25.12,2.36s32.18-7.07,32.18-7.07S225,250.66,237.59,222.4Z"/><path class="cls-2" d="M184.21,194.14c11.62-.84,21-9.24,18.84-11-7.85-6.28-5.5-15.7-5.5-15.7a117.59,117.59,0,0,0,21.2-9.42c10.19-5.83,14.63-22.65,15.7-33-10.73-3.81-17.17-9.13-20.41-17.27-21.2,3.14-28.26-13.35-28.26-13.35-1.57,7.85-11,28.26-32.19,16.49,0,0,6.62,22.37-13.79,23.15a27.6,27.6,0,0,1-1.57,25.12s2,1.18,6.73,3.54c9.55,4.77,26.69,6.28,26.69,6.28s-2.06,11.38-7.07,18C163.49,188.53,174.08,194.87,184.21,194.14Z"/><ellipse cx="205.8" cy="133.3" rx="1.96" ry="5.1"/><ellipse cx="178.32" cy="134.08" rx="1.96" ry="5.1"/><path class="cls-3" d="M192.84,136.83s2.36,5.5,1.57,7.85-5.49,0-5.49,0"/><path class="cls-4" d="M128.47,96s.79-11.77,13.35-7.85c0,0,7.06-21.19,24.33-11,0,0,2.36-12.56,15.7-9.42,0,0-6.28-6.28,11-37.68,0,0-25.9,3.93-36.11,16.49,0,0-9.42-7.07-21.19-8.64,0,0-11,10.21-10.21,22.77,0,0-25.12-2.36-33,8.63C92.36,69.32,115.13,70.89,128.47,96Z"/><path class="cls-2" d="M190.83,312.28,198.75,427s27.8,6.68,37.21.65c0,0-13.87-16.25-25.51-15.68L208.1,309.14Z"/><path class="cls-5" d="M198.75,427s23.88,8.94,37.21.65c0,0-3.72-5.43-8-8.25,0,0-12.19,7.48-29.87-1.15Z"/><path class="cls-2" d="M178.66,313.06l-7.93,114.72s-27.8,6.69-37.21.65c0,0,13.87-16.24,25.51-15.67l2.36-102.84Z"/><path class="cls-5" d="M170.73,427.78s-23.88,9-37.21.65c0,0,3.72-5.43,8-8.25,0,0,12.19,7.49,29.87-1.15Z"/><path class="cls-6" d="M128.52,331.21s72,13,114.71-3.08c0,0,.82-15.47-.94-27.14S129,300.94,129,300.94,128.35,315.3,128.52,331.21Z"/><path class="cls-7" d="M160.48,243.35S127,264.68,128.81,311.5c0,0,9.83,11.22,27.17,1.93,0,0,15.18,12.61,33-.47,0,0,13,8.54,26.34-1.38,0,0,16.87,7.08,27.45-5.21,0,0-2-50.58-32.93-61.53C209.82,244.84,183.94,250.08,160.48,243.35Z"/><path class="cls-7" d="M167.67,180.79s9,8.24,18.06,8.64S203,183.15,203,183.15l2.36,27.47s-1.57,13.22,3.14,30.95c0,0-20.41,9.87-47.88.45,0,0,3.14-18.05.78-33.75Z"/><path class="cls-2" d="M214.08,182.76S254,208.56,257,203.1,270.9,169.8,269.48,165c0,0-8.29-8.68.84-17.62s19.17,0,19,5.66.64,10-7.08,14.21c0,0-9.07,44.44-18.33,49.45s-51.1-16.47-51.1-16.47Z"/><path class="cls-5" d="M228.37,186.56s2.35,11.35-9.78,22.55c0,0-31.68-7.23-22.49-23.14S228.37,186.56,228.37,186.56Z"/><path class="cls-6" d="M207.7,238.1l2.36,7.06s-21.19,11.78-51-.78l2.11-6.15S186.47,247.65,207.7,238.1Z"/><path class="cls-2" d="M149.11,184.62S109.2,210.41,106.18,205s-13.89-33.29-12.47-38.12c0,0,8.29-8.68-.84-17.62s-19.16,0-19,5.66-.65,10,7.07,14.22c0,0,9.08,44.43,18.34,49.45s51.09-16.47,51.09-16.47Z"/><path class="cls-5" d="M138.85,185.08s-2.35,11.35,9.77,22.55c0,0,31.69-7.23,22.49-23.14S138.85,185.08,138.85,185.08Z"/><ellipse cx="191.5" cy="156.5" rx="5.5" ry="6.5"/></g></svg>
