<svg id="Sprite" xmlns="http://www.w3.org/2000/svg" viewBox="0 0 2800 500"><defs><style>.cls-1{fill:#c47641;}.cls-2{fill:#d3aa8d;}.cls-3{fill:#8e3f8e;}.cls-4{fill:#e8b795;}.cls-5{fill:#a851a6;}.cls-6{fill:#724320;}.cls-7{fill:none;stroke:#000;stroke-miterlimit:10;}.cls-8{fill:#e66cea;}.cls-9{fill:#e2b423;}.cls-10{fill:#c4b141;}.cls-11{fill:#80c142;}.cls-12{fill:#43bfaa;}.cls-13{fill:#4d44bc;}.cls-14{fill:#9245ba;}.cls-15{fill:#b746b2;}.cls-16{fill:#b5474f;}</style></defs><title>prinsessewalk</title><rect class="cls-1" width="350" height="500"/><path class="cls-2" d="M188.52,312.91s37.15,35.32,42,47.08,10.87,51.66,10.87,51.66,29.34,4.41,38.53-2.69c0,0-11.39-12.92-23.38-11.27,0,0-6.87-40.66-12.25-48.35s-43.84-50.17-43.84-50.17Z"/><path class="cls-3" d="M241.4,411.65s25.5,7.09,38.53-2.69c0,0-4.34-5.28-9-7.81,0,0-11.93,8.84-31,1.52Z"/><path class="cls-4" d="M149.67,300.49s-7.62,50.69-14.47,61.41-36.09,38.54-36.09,38.54,13.23,26.57,24.31,30c0,0,4-16.74-4.17-25.61,0,0,29.36-29,32.57-37.77s16-64.69,16-64.69Z"/><path class="cls-3" d="M99.11,400.44s8.82,25,24.31,30c0,0,1.84-6.58,1.24-11.84,0,0-14.08-4.7-19-24.51Z"/><path class="cls-2" d="M113.91,268.67s-12.89,4.42-5.67,16.49c3,5.06,12.88,4.57,16.54,1,4.74-4.62,1.39-11.28,1.39-11.28S138.66,241,145.7,234.56c5.5-5,26.63-21.73,26.63-21.73l-7.85-12.43s-32.07,26-35.7,36.25C125.59,245.63,113.91,268.67,113.91,268.67Z"/><path class="cls-2" d="M179.33,219.42s-18.72-.22-21-24.45c0,0,18.36-18.06,27.94-7S192.7,208,179.33,219.42Z"/><path class="cls-4" d="M219.62,79.49s10.24,13.89,11.7,36.56c0,0,11,11.69,1.46,13.16,0,0,2.2,28.51-40.2,32.89,0,0,0,15.36,5.11,22.67,0,0-16.81,19-40.94,6.58S170.64,68.53,219.62,79.49Z"/><path class="cls-5" d="M197.69,184s-31.43,15.35-45.32,7.31v49.71s28.51,19.74,54.83,6.58c0,0,2.19-47.52-9.51-63.6"/><path class="cls-6" d="M155.29,51s24.13-37.28,46.06-1.46c0,0,23.39-.73,24.85,16.08s-9.5,32.17-24.85,29.25c0,0,0,21.2-21.93,23.39,0,0,8,17.55-10.24,26.32,0,0,12.43,16.81,0,27.78,0,0,6.58,33.63-15.35,36.55,0,0,.73,37.29-30,13.89,0,0-31.44,13.16-27-23.39,0,0-35.83-14.62-5.85-42.4,0,0-16.82-26.32,7.31-37.29,0,0-2.93-37.28,27.05-36.55C125.32,83.15,122.39,40.75,155.29,51Z"/><ellipse cx="222.18" cy="112.03" rx="1.83" ry="4.75"/><path class="cls-7" d="M227.77,145.25s-4.86,1.14-12.9-2.52"/><path class="cls-8" d="M117.35,335.32s79.55,13.23,126.85-3.6c0,0,1-16.07-.94-28.18S118,303.9,118,303.9,117.22,318.81,117.35,335.32Z"/><path class="cls-5" d="M153,244s-37.07,22.26-35.26,70.87c0,0,10.83,11.6,30,1.9,0,0,16.74,13,36.47-.61,0,0,14.33,8.82,29.12-1.52,0,0,18.63,7.28,30.37-5.51,0,0-2-52.51-36.19-63.76C207.55,245.37,178.91,250.9,153,244Z"/><path class="cls-8" d="M207,243.25s-25.72,13.27-54.53-4.7l-.3,6.16s20.47,21.2,54.83,5.85Z"/><path class="cls-4" d="M231.51,275.28s1.64,13.53,15,9c5.57-1.91,7.14-11.65,4.41-16-3.55-5.59-10.76-3.7-10.76-3.7s-30.54-19.26-35.36-27.49C201,230.66,189,206.53,189,206.53l-13.79,5.1s18.77,36.77,28,42.45C211.39,259.07,231.51,275.28,231.51,275.28Z"/><path class="cls-3" d="M196.93,201.05s-4.11,18.27-28.27,15.42c0,0-13.85-21.72-1-28.79S188.58,185.6,196.93,201.05Z"/><path class="cls-9" d="M197.71,64.67s-7.88-7.66-14.12,2.88c0,0-18.1-10.26-23.69,7.56,0,0-9.46-7.22-16.74,3.27,0,0,.43-8.26-31.09-19.23,0,0,20.38-13.43,35.27-11.1,0,0,2.12-10.75,9.29-19.18,0,0,14,.22,21.24,9.4,0,0,15.92-17.29,28.2-14.57C206.07,23.7,191.3,39,197.71,64.67Z"/><rect class="cls-10" x="350" width="350" height="500"/><path class="cls-2" d="M529.7,319s29.74,41.75,32.26,54.22.81,52.79.81,52.79,28,9.92,38.34,4.71c0,0-8.72-14.85-20.8-15.52,0,0,1-41.22-2.8-49.8s-33.46-57.61-33.46-57.61Z"/><path class="cls-3" d="M562.77,426s23.68,11.83,38.34,4.71c0,0-3.25-6-7.33-9.38,0,0-13.39,6.4-30.71-4.42Z"/><path class="cls-4" d="M508,303s-4.85,48.7-9,55c-7,10.63-41.93,33.25-41.93,33.25s7.92,28.6,18.14,34.1c0,0,7.16-15.65.79-25.93,0,0,34.49-28.19,39-36.42,5.45-9.94,8.14-58.43,8-58Z"/><path class="cls-3" d="M457.07,391.25s3.9,26.18,18.14,34.1c0,0,3.05-6.1,3.47-11.38,0,0-12.92-7.3-14-27.69Z"/><path class="cls-2" d="M481.26,294.83s-11.31,7.61-1.21,17.4c4.23,4.1,13.62,1.08,16.23-3.33,3.38-5.69-1.58-11.26-1.58-11.26s3.3-36,8.43-44c4-6.28,20.1-27.88,20.1-27.88l-10.8-10s-24.24,33.41-25.1,44.25C486.58,269.55,481.26,294.83,481.26,294.83Z"/><path class="cls-2" d="M531.7,230.32s-18.14,4.64-26.57-18.19c0,0,13.06-22.19,25.18-14S541.67,215.87,531.7,230.32Z"/><path class="cls-4" d="M570.62,91.49s10.24,13.89,11.7,36.56c0,0,11,11.69,1.46,13.16,0,0,2.2,28.51-40.2,32.89,0,0,0,15.36,5.11,22.67,0,0-16.81,19-40.94,6.58S521.64,80.53,570.62,91.49Z"/><path class="cls-5" d="M548.69,196s-31.43,15.35-45.32,7.31v49.71s28.51,19.74,54.83,6.58c0,0,2.19-47.52-9.51-63.6"/><path class="cls-6" d="M506.29,63s24.13-37.28,46.06-1.46c0,0,23.39-.73,24.85,16.08s-9.5,32.17-24.85,29.25c0,0,0,21.2-21.93,23.39,0,0,8,17.55-10.24,26.32,0,0,12.43,16.81,0,27.78,0,0,6.58,33.63-15.35,36.55,0,0,.73,37.29-30,13.89,0,0-31.44,13.16-27.05-23.39,0,0-35.83-14.62-5.85-42.4,0,0-16.82-26.32,7.31-37.29,0,0-2.93-37.28,27.05-36.55C476.32,95.15,473.39,52.75,506.29,63Z"/><ellipse cx="573.18" cy="124.03" rx="1.83" ry="4.75"/><path class="cls-7" d="M578.77,157.25s-4.86,1.14-12.9-2.52"/><path class="cls-8" d="M461.83,343.62s78.09,20.11,126.68,7.46c0,0,2.35-15.91,1.51-28.15s-124.81-10.56-124.81-10.56S463.14,327.16,461.83,343.62Z"/><path class="cls-5" d="M505.3,255.75S466.43,274.7,464,323.28c0,0,9.78,12.5,29.75,4.51,0,0,15.55,14.45,36.39,2.57,0,0,13.51,10,29.14,1,0,0,17.93,8.88,30.74-2.84,0,0,2.57-52.48-30.5-66.67C559.52,261.87,530.51,264.89,505.3,255.75Z"/><path class="cls-8" d="M558,255.25s-25.72,13.27-54.53-4.7l-.3,6.16s20.47,21.2,54.83,5.85Z"/><path class="cls-4" d="M562.22,298.2s-1.92,13.49,12.11,12.54c5.89-.4,9.92-9.41,8.4-14.29-2-6.32-9.43-6.36-9.43-6.36s-24.52-26.51-27-35.7c-2-7.19-7.27-33.59-7.27-33.59l-14.63,1.35s8.6,40.38,16.08,48.26C547,277.33,562.22,298.2,562.22,298.2Z"/><path class="cls-3" d="M548,217.55s-8.69,16.58-31.3,7.57c0,0-7.75-24.56,6.46-28.06S544,200.47,548,217.55Z"/><path class="cls-9" d="M548.71,76.67s-7.88-7.66-14.12,2.88c0,0-18.1-10.26-23.69,7.56,0,0-9.46-7.22-16.74,3.27,0,0,.43-8.26-31.09-19.23,0,0,20.38-13.43,35.27-11.1,0,0,2.12-10.75,9.29-19.18,0,0,14,.22,21.24,9.4,0,0,15.92-17.29,28.2-14.57C557.07,35.7,542.3,51,548.71,76.67Z"/><rect class="cls-11" x="700" width="350" height="500"/><path class="cls-2" d="M860,302.78s8.42,50.56,5.22,62.88-22.41,47.8-22.41,47.8,20.79,21.18,32.39,21c0,0-1.32-17.17-11.88-23.07,0,0,19-36.61,19.31-46S877.77,299,877.77,299Z"/><path class="cls-3" d="M842.77,413.46s16.1,21,32.39,21c0,0-.28-6.82-2.47-11.64,0,0-14.85-.12-25.66-17.44Z"/><path class="cls-4" d="M868.24,297.85s20.58,43.17,17.12,49.87c-5.85,11.31-38.23,37.46-38.23,37.46s10.87,27.61,21.6,32c0,0,5.49-16.33-1.92-25.88,0,0,31.35-31.64,35-40.3,4.39-10.45-13.34-58.12-16.06-56.52Z"/><path class="cls-3" d="M847.13,385.18s6.62,25.63,21.6,32c0,0,2.4-6.4,2.27-11.69,0,0-13.62-5.91-16.8-26.07Z"/><path class="cls-4" d="M920.62,79.49s10.24,13.89,11.7,36.56c0,0,11,11.69,1.46,13.16,0,0,2.2,28.51-40.2,32.89,0,0,0,15.36,5.11,22.67,0,0-16.81,19-40.94,6.58S871.64,68.53,920.62,79.49Z"/><path class="cls-5" d="M898.69,184s-31.43,15.35-45.32,7.31v49.71s28.51,19.74,54.83,6.58c0,0,2.19-47.52-9.51-63.6"/><path class="cls-6" d="M856.29,51s24.13-37.28,46.06-1.46c0,0,23.39-.73,24.85,16.08s-9.5,32.17-24.85,29.25c0,0,0,21.2-21.93,23.39,0,0,8,17.55-10.24,26.32,0,0,12.43,16.81,0,27.78,0,0,6.58,33.63-15.35,36.55,0,0,.73,37.29-30,13.89,0,0-31.44,13.16-27.05-23.39,0,0-35.83-14.62-5.85-42.4,0,0-16.82-26.32,7.31-37.29,0,0-2.93-37.28,27.05-36.55C826.32,83.15,823.39,40.75,856.29,51Z"/><ellipse cx="923.18" cy="112.03" rx="1.83" ry="4.75"/><path class="cls-7" d="M928.77,145.25s-4.86,1.14-12.9-2.52"/><path class="cls-8" d="M816.83,330.62s70.62,19.85,114.65,7c0,0,2.18-15.92,1.47-28.15s-113-10.15-113-10.15S818.07,314.15,816.83,330.62Z"/><path class="cls-5" d="M856.47,242.62s-35.25,19.07-37.61,67.65c0,0,8.81,12.47,26.92,4.42,0,0,14,14.39,32.93,2.45,0,0,12.2,10,26.38.92,0,0,16.2,8.82,27.84-2.94,0,0,2.49-52.48-27.39-66.56C905.54,248.56,879.27,251.67,856.47,242.62Z"/><path class="cls-8" d="M908,243s-25.72,13.52-54.53-4.45l-.3,6.16s20.47,21.2,54.83,5.85Z"/><path class="cls-4" d="M879.3,289s-6.62,11.91,6.82,16.05c5.63,1.73,12.63-5.23,13-10.34.42-6.61-6.53-9.31-6.53-9.31s-13.38-33.54-12.45-43c.73-7.42,5.24-34,5.24-34l-14.14-4s-6.43,40.77-2.28,50.82C872.56,264.08,879.3,289,879.3,289Z"/><path class="cls-3" d="M895,208.65S880.9,221,863,204.5c0,0,1.56-25.71,16.09-23.89S897.28,191.24,895,208.65Z"/><path class="cls-9" d="M898.71,64.67s-7.88-7.66-14.12,2.88c0,0-18.1-10.26-23.69,7.56,0,0-9.46-7.22-16.74,3.27,0,0,.43-8.26-31.09-19.23,0,0,20.38-13.43,35.27-11.1,0,0,2.12-10.75,9.29-19.18,0,0,14,.22,21.24,9.4,0,0,15.92-17.29,28.2-14.57C907.07,23.7,892.3,39,898.71,64.67Z"/><rect class="cls-12" x="1050" width="350" height="500"/><path class="cls-2" d="M1289.47,262.65s2.59,13.37,15.54,7.91c5.43-2.29,6.32-12.13,3.28-16.25-3.92-5.33-11-2.94-11-2.94s-31.81-17.09-37.2-25c-4.21-6.15-17.81-29.39-17.81-29.39l-13.4,6s21.29,35.37,30.92,40.4C1268.28,247.87,1289.47,262.65,1289.47,262.65Z"/><path class="cls-2" d="M1249.8,191s-2.82,18.51-27.13,17.35c0,0-15.32-20.7-3-28.64S1240.39,176.18,1249.8,191Z"/><path class="cls-2" d="M1208.42,300.81s-3.17,51.16-9.06,62.44-32.59,41.54-32.59,41.54,15.49,25.3,26.83,27.78c0,0,2.57-17-6.39-25.15,0,0,26.73-31.4,29.16-40.46s10.25-65.83,10.25-65.83Z"/><path class="cls-3" d="M1166.77,404.79s11,24.09,26.83,27.78c0,0,1.26-6.71.21-11.9,0,0-14.44-3.45-21.08-22.76Z"/><path class="cls-4" d="M1219.64,297.15s37.93,29.12,37.89,36.67c-.08,12.72-17.06,50.72-17.06,50.72s22.22,19.68,33.78,18.73c0,0-2.51-17-13.46-22.19,0,0,13.57-42.42,12.88-51.78-.84-11.31-38.28-45.74-40-43.07Z"/><path class="cls-3" d="M1240.47,384.54s17.53,19.84,33.78,18.73c0,0-.76-6.79-3.28-11.44,0,0-14.81.91-26.81-15.61Z"/><path class="cls-4" d="M1270.62,71.49s10.24,13.89,11.7,36.56c0,0,11,11.69,1.46,13.16,0,0,2.2,28.51-40.2,32.89,0,0,0,15.36,5.11,22.67,0,0-16.81,19-40.94,6.58S1221.64,60.53,1270.62,71.49Z"/><path class="cls-5" d="M1248.69,176s-31.43,15.35-45.32,7.31v49.71s28.51,19.74,54.83,6.58c0,0,2.19-47.52-9.51-63.6"/><path class="cls-6" d="M1206.29,43s24.13-37.28,46.06-1.46c0,0,23.39-.73,24.85,16.08s-9.5,32.17-24.85,29.25c0,0,0,21.2-21.93,23.39,0,0,8,17.55-10.24,26.32,0,0,12.43,16.81,0,27.78,0,0,6.58,33.63-15.35,36.55,0,0,.73,37.29-30,13.89,0,0-31.44,13.16-27-23.39,0,0-35.83-14.62-5.85-42.4,0,0-16.82-26.32,7.31-37.29,0,0-2.93-37.28,27-36.55C1176.32,75.15,1173.39,32.75,1206.29,43Z"/><ellipse cx="1273.18" cy="104.03" rx="1.83" ry="4.75"/><path class="cls-7" d="M1278.77,137.25s-4.86,1.14-12.9-2.52"/><path class="cls-8" d="M1179.37,330.13s73,7.28,114.13-13c0,0-.5-18.16-4.5-30.16-3.87-11.62-112,11.8-112,11.8S1177.73,313.7,1179.37,330.13Z"/><path class="cls-5" d="M1203.13,236.58s-31.41,24.91-25.29,73.16c0,0,10.84,10.75,27.27-.33,0,0,16.31,11.74,32.86-3.3,0,0,13.74,7.72,26.14-3.67,0,0,17.48,5.87,26.9-7.73,0,0-6-37.71-33-51.71C1258,243,1227.15,241.54,1203.13,236.58Z"/><path class="cls-8" d="M1258,235s-25.72,13.52-54.53-4.45l-.3,6.16s20.47,21.2,54.83,5.85Z"/><path class="cls-4" d="M1201.9,280.5s-9.81,9.45,1.83,17.34c4.88,3.31,13.61-1.31,15.41-6.1,2.34-6.19-3.51-10.81-3.51-10.81s-3-36,.67-44.79c2.86-6.88,14.94-30.94,14.94-30.94l-12.36-7.95s-18.07,37.12-17,47.94C1202.75,254.68,1201.9,280.5,1201.9,280.5Z"/><path class="cls-3" d="M1240.38,208.21s-17.06,7.71-29.33-13.3c0,0,9-24.13,22.37-18.14S1247.69,192.24,1240.38,208.21Z"/><path class="cls-9" d="M1248.71,56.67s-7.88-7.66-14.12,2.88c0,0-18.1-10.26-23.69,7.56,0,0-9.46-7.22-16.74,3.27,0,0,.43-8.26-31.09-19.23,0,0,20.38-13.43,35.27-11.1,0,0,2.12-10.75,9.29-19.18,0,0,14,.22,21.24,9.4,0,0,15.92-17.29,28.2-14.57C1257.07,15.7,1242.3,31,1248.71,56.67Z"/><rect class="cls-13" x="1400" width="350" height="500"/><path class="cls-2" d="M1632.51,275.28s1.64,13.53,15,9c5.57-1.91,7.14-11.65,4.41-16-3.55-5.59-10.76-3.7-10.76-3.7s-30.54-19.26-35.36-27.49c-3.78-6.43-15.72-30.56-15.72-30.56l-13.79,5.1s18.77,36.77,28,42.45C1612.39,259.07,1632.51,275.28,1632.51,275.28Z"/><path class="cls-3" d="M1597.93,201.05s-4.11,18.27-28.27,15.42c0,0-13.85-21.72-1-28.79S1589.58,185.6,1597.93,201.05Z"/><path class="cls-4" d="M1589.52,312.91s37.15,35.32,42,47.08,10.87,51.66,10.87,51.66,29.34,4.41,38.53-2.69c0,0-11.39-12.92-23.38-11.27,0,0-6.87-40.66-12.25-48.35s-43.84-50.17-43.84-50.17Z"/><path class="cls-3" d="M1642.4,411.65s25.5,7.09,38.53-2.69c0,0-4.34-5.28-9-7.81,0,0-11.93,8.84-31,1.52Z"/><path class="cls-2" d="M1550.67,300.49s-7.62,50.69-14.47,61.41-36.09,38.54-36.09,38.54,13.23,26.57,24.31,30c0,0,4-16.74-4.17-25.61,0,0,29.36-29,32.57-37.77s16-64.69,16-64.69Z"/><path class="cls-3" d="M1500.11,400.44s8.82,25,24.31,30c0,0,1.84-6.58,1.24-11.84,0,0-14.08-4.7-19-24.51Z"/><path class="cls-4" d="M1620.62,79.49s10.24,13.89,11.7,36.56c0,0,11,11.69,1.46,13.16,0,0,2.2,28.51-40.2,32.89,0,0,0,15.36,5.11,22.67,0,0-16.81,19-40.94,6.58S1571.64,68.53,1620.62,79.49Z"/><path class="cls-5" d="M1598.69,184s-31.43,15.35-45.32,7.31v49.71s28.51,19.74,54.83,6.58c0,0,2.19-47.52-9.51-63.6"/><path class="cls-6" d="M1556.29,51s24.13-37.28,46.06-1.46c0,0,23.39-.73,24.85,16.08s-9.5,32.17-24.85,29.25c0,0,0,21.2-21.93,23.39,0,0,8,17.55-10.24,26.32,0,0,12.43,16.81,0,27.78,0,0,6.58,33.63-15.35,36.55,0,0,.73,37.29-30,13.89,0,0-31.44,13.16-27-23.39,0,0-35.83-14.62-5.85-42.4,0,0-16.82-26.32,7.31-37.29,0,0-2.93-37.28,27-36.55C1526.32,83.15,1523.39,40.75,1556.29,51Z"/><ellipse cx="1623.18" cy="112.03" rx="1.83" ry="4.75"/><path class="cls-7" d="M1628.77,145.25s-4.86,1.14-12.9-2.52"/><path class="cls-8" d="M1518.35,335.32s79.55,13.23,126.85-3.6c0,0,1.8-20.72-2.2-32.72-3.88-11.63-124,4.9-124,4.9S1518.22,318.81,1518.35,335.32Z"/><path class="cls-5" d="M1554,244s-37.07,22.26-35.26,70.87c0,0,10.83,11.6,30,1.9,0,0,16.74,13,36.47-.61,0,0,14.33,8.82,29.12-1.52,0,0,18.63,7.28,30.37-5.51,0,0-3.74-45.13-36.74-59.13C1608,250,1579.91,250.9,1554,244Z"/><path class="cls-8" d="M1608,243.25s-25.72,13.27-54.53-4.7l-.3,6.16s20.47,21.2,54.83,5.85Z"/><path class="cls-9" d="M1598.71,64.67s-7.88-7.66-14.12,2.88c0,0-18.1-10.26-23.69,7.56,0,0-9.46-7.22-16.74,3.27,0,0,.43-8.26-31.09-19.23,0,0,20.38-13.43,35.27-11.1,0,0,2.12-10.75,9.29-19.18,0,0,14,.22,21.24,9.4,0,0,15.92-17.29,28.2-14.57C1607.07,23.7,1592.3,39,1598.71,64.67Z"/><path class="cls-4" d="M1514.91,268.67s-12.89,4.42-5.67,16.49c3,5.06,12.88,4.57,16.54,1,4.74-4.62,1.39-11.28,1.39-11.28s12.49-33.89,19.53-40.31c5.5-5,26.63-21.73,26.63-21.73l-7.85-12.43s-32.07,26-35.7,36.25C1526.59,245.63,1514.91,268.67,1514.91,268.67Z"/><path class="cls-3" d="M1580.33,219.42s-18.72-.22-21-24.45c0,0,18.36-18.06,27.94-7S1593.7,208,1580.33,219.42Z"/><rect class="cls-14" x="1750" width="350" height="500"/><path class="cls-4" d="M1961.22,298.2s-1.92,13.49,12.11,12.54c5.89-.4,9.92-9.41,8.4-14.29-2-6.32-9.43-6.36-9.43-6.36s-24.52-26.51-27-35.7c-2-7.19-7.27-33.59-7.27-33.59l-14.63,1.35s8.6,40.38,16.08,48.26C1946,277.33,1961.22,298.2,1961.22,298.2Z"/><path class="cls-3" d="M1947,217.55s-8.69,16.58-31.3,7.57c0,0-7.75-24.56,6.46-28.06S1943,200.47,1947,217.55Z"/><path class="cls-4" d="M1928.7,319s29.74,41.75,32.26,54.22.81,52.79.81,52.79,28,9.92,38.34,4.71c0,0-8.72-14.85-20.8-15.52,0,0,1-41.22-2.8-49.8s-33.46-57.61-33.46-57.61Z"/><path class="cls-3" d="M1961.77,426s23.68,11.83,38.34,4.71c0,0-3.25-6-7.33-9.38,0,0-13.39,6.4-30.71-4.42Z"/><path class="cls-2" d="M1907,303s-4.85,48.7-9,55c-7,10.63-41.93,33.25-41.93,33.25s7.92,28.6,18.14,34.1c0,0,7.16-15.65.79-25.93,0,0,34.49-28.19,39-36.42,5.45-9.94,8.14-58.43,8-58Z"/><path class="cls-3" d="M1856.07,391.25s3.9,26.18,18.14,34.1c0,0,3-6.1,3.47-11.38,0,0-12.92-7.3-14-27.69Z"/><path class="cls-4" d="M1969.62,91.49s10.24,13.89,11.7,36.56c0,0,11,11.69,1.46,13.16,0,0,2.2,28.51-40.2,32.89,0,0,0,15.36,5.11,22.67,0,0-16.81,19-40.94,6.58S1920.64,80.53,1969.62,91.49Z"/><path class="cls-5" d="M1947.69,196s-31.43,15.35-45.32,7.31v49.71s28.51,19.74,54.83,6.58c0,0,2.19-47.52-9.51-63.6"/><path class="cls-6" d="M1905.29,63s24.13-37.28,46.06-1.46c0,0,23.39-.73,24.85,16.08s-9.5,32.17-24.85,29.25c0,0,0,21.2-21.93,23.39,0,0,8,17.55-10.24,26.32,0,0,12.43,16.81,0,27.78,0,0,6.58,33.63-15.35,36.55,0,0,.73,37.29-30,13.89,0,0-31.44,13.16-27-23.39,0,0-35.83-14.62-5.85-42.4,0,0-16.82-26.32,7.31-37.29,0,0-2.93-37.28,27-36.55C1875.32,95.15,1872.39,52.75,1905.29,63Z"/><ellipse cx="1972.18" cy="124.03" rx="1.83" ry="4.75"/><path class="cls-7" d="M1977.77,157.25s-4.86,1.14-12.9-2.52"/><path class="cls-8" d="M1860.83,343.62s78.09,20.11,126.68,7.46c0,0,2.35-15.91,1.51-28.15s-124.81-10.56-124.81-10.56S1862.14,327.16,1860.83,343.62Z"/><path class="cls-5" d="M1904.3,255.75s-38.87,18.95-41.3,67.53c0,0,9.78,12.5,29.75,4.51,0,0,15.55,14.45,36.39,2.57,0,0,13.51,10,29.14,1,0,0,17.93,8.88,30.74-2.84,0,0,2.57-52.48-30.5-66.67C1958.52,261.87,1929.51,264.89,1904.3,255.75Z"/><path class="cls-8" d="M1957,255.25s-25.72,13.27-54.53-4.7l-.3,6.16s20.47,21.2,54.83,5.85Z"/><path class="cls-9" d="M1947.71,76.67s-7.88-7.66-14.12,2.88c0,0-18.1-10.26-23.69,7.56,0,0-9.46-7.22-16.74,3.27,0,0,.43-8.26-31.09-19.23,0,0,20.38-13.43,35.27-11.1,0,0,2.12-10.75,9.29-19.18,0,0,14,.22,21.24,9.4,0,0,15.92-17.29,28.2-14.57C1956.07,35.7,1941.3,51,1947.71,76.67Z"/><path class="cls-4" d="M1880.26,294.83s-11.31,7.61-1.21,17.4c4.23,4.1,13.62,1.08,16.23-3.33,3.38-5.69-1.58-11.26-1.58-11.26s3.3-36,8.43-44c4-6.28,20.1-27.88,20.1-27.88l-10.8-10s-24.24,33.41-25.1,44.25C1885.58,269.55,1880.26,294.83,1880.26,294.83Z"/><path class="cls-3" d="M1930.7,230.32s-18.14,4.64-26.57-18.19c0,0,13.06-22.19,25.18-14S1940.67,215.87,1930.7,230.32Z"/><rect class="cls-15" x="2100" width="350" height="500"/><path class="cls-2" d="M2268.24,297.85s20.58,43.17,17.12,49.87c-5.85,11.31-38.23,37.46-38.23,37.46s10.87,27.61,21.6,32c0,0,5.49-16.33-1.92-25.88,0,0,31.35-31.64,35-40.3,4.39-10.45-13.34-58.12-16.06-56.52Z"/><path class="cls-3" d="M2247.13,385.18s6.62,25.63,21.6,32c0,0,2.4-6.4,2.27-11.69,0,0-13.62-5.91-16.8-26.07Z"/><path class="cls-2" d="M2260,302.78s8.42,50.56,5.22,62.88-22.41,47.8-22.41,47.8,20.79,21.18,32.39,21c0,0-1.32-17.17-11.88-23.07,0,0,19-36.61,19.31-46s-4.82-66.45-4.82-66.45Z"/><path class="cls-3" d="M2275.16,434.5s-.28-6.82-2.47-11.64c0,0-14.85-.12-25.66-17.44l-4.26,8"/><path class="cls-3" d="M2247.13,385.18s6.62,25.63,21.6,32c0,0,2.4-6.4,2.27-11.69,0,0-13.62-5.91-16.8-26.07Z"/><path class="cls-4" d="M2320.62,79.49s10.24,13.89,11.7,36.56c0,0,11,11.69,1.46,13.16,0,0,2.2,28.51-40.2,32.89,0,0,0,15.36,5.11,22.67,0,0-16.81,19-40.94,6.58S2271.64,68.53,2320.62,79.49Z"/><path class="cls-5" d="M2298.69,184s-31.43,15.35-45.32,7.31v49.71s28.51,19.74,54.83,6.58c0,0,2.19-47.52-9.51-63.6"/><path class="cls-6" d="M2256.29,51s24.13-37.28,46.06-1.46c0,0,23.39-.73,24.85,16.08s-9.5,32.17-24.85,29.25c0,0,0,21.2-21.93,23.39,0,0,8,17.55-10.24,26.32,0,0,12.43,16.81,0,27.78,0,0,6.58,33.63-15.35,36.55,0,0,.73,37.29-30,13.89,0,0-31.44,13.16-27.05-23.39,0,0-35.83-14.62-5.85-42.4,0,0-16.82-26.32,7.31-37.29,0,0-2.93-37.28,27.05-36.55C2226.32,83.15,2223.39,40.75,2256.29,51Z"/><ellipse cx="2323.18" cy="112.03" rx="1.83" ry="4.75"/><path class="cls-7" d="M2328.77,145.25s-4.86,1.14-12.9-2.52"/><path class="cls-9" d="M2298.71,64.67s-7.88-7.66-14.12,2.88c0,0-18.1-10.26-23.69,7.56,0,0-9.46-7.22-16.74,3.27,0,0,.43-8.26-31.09-19.23,0,0,20.38-13.43,35.27-11.1,0,0,2.12-10.75,9.29-19.18,0,0,14,.22,21.24,9.4,0,0,15.92-17.29,28.2-14.57C2307.07,23.7,2292.3,39,2298.71,64.67Z"/><path class="cls-4" d="M2260,302.78s8.42,50.56,5.22,62.88-22.41,47.8-22.41,47.8,20.79,21.18,32.39,21c0,0-1.32-17.17-11.88-23.07,0,0,19-36.61,19.31-46s-4.82-66.45-4.82-66.45Z"/><path class="cls-3" d="M2242.77,413.46s16.1,21,32.39,21c0,0-.28-6.82-2.47-11.64,0,0-14.85-.12-25.66-17.44Z"/><path class="cls-8" d="M2216.83,330.62s70.62,19.85,114.65,7c0,0,2.18-15.92,1.47-28.15s-113-10.15-113-10.15S2218.07,314.15,2216.83,330.62Z"/><path class="cls-5" d="M2256.47,242.62s-35.25,19.07-37.61,67.65c0,0,8.81,12.47,26.92,4.42,0,0,14,14.39,32.93,2.45,0,0,12.2,10,26.38.92,0,0,16.2,8.82,27.84-2.94,0,0,2.49-52.48-27.39-66.56C2305.54,248.56,2279.27,251.67,2256.47,242.62Z"/><path class="cls-8" d="M2308,243s-25.72,13.52-54.53-4.45l-.3,6.16s20.47,21.2,54.83,5.85Z"/><path class="cls-4" d="M2279.3,289s-6.62,11.91,6.82,16.05c5.63,1.73,12.63-5.23,13-10.34.42-6.61-6.53-9.31-6.53-9.31s-13.38-33.54-12.45-43c.73-7.42,5.24-34,5.24-34l-14.14-4s-6.43,40.77-2.28,50.82C2272.56,264.08,2279.3,289,2279.3,289Z"/><path class="cls-3" d="M2295,208.65S2280.9,221,2263,204.5c0,0,1.56-25.71,16.09-23.89S2297.28,191.24,2295,208.65Z"/><rect class="cls-16" x="2450" width="350" height="500"/><path class="cls-4" d="M2610.42,299.81s-3.17,51.16-9.06,62.44-32.59,41.54-32.59,41.54,15.49,25.3,26.83,27.78c0,0,2.57-17-6.39-25.15,0,0,26.73-31.4,29.16-40.46s10.25-65.83,10.25-65.83Z"/><path class="cls-3" d="M2568.77,403.79s11,24.09,26.83,27.78c0,0,1.26-6.71.21-11.9,0,0-14.44-3.45-21.08-22.76Z"/><path class="cls-2" d="M2621.64,296.15s37.93,29.12,37.89,36.67c-.08,12.72-17.06,50.72-17.06,50.72s22.22,19.68,33.78,18.73c0,0-2.51-17-13.46-22.19,0,0,13.57-42.42,12.88-51.78-.84-11.31-38.28-45.74-40-43.07Z"/><path class="cls-3" d="M2642.47,383.54s17.53,19.84,33.78,18.73c0,0-.76-6.79-3.28-11.44,0,0-14.81.91-26.81-15.61Z"/><path class="cls-4" d="M2672.62,70.49s10.24,13.89,11.7,36.56c0,0,11,11.69,1.46,13.16,0,0,2.2,28.51-40.2,32.89,0,0,0,15.36,5.11,22.67,0,0-16.81,19-40.94,6.58S2623.64,59.53,2672.62,70.49Z"/><path class="cls-5" d="M2650.69,175s-31.43,15.35-45.32,7.31v49.71s28.51,19.74,54.83,6.58c0,0,2.19-47.52-9.51-63.6"/><path class="cls-6" d="M2608.29,42s24.13-37.28,46.06-1.46c0,0,23.39-.73,24.85,16.08s-9.5,32.17-24.85,29.25c0,0,0,21.2-21.93,23.39,0,0,8,17.55-10.24,26.32,0,0,12.43,16.81,0,27.78,0,0,6.58,33.63-15.35,36.55,0,0,.73,37.29-30,13.89,0,0-31.44,13.16-27.05-23.39,0,0-35.83-14.62-5.85-42.4,0,0-16.82-26.32,7.31-37.29,0,0-2.93-37.28,27.05-36.55C2578.32,74.15,2575.39,31.75,2608.29,42Z"/><ellipse cx="2675.18" cy="103.03" rx="1.83" ry="4.75"/><path class="cls-7" d="M2680.77,136.25s-4.86,1.14-12.9-2.52"/><path class="cls-8" d="M2581.37,329.13s73,7.28,114.13-13c0,0-.5-18.16-4.5-30.16-3.87-11.62-111.95,11.8-111.95,11.8S2579.73,312.7,2581.37,329.13Z"/><path class="cls-5" d="M2605.13,235.58s-31.41,24.91-25.29,73.16c0,0,10.84,10.75,27.27-.33,0,0,16.31,11.74,32.86-3.3,0,0,13.74,7.72,26.14-3.67,0,0,17.48,5.87,26.9-7.73,0,0-6-37.71-33-51.71C2660,242,2629.15,240.54,2605.13,235.58Z"/><path class="cls-8" d="M2660,234s-25.72,13.52-54.53-4.45l-.3,6.16s20.47,21.2,54.83,5.85Z"/><path class="cls-9" d="M2650.71,55.67s-7.88-7.66-14.12,2.88c0,0-18.1-10.26-23.69,7.56,0,0-9.46-7.22-16.74,3.27,0,0,.43-8.26-31.09-19.23,0,0,20.38-13.43,35.27-11.1,0,0,2.12-10.75,9.29-19.18,0,0,14,.22,21.24,9.4,0,0,15.92-17.29,28.2-14.57C2659.07,14.7,2644.3,30,2650.71,55.67Z"/><path class="cls-4" d="M2691.47,261.65s2.59,13.37,15.54,7.91c5.43-2.29,6.32-12.13,3.28-16.25-3.92-5.33-11-2.94-11-2.94s-31.81-17.09-37.2-25c-4.21-6.15-17.81-29.39-17.81-29.39l-13.4,6s21.29,35.37,30.92,40.4C2670.28,246.87,2691.47,261.65,2691.47,261.65Z"/><path class="cls-3" d="M2651.8,190s-2.82,18.51-27.13,17.35c0,0-15.32-20.7-3-28.64S2642.39,175.18,2651.8,190Z"/></svg>
