<svg id="Layer_1" data-name="Layer 1" xmlns="http://www.w3.org/2000/svg" viewBox="0 0 132.5 153"><defs><style>.cls-1{fill:#756561;}.cls-2{fill:#897772;}.cls-3{fill:#6d5a53;}.cls-4{fill:#5b4b47;}</style></defs><title>svamp</title><path class="cls-1" d="M160,123h16a7.6,7.6,0,0,1,7.5,7.5s-3,30.5-3,46.5,3,33.5,3,33.5A7.6,7.6,0,0,1,176,218H160Z" transform="translate(-94 -65)"/><path class="cls-2" d="M160,123H144a7.6,7.6,0,0,0-7.5,7.5s3,30.5,3,46.5-3,33.5-3,33.5A7.6,7.6,0,0,0,144,218h16Z" transform="translate(-94 -65)"/><path class="cls-3" d="M160.5,159c-33.2,0-66.5-9.1-66.5-27.5A66.5,66.5,0,0,1,160.5,65L176,119Z" transform="translate(-94 -65)"/><path class="cls-4" d="M160,159c33.2,0,66.5-9.1,66.5-27.5A66.5,66.5,0,0,0,160,65s9,29.5,9,47S160,159,160,159Z" transform="translate(-94 -65)"/></svg>
