<svg id="sprite" xmlns="http://www.w3.org/2000/svg" viewBox="0 0 2800 500"><defs><style>.cls-1{fill:#e53c3c;}.cls-2{fill:#493a15;}.cls-3{fill:#1b1e30;}.cls-11,.cls-4,.cls-9{fill:#5b4a1b;}.cls-5{fill:#282a42;}.cls-6{fill:#ccc0a2;}.cls-10,.cls-7{fill:none;}.cls-7{stroke:#493a15;}.cls-10,.cls-11,.cls-7,.cls-9{stroke-miterlimit:10;}.cls-8{fill:#473915;}.cls-9{stroke:#2d230b;stroke-width:0.5px;}.cls-10{stroke:#443716;}.cls-11{stroke:#000;}.cls-12{fill:#e2973d;}.cls-13{fill:#e0dc3f;}.cls-14{fill:#54dd40;}.cls-15{fill:#42dbbe;}.cls-16{fill:#4459d8;}.cls-17{fill:#a445d6;}.cls-18{fill:#d346b9;}</style></defs><title>trollwalk</title><rect class="cls-1" width="350" height="500"/><path class="cls-2" d="M98.2,299.78s-42.62,75.88-47.09,81.57l63,36.35s17.23-19.61-11.24-42l28.33-59.3Z"/><path class="cls-3" d="M93,255,66,326s54,41,67,38l39-79Z"/><path class="cls-4" d="M166.6,335.41S211,410.27,213.69,417l63-36.35s-8.37-24.73-42-11.24l-37.2-54.19Z"/><path class="cls-4" d="M135.2,96s-34.29,9.72-46.58,29.18h8.19s-9.21,8.19-10.24,18.42l6.14-2S84.52,150.72,83.5,161l7.17-3.07s-10.75,51.7-2.56,97.77l142.82,32.25s6.14-47.09,0-63.47l4.1,4.09s3.07-8.19-7.17-20.47l7.17,5.11s-7.17-21.5-12.29-26.61S135.2,96,135.2,96Z"/><path class="cls-5" d="M85,239.28s82.93,37.88,148.45,25.6c0,0,6.51,54.12.51,84.12,0,0-34,21-81,16C153,365,80.94,280.24,85,239.28Z"/><polygon class="cls-6" points="120.2 295.15 118.28 306.43 127.46 302.15 130.34 315.19 138.04 306 143.9 316.85 145.48 306.53 152.74 313.53 151.78 301.2 120.2 295.15"/><path class="cls-2" d="M163.21,277.05s40.2-86.74,12-108.08-41.77,17.43-41.77,17.43-10.74,48-9.45,74.84c0,0-28.5,34.93,12.67,43.67C174.77,313,163.21,277.05,163.21,277.05Z"/><path class="cls-4" d="M123.94,41.68s20.48-22.52,71.67-7.16,52.21,48.12,51.19,90.09-9.21,82.93-43,56.31S98.35,89.8,127,54h-5.12S125,45.78,127,44.75Z"/><path class="cls-7" d="M224.78,189.24s-15.86,4-45.55-25.72"/><path class="cls-8" d="M165.52,69.33s-8.46,2.13-7.85,32.41c0,.78,0,1.58.07,2.4,0,0,16.68-3.37,25.58-23.58Z"/><path class="cls-6" d="M199.19,57.55a36.37,36.37,0,0,1,20.48-30.71s-7.17,29.69-5.12,33.78"/><path class="cls-9" d="M221.2,67.28c-2-4.1,5-14.57-13.3-12.29-8.2,1-11.27-7.16-16.39,6.15"/><path class="cls-10" d="M235.06,95.2s1.78-8.88-23.07-11.54"/><ellipse cx="227.52" cy="104.51" rx="2.22" ry="5.77"/><path class="cls-6" d="M227.86,148.67s2-10.23,5.12-11.26c0,0-1,10.24,1,12.29Z"/><path class="cls-11" d="M246.29,149.7c-11.26,0-12.29-1-18.43-3.07s-11.26,0-11.26,5.11"/><rect class="cls-12" x="350" width="350" height="500"/><path class="cls-2" d="M456.77,305.72s-74.86,44.4-81.58,47.1l36.35,62.95s24.72-8.37,11.24-42L477,336.62Z"/><path class="cls-3" d="M474.65,264.34l-58.88,48s26.26,62.5,39,66.41l73.28-48.92Z"/><path class="cls-4" d="M512.41,340.22s23.52,83.79,24.38,91L607,412.39s-1.68-26.05-37.62-21.72l-21.9-62Z"/><path class="cls-4" d="M482.2,108s-34.29,9.72-46.58,29.18h8.19s-9.21,8.19-10.24,18.42l6.14-2s-8.19,9.21-9.21,19.45l7.17-3.07s-10.75,51.7-2.56,97.77l142.82,32.25s6.14-47.09,0-63.47l4.1,4.09s3.07-8.19-7.17-20.47l7.17,5.11s-7.17-21.5-12.29-26.61S482.2,108,482.2,108Z"/><path class="cls-5" d="M432,251.28s82.93,37.88,148.45,25.6c0,0,6.51,54.12.51,84.12,0,0-34,21-81,16C500,377,427.94,292.24,432,251.28Z"/><polygon class="cls-6" points="429.86 282.6 425.08 293 435.06 291.24 434.47 304.57 444.29 297.7 447.14 309.69 451.33 300.13 456.53 308.77 458.8 296.61 429.86 282.6"/><path class="cls-2" d="M476.09,276.24S537.37,202.86,515.65,175s-44.85,6-44.85,6-22.8,43.58-28.51,69.84c0,0-36.56,26.37.94,45.47C478,314,476.09,276.24,476.09,276.24Z"/><path class="cls-4" d="M470.94,53.68s20.48-22.52,71.67-7.16,52.21,48.12,51.19,90.09-9.21,82.93-43,56.31S445.35,101.8,474,66h-5.12S472,57.78,474,56.75Z"/><path class="cls-7" d="M571.78,201.24s-15.86,4-45.55-25.72"/><path class="cls-8" d="M512.52,81.33s-8.46,2.13-7.85,32.41c0,.78,0,1.58.07,2.4,0,0,16.68-3.37,25.58-23.58Z"/><path class="cls-6" d="M546.19,69.55a36.37,36.37,0,0,1,20.48-30.71s-7.17,29.69-5.12,33.78"/><path class="cls-9" d="M568.2,79.28c-2-4.1,5-14.57-13.3-12.29-8.2,1-11.27-7.16-16.39,6.15"/><path class="cls-10" d="M582.06,107.2s1.78-8.88-23.07-11.54"/><ellipse cx="574.52" cy="116.51" rx="2.22" ry="5.77"/><path class="cls-6" d="M574.86,160.67s2-10.23,5.12-11.26c0,0-1,10.24,1,12.29Z"/><path class="cls-11" d="M593.29,161.7c-11.26,0-12.29-1-18.43-3.07s-11.26,0-11.26,5.11"/><rect class="cls-13" x="700" width="350" height="500"/><path class="cls-2" d="M814.77,314.92s-42.63,75.88-47.1,81.57l63,36.35s17.24-19.61-11.24-42l28.33-59.3Z"/><path class="cls-3" d="M809.57,270.14l-27,71s54,41,67,38l39-79Z"/><path class="cls-4" d="M862.31,338.81s1,87,0,94.19H935s5.12-25.6-30.71-30.71l-5.12-65.53Z"/><path class="cls-4" d="M836.2,116s-34.29,9.72-46.58,29.18h8.19s-9.21,8.19-10.24,18.42l6.14-2s-8.19,9.21-9.21,19.45l7.17-3.07s-10.75,51.7-2.56,97.77l142.82,32.25s6.14-47.09,0-63.47l4.1,4.09s3.07-8.19-7.17-20.47l7.17,5.11s-7.17-21.5-12.29-26.61S836.2,116,836.2,116Z"/><path class="cls-5" d="M786,259.28s82.93,37.88,148.45,25.6c0,0-2.49,56.12-8.49,86.12,0,0-34,15-81,10C845,381,781.94,300.24,786,259.28Z"/><polygon class="cls-6" points="810.17 305.12 808.24 316.41 817.43 312.12 820.31 325.16 828.01 315.98 833.87 326.82 835.45 316.5 842.71 323.5 841.75 311.17 810.17 305.12"/><path class="cls-2" d="M853.18,287s40.2-86.74,12-108.08-41.77,17.43-41.77,17.43-10.74,48-9.46,74.84c0,0-28.49,34.94,12.68,43.68C864.74,323,853.18,287,853.18,287Z"/><path class="cls-4" d="M824.94,61.68s20.48-22.52,71.67-7.16,52.21,48.12,51.19,90.09-9.21,82.93-43,56.31S799.35,109.8,828,74h-5.12S826,65.78,828,64.75Z"/><path class="cls-7" d="M925.78,209.24s-15.86,4-45.55-25.72"/><path class="cls-8" d="M866.52,89.33s-8.46,2.13-7.85,32.41c0,.78,0,1.58.07,2.4,0,0,16.68-3.37,25.58-23.58Z"/><path class="cls-6" d="M900.19,77.55a36.37,36.37,0,0,1,20.48-30.71s-7.17,29.69-5.12,33.78"/><path class="cls-9" d="M922.2,87.28c-2-4.1,5-14.57-13.3-12.29-8.2,1-11.27-7.16-16.39,6.15"/><path class="cls-10" d="M936.06,115.2s1.78-8.88-23.07-11.54"/><ellipse cx="928.52" cy="124.51" rx="2.22" ry="5.77"/><path class="cls-6" d="M928.86,168.67s2-10.23,5.12-11.26c0,0-1,10.24,1,12.29Z"/><path class="cls-11" d="M947.29,169.7c-11.26,0-12.29-1-18.43-3.07s-11.26,0-11.26,5.11"/><rect class="cls-14" x="1050" y="1" width="350" height="500"/><path class="cls-2" d="M1205.73,322.53s23.52,83.79,24.38,91l70.22-18.82s-1.68-26-37.62-21.71l-21.91-62Z"/><path class="cls-3" d="M1170.39,294.54l31.11,69.3s67.18-9.2,74.25-20.51l-28.29-83.44Z"/><path class="cls-4" d="M1174.48,323.94s-21.54,84.32-24.38,91l70.21,18.81s11.57-23.39-21.72-37.61l12-64.62Z"/><path class="cls-4" d="M1183.2,106.82s-34.29,9.73-46.58,29.18h8.19s-9.21,8.19-10.24,18.43l6.14-2.05s-8.19,9.22-9.21,19.45l7.17-3.07s-10.75,51.71-2.56,97.78l142.82,32.25s14.07-47.79,0-63.48l4.1,4.1s3.07-8.19-7.17-20.48l7.17,5.12s-7.17-21.5-12.29-26.62S1183.2,106.82,1183.2,106.82Z"/><path class="cls-5" d="M1137,250.28s82.93,37.88,148.45,25.6c0,0-8.49,59.12-47.49,94.12,0,0-37-3-84-8C1154,362,1132.94,291.24,1137,250.28Z"/><polygon class="cls-6" points="1217.4 301.34 1222.29 311.69 1227.36 302.91 1237.19 311.94 1238.23 300 1249.26 305.52 1244.63 296.17 1254.59 297.74 1246.73 288.18 1217.4 301.34"/><path class="cls-2" d="M1242.24,261.85s-16.82-94.12-52.16-95.42-24.22,38.23-24.22,38.23,18.73,45.48,35.18,66.73c0,0-3.3,45,35.44,28.51C1272.34,284.67,1242.24,261.85,1242.24,261.85Z"/><path class="cls-4" d="M1175.94,52.68s20.48-22.52,71.67-7.16,52.21,48.12,51.19,90.09-9.21,82.93-43,56.31S1150.35,100.8,1179,65h-5.12s3.08-8.19,5.12-9.22Z"/><path class="cls-7" d="M1276.78,200.24s-15.86,4-45.55-25.72"/><path class="cls-8" d="M1217.52,80.33s-8.46,2.13-7.85,32.41c0,.78,0,1.58.07,2.4,0,0,16.68-3.37,25.58-23.58Z"/><path class="cls-6" d="M1251.19,68.55a36.37,36.37,0,0,1,20.48-30.71s-7.17,29.69-5.12,33.78"/><path class="cls-9" d="M1273.2,78.28c-2-4.1,5-14.57-13.3-12.29-8.2,1-11.27-7.16-16.39,6.15"/><path class="cls-10" d="M1287.06,106.2s1.78-8.88-23.07-11.54"/><ellipse cx="1279.52" cy="115.51" rx="2.22" ry="5.77"/><path class="cls-6" d="M1279.86,159.67s2.05-10.23,5.12-11.26c0,0-1,10.24,1,12.29Z"/><path class="cls-11" d="M1298.29,160.7c-11.26,0-12.29-1-18.43-3.07s-11.26,0-11.26,5.11"/><rect class="cls-15" x="1400" y="1" width="350" height="500"/><path class="cls-2" d="M1574.07,315.68s44.4,74.85,47.1,81.57l62.95-36.35s-8.36-24.72-41.95-11.24L1605,295.47Z"/><path class="cls-3" d="M1532.69,297.79l48,58.88s62.51-26.26,66.41-39L1629,257Z"/><path class="cls-4" d="M1508.08,300.78s-42.62,75.88-47.09,81.57l63,36.35s17.23-19.61-11.24-42l28.33-59.3Z"/><path class="cls-4" d="M1537.2,99.82s-34.29,9.73-46.58,29.18h8.19s-9.21,8.19-10.24,18.43l6.14-2.05s-8.19,9.22-9.21,19.45l7.17-3.07s-10.75,51.71-2.56,97.78L1633,273s14-29-.07-44.69l4.1,4.1s3.07-8.19-7.17-20.48l7.17,5.12s-7.17-21.5-12.29-26.62S1537.2,99.82,1537.2,99.82Z"/><path class="cls-5" d="M1491,243.28s82.44,33,148,20.72c0,0-36,61-75,96,0,0-46-12-84-30C1480,330,1486.94,284.24,1491,243.28Z"/><polygon class="cls-6" points="1571.23 287.06 1576.13 297.4 1581.19 288.63 1591.03 297.65 1592.07 285.71 1603.09 291.24 1598.47 281.88 1608.43 283.45 1600.57 273.9 1571.23 287.06"/><path class="cls-2" d="M1596.08,247.56s-16.82-94.11-52.16-95.42-24.22,38.24-24.22,38.24,18.73,45.48,35.18,66.73c0,0-3.3,45,35.44,28.5C1626.18,270.38,1596.08,247.56,1596.08,247.56Z"/><path class="cls-4" d="M1529.94,45.68s20.48-22.52,71.67-7.16,52.21,48.12,51.19,90.09-9.21,82.93-43,56.31S1504.35,93.8,1533,58h-5.12s3.08-8.19,5.12-9.22Z"/><path class="cls-7" d="M1630.78,193.24s-15.86,4-45.55-25.72"/><path class="cls-8" d="M1571.52,73.33s-8.46,2.13-7.85,32.41c0,.78,0,1.58.07,2.4,0,0,16.68-3.37,25.58-23.58Z"/><path class="cls-6" d="M1605.19,61.55a36.37,36.37,0,0,1,20.48-30.71s-7.17,29.69-5.12,33.78"/><path class="cls-9" d="M1627.2,71.28c-2-4.1,5-14.57-13.3-12.29-8.2,1-11.27-7.16-16.39,6.15"/><path class="cls-10" d="M1641.06,99.2s1.78-8.88-23.07-11.54"/><ellipse cx="1633.52" cy="108.51" rx="2.22" ry="5.77"/><path class="cls-6" d="M1633.86,152.67s2.05-10.23,5.12-11.26c0,0-1,10.24,1,12.29Z"/><path class="cls-11" d="M1652.29,153.7c-11.26,0-12.29-1-18.43-3.07s-11.26,0-11.26,5.11"/><rect class="cls-16" x="1750" width="350" height="500"/><path class="cls-2" d="M1908.21,336.18s23.51,83.79,24.38,91l70.21-18.81s-1.68-26.05-37.62-21.72l-21.9-62Z"/><path class="cls-3" d="M1872.86,308.19l31.12,69.3s67.17-9.19,74.24-20.51L1974,283Z"/><path class="cls-4" d="M1856.1,301.62s-60.81,62.26-66.6,66.6l51.4,51.41s21.72-14.48,0-43.44l42.71-49.95Z"/><path class="cls-4" d="M1889.2,105.82s-34.29,9.73-46.58,29.18h8.19s-9.21,8.19-10.24,18.43l6.14-2.05s-8.19,9.22-9.21,19.45l7.17-3.07s-10.75,51.71-2.56,97.78L1981,279s13-29,3.93-44.69l4.1,4.1s3.07-8.19-7.17-20.48l7.17,5.12s-7.17-21.5-12.29-26.62S1889.2,105.82,1889.2,105.82Z"/><path class="cls-5" d="M1841,245.28s79.44,34,145,21.72c0,0-25,70-73,101,0,0-61-21-99-39C1811,325.2,1831.36,279.12,1841,245.28Z"/><polygon class="cls-6" points="1857.17 292.12 1855.24 303.41 1864.43 299.12 1867.31 312.16 1875.01 302.98 1880.87 313.82 1882.45 303.5 1889.71 310.5 1888.75 298.17 1857.17 292.12"/><path class="cls-2" d="M1900.18,274s40.2-86.74,12-108.08-41.77,17.43-41.77,17.43-10.74,48-9.46,74.84c0,0-28.49,34.94,12.68,43.68C1911.74,310,1900.18,274,1900.18,274Z"/><path class="cls-4" d="M1881.94,51.68s20.48-22.52,71.67-7.16,52.21,48.12,51.19,90.09-9.21,82.93-43,56.31S1856.35,99.8,1885,64h-5.12s3.08-8.19,5.12-9.22Z"/><path class="cls-7" d="M1982.78,199.24s-15.86,4-45.55-25.72"/><path class="cls-8" d="M1923.52,79.33s-8.46,2.13-7.85,32.41c0,.78,0,1.58.07,2.4,0,0,16.68-3.37,25.58-23.58Z"/><path class="cls-6" d="M1957.19,67.55a36.37,36.37,0,0,1,20.48-30.71s-7.17,29.69-5.12,33.78"/><path class="cls-9" d="M1979.2,77.28c-2-4.1,5-14.57-13.3-12.29-8.2,1-11.27-7.16-16.39,6.15"/><path class="cls-10" d="M1993.06,105.2s1.78-8.88-23.07-11.54"/><ellipse cx="1985.52" cy="114.51" rx="2.22" ry="5.77"/><path class="cls-6" d="M1985.86,158.67s2.05-10.23,5.12-11.26c0,0-1,10.24,1,12.29Z"/><path class="cls-11" d="M2004.29,159.7c-11.26,0-12.29-1-18.43-3.07s-11.26,0-11.26,5.11"/><rect class="cls-17" x="2100" width="350" height="500"/><path class="cls-2" d="M2259.11,336.81s1,87,0,94.19h72.69s5.12-25.6-30.72-30.71L2296,334.76Z"/><path class="cls-3" d="M2232.21,300.63l12.12,75s67.27,8.5,77-.6L2332,282Z"/><path class="cls-4" d="M2215.17,314.57s-42.63,75.88-47.1,81.57L2231,432.49s17.23-19.61-11.24-42l28.33-59.3Z"/><path class="cls-4" d="M2242.2,113.82s-34.29,9.73-46.58,29.18h8.19s-9.21,8.19-10.24,18.43l6.14-2.05s-8.19,9.22-9.21,19.45l7.17-3.07s-10.75,51.71-2.56,97.78L2334,287s13-29,3.93-44.69l4.1,4.1s3.07-8.19-7.17-20.48l7.17,5.12s-7.17-21.5-12.29-26.62S2242.2,113.82,2242.2,113.82Z"/><path class="cls-5" d="M2192,249s81.48,38.29,147,26c0,0-25,70-73,101,0,0-48-15-86-33C2177,339.2,2182.32,282.83,2192,249Z"/><polygon class="cls-6" points="2169.47 272.95 2162.16 281.76 2172.26 282.64 2168.24 295.37 2179.5 291.27 2179.15 303.6 2185.67 295.44 2188.46 305.14 2193.8 293.98 2169.47 272.95"/><path class="cls-2" d="M2215.77,278.78s78.18-55,64.43-87.6-44.89-5.79-44.89-5.79-33.3,36.19-45.61,60.09c0,0-42.14,16-10.85,44.16C2207.8,315.7,2215.77,278.78,2215.77,278.78Z"/><path class="cls-4" d="M2234.94,59.68s20.48-22.52,71.67-7.16,52.21,48.12,51.19,90.09-9.21,82.93-43,56.31S2209.35,107.8,2238,72h-5.12s3.08-8.19,5.12-9.22Z"/><path class="cls-7" d="M2335.78,207.24s-15.86,4-45.55-25.72"/><path class="cls-8" d="M2276.52,87.33s-8.46,2.13-7.85,32.41c0,.78,0,1.58.07,2.4,0,0,16.68-3.37,25.58-23.58Z"/><path class="cls-6" d="M2310.19,75.55a36.37,36.37,0,0,1,20.48-30.71s-7.17,29.69-5.12,33.78"/><path class="cls-9" d="M2332.2,85.28c-2-4.1,5-14.57-13.3-12.29-8.2,1-11.27-7.16-16.39,6.15"/><path class="cls-10" d="M2346.06,113.2s1.78-8.88-23.07-11.54"/><ellipse cx="2338.52" cy="122.51" rx="2.22" ry="5.77"/><path class="cls-6" d="M2338.86,166.67s2-10.23,5.12-11.26c0,0-1,10.24,1,12.29Z"/><path class="cls-11" d="M2357.29,167.7c-11.26,0-12.29-1-18.43-3.07s-11.26,0-11.26,5.11"/><rect class="cls-18" x="2450" y="1" width="350" height="500"/><path class="cls-2" d="M2605.8,326.44s23.51,83.79,24.37,91l70.22-18.81s-1.68-26.05-37.62-21.72l-21.9-62Z"/><path class="cls-3" d="M2570.45,298.45l31.12,69.3s67.17-9.19,74.24-20.51L2662,254.63Z"/><path class="cls-4" d="M2566.66,321.75s-21.53,84.32-24.37,91l70.21,18.82s11.57-23.4-21.72-37.62l12-64.62Z"/><path class="cls-4" d="M2592.2,103.82s-34.29,9.73-46.58,29.18h8.19s-9.21,8.19-10.24,18.43l6.14-2.05s-8.19,9.22-9.21,19.45l7.17-3.07s-10.75,51.71-2.56,97.78L2684,277s13-29,3.93-44.69l4.1,4.1s3.07-8.19-7.17-20.48l7.17,5.12s-7.17-21.5-12.29-26.62S2592.2,103.82,2592.2,103.82Z"/><path class="cls-5" d="M2542,239s81.48,38.29,147,26c0,0-25,70-73,101,0,0-39-8-77-26C2536,336.2,2532.32,272.83,2542,239Z"/><polygon class="cls-6" points="2543.86 278.6 2539.08 289 2549.06 287.24 2548.47 300.57 2558.29 293.7 2561.14 305.69 2565.33 296.13 2570.53 304.77 2572.8 292.61 2543.86 278.6"/><path class="cls-2" d="M2590.09,272.24s61.28-73.38,39.56-101.29-44.85,6-44.85,6-22.8,43.58-28.51,69.84c0,0-36.56,26.37.94,45.47C2592,310,2590.09,272.24,2590.09,272.24Z"/><path class="cls-4" d="M2584.94,49.68s20.48-22.52,71.67-7.16,52.21,48.12,51.19,90.09-9.21,82.93-43,56.31S2559.35,97.8,2588,62h-5.12s3.08-8.19,5.12-9.22Z"/><path class="cls-7" d="M2685.78,197.24s-15.86,4-45.55-25.72"/><path class="cls-8" d="M2626.52,77.33s-8.46,2.13-7.85,32.41c0,.78,0,1.58.07,2.4,0,0,16.68-3.37,25.58-23.58Z"/><path class="cls-6" d="M2660.19,65.55a36.37,36.37,0,0,1,20.48-30.71s-7.17,29.69-5.12,33.78"/><path class="cls-9" d="M2682.2,75.28c-2-4.1,5-14.57-13.3-12.29-8.2,1-11.27-7.16-16.39,6.15"/><path class="cls-10" d="M2696.06,103.2s1.78-8.88-23.07-11.54"/><ellipse cx="2688.52" cy="112.51" rx="2.22" ry="5.77"/><path class="cls-6" d="M2688.86,156.67s2-10.23,5.12-11.26c0,0-1,10.24,1,12.29Z"/><path class="cls-11" d="M2707.29,157.7c-11.26,0-12.29-1-18.43-3.07s-11.26,0-11.26,5.11"/></svg>
