<svg xmlns="http://www.w3.org/2000/svg" viewBox="0 0 350 500"><defs><style>.cls-1{fill:#d346b9;}.cls-2{fill:#493a15;}.cls-3{fill:#1b1e30;}.cls-11,.cls-4,.cls-9{fill:#5b4a1b;}.cls-5{fill:#282a42;}.cls-6{fill:#ccc0a2;}.cls-10,.cls-7{fill:none;}.cls-7{stroke:#493a15;}.cls-10,.cls-11,.cls-7,.cls-9{stroke-miterlimit:10;}.cls-8{fill:#473915;}.cls-9{stroke:#2d230b;stroke-width:0.5px;}.cls-10{stroke:#443716;}.cls-11{stroke:#000;}</style></defs><title>trollwalk</title><g id="baggrund"><rect class="cls-1" width="350" height="500"/></g><g id="Layer_10" data-name="Layer 10"><path class="cls-2" d="M155.8,325.44s23.51,83.79,24.37,91l70.22-18.81s-1.68-26.05-37.62-21.72l-21.9-62Z"/><path class="cls-3" d="M120.45,297.45l31.12,69.3s67.17-9.19,74.24-20.51L212,253.63Z"/><path class="cls-4" d="M116.66,320.75s-21.53,84.32-24.37,91l70.21,18.82s11.57-23.4-21.72-37.62l12-64.62Z"/><path class="cls-4" d="M142.2,102.82S107.91,112.55,95.62,132h8.19s-9.21,8.19-10.24,18.43l6.14-2.05s-8.19,9.22-9.21,19.45l7.17-3.07s-10.75,51.71-2.56,97.78L234,276s13-29,3.93-44.69l4.1,4.1s3.07-8.19-7.17-20.48l7.17,5.12s-7.17-21.5-12.29-26.62S142.2,102.82,142.2,102.82Z"/><path class="cls-5" d="M92,238s81.48,38.29,147,26c0,0-25,70-73,101,0,0-39-8-77-26C86,335.2,82.32,271.83,92,238Z"/><polygon class="cls-6" points="93.86 277.6 89.08 288 99.06 286.24 98.47 299.57 108.29 292.7 111.14 304.69 115.33 295.13 120.53 303.77 122.8 291.61 93.86 277.6"/><path class="cls-2" d="M140.09,271.24S201.37,197.86,179.65,170s-44.85,6-44.85,6-22.8,43.58-28.51,69.84c0,0-36.56,26.37.94,45.47C142,309,140.09,271.24,140.09,271.24Z"/><path class="cls-4" d="M134.94,48.68s20.48-22.52,71.67-7.16,52.21,48.12,51.19,90.09-9.21,82.93-43,56.31S109.35,96.8,138,61h-5.12S136,52.78,138,51.75Z"/><path class="cls-7" d="M235.78,196.24s-15.86,4-45.55-25.72"/><path class="cls-8" d="M176.52,76.33s-8.46,2.13-7.85,32.41c0,.78,0,1.58.07,2.4,0,0,16.68-3.37,25.58-23.58Z"/><path class="cls-6" d="M210.19,64.55a36.37,36.37,0,0,1,20.48-30.71s-7.17,29.69-5.12,33.78"/><path class="cls-9" d="M232.2,74.28c-2-4.1,5-14.57-13.3-12.29-8.2,1-11.27-7.16-16.39,6.15"/><path class="cls-10" d="M246.06,102.2s1.78-8.88-23.07-11.54"/><ellipse cx="238.52" cy="111.51" rx="2.22" ry="5.77"/><path class="cls-6" d="M238.86,155.67s2-10.23,5.12-11.26c0,0-1,10.24,1,12.29Z"/><path class="cls-11" d="M257.29,156.7c-11.26,0-12.29-1-18.43-3.07s-11.26,0-11.26,5.11"/></g></svg>
