<svg id="sprite" xmlns="http://www.w3.org/2000/svg" viewBox="0 0 2800 1000"><defs><style>.cls-1,.cls-10,.cls-14,.cls-7{fill:none;}.cls-2{fill:#493a15;}.cls-3{fill:#1b1e30;}.cls-11,.cls-12,.cls-13,.cls-4,.cls-9{fill:#5b4a1b;}.cls-5{fill:#282a42;}.cls-6{fill:#ccc0a2;}.cls-7{stroke:#493a15;}.cls-10,.cls-11,.cls-12,.cls-13,.cls-14,.cls-7,.cls-9{stroke-miterlimit:10;}.cls-8{fill:#473915;}.cls-13,.cls-9{stroke:#2d230b;}.cls-9{stroke-width:0.5px;}.cls-10{stroke:#443716;}.cls-11{stroke:#000;}.cls-12{stroke:#352a0f;}.cls-14{stroke:#382c11;}</style></defs><title>trold_sprite</title><rect class="cls-1" width="350" height="500"/><path class="cls-2" d="M98.2,299.8s-42.6,75.9-47.1,81.6l63,36.3s17.2-19.6-11.3-42l28.3-59.3Z"/><path class="cls-3" d="M93,255,66,326s54,41,67,38l39-79Z"/><path class="cls-4" d="M166.6,335.4S211,410.3,213.7,417l62.9-36.4s-8.3-24.7-41.9-11.2l-37.2-54.2Z"/><path class="cls-4" d="M135.2,95.9s-34.3,9.8-46.6,29.2h8.2s-9.2,8.2-10.2,18.5l6.1-2.1s-8.2,9.2-9.2,19.5l7.2-3.1s-10.8,51.7-2.6,97.8l142.8,32.2s6.2-47.1,0-63.5l4.1,4.1s3.1-8.2-7.1-20.4l7.1,5.1s-7.1-21.5-12.3-26.6Z"/><path class="cls-5" d="M85,239.3s83,37.9,148.5,25.6c0,0,6.5,54.1.5,84.1,0,0-34,21-81,16C153,365,80.9,280.2,85,239.3Z"/><polygon class="cls-6" points="120.2 295.2 118.3 306.4 127.5 302.2 130.3 315.2 138 306 143.9 316.9 145.5 306.5 152.7 313.5 151.8 301.2 120.2 295.2"/><path class="cls-2" d="M163.2,277s40.2-86.7,12-108-41.8,17.4-41.8,17.4-10.7,48-9.4,74.8c0,0-28.5,35,12.7,43.7C174.8,313,163.2,277,163.2,277Z"/><path class="cls-4" d="M123.9,41.7s20.5-22.5,71.7-7.2,52.2,48.1,51.2,90.1-9.2,82.9-43,56.3S98.3,89.8,127,54h-5.1s3.1-8.2,5.1-9.2Z"/><path class="cls-7" d="M224.8,189.2s-15.9,4-45.6-25.7"/><path class="cls-8" d="M165.5,69.3s-8.4,2.2-7.8,32.4v2.4s16.7-3.3,25.6-23.5Z"/><path class="cls-6" d="M199.2,57.6a36.5,36.5,0,0,1,20.5-30.8s-7.2,29.7-5.2,33.8"/><path class="cls-9" d="M221.2,67.3c-2-4.1,5-14.6-13.3-12.3-8.2,1-11.3-7.2-16.4,6.1"/><path class="cls-10" d="M235.1,95.2s1.7-8.9-23.1-11.5"/><ellipse cx="227.5" cy="104.5" rx="2.2" ry="5.8"/><path class="cls-6" d="M227.9,148.7s2-10.3,5.1-11.3c0,0-1,10.2,1,12.3Z"/><path class="cls-11" d="M246.3,149.7c-11.3,0-12.3-1-18.4-3.1s-11.3,0-11.3,5.1"/><rect class="cls-1" x="350" width="350" height="500"/><path class="cls-2" d="M456.8,305.7s-74.9,44.4-81.6,47.1l36.3,63s24.8-8.4,11.3-42L477,336.6Z"/><path class="cls-3" d="M474.7,264.3l-58.9,48s26.2,62.5,39,66.4l73.3-48.9Z"/><path class="cls-4" d="M512.4,340.2s23.5,83.8,24.4,91L607,412.4s-1.7-26.1-37.6-21.7l-21.9-62Z"/><path class="cls-4" d="M482.2,107.9s-34.3,9.8-46.6,29.2h8.2s-9.2,8.2-10.2,18.5l6.1-2.1s-8.2,9.2-9.2,19.5l7.2-3.1s-10.8,51.7-2.6,97.8l142.8,32.2s6.2-47.1,0-63.5l4.1,4.1s3.1-8.2-7.1-20.4l7.1,5.1s-7.1-21.5-12.3-26.6Z"/><path class="cls-5" d="M432,251.3s83,37.9,148.5,25.6c0,0,6.5,54.1.5,84.1,0,0-34,21-81,16C500,377,427.9,292.2,432,251.3Z"/><polygon class="cls-6" points="429.9 282.6 425.1 293 435.1 291.2 434.5 304.6 444.3 297.7 447.1 309.7 451.3 300.1 456.5 308.8 458.8 296.6 429.9 282.6"/><path class="cls-2" d="M476.1,276.2s61.3-73.3,39.6-101.2-44.9,6-44.9,6-22.8,43.6-28.5,69.8c0,0-36.6,26.4.9,45.5C478,314,476.1,276.2,476.1,276.2Z"/><path class="cls-4" d="M470.9,53.7s20.5-22.5,71.7-7.2,52.2,48.1,51.2,90.1-9.2,82.9-43,56.3S445.3,101.8,474,66h-5.1s3.1-8.2,5.1-9.2Z"/><path class="cls-7" d="M571.8,201.2s-15.9,4-45.6-25.7"/><path class="cls-8" d="M512.5,81.3s-8.4,2.2-7.8,32.4v2.4s16.7-3.3,25.6-23.5Z"/><path class="cls-6" d="M546.2,69.6a36.5,36.5,0,0,1,20.5-30.8s-7.2,29.7-5.2,33.8"/><path class="cls-9" d="M568.2,79.3c-2-4.1,5-14.6-13.3-12.3-8.2,1-11.3-7.2-16.4,6.1"/><path class="cls-10" d="M582.1,107.2s1.7-8.9-23.1-11.5"/><ellipse cx="574.5" cy="116.5" rx="2.2" ry="5.8"/><path class="cls-6" d="M574.9,160.7s2-10.3,5.1-11.3c0,0-1,10.2,1,12.3Z"/><path class="cls-11" d="M593.3,161.7c-11.3,0-12.3-1-18.4-3.1s-11.3,0-11.3,5.1"/><rect class="cls-1" x="700" width="350" height="500"/><path class="cls-2" d="M814.8,314.9s-42.7,75.9-47.1,81.6l62.9,36.3s17.3-19.6-11.2-41.9l28.3-59.3Z"/><path class="cls-3" d="M809.6,270.1l-27,71s54,41,67,38l39-79Z"/><path class="cls-4" d="M862.3,338.8s1,87,0,94.2H935s5.1-25.6-30.7-30.7l-5.1-65.5Z"/><path class="cls-4" d="M836.2,115.9s-34.3,9.8-46.6,29.2h8.2s-9.2,8.2-10.2,18.5l6.1-2.1s-8.2,9.2-9.2,19.5l7.2-3.1s-10.8,51.7-2.6,97.8l142.8,32.2s6.2-47.1,0-63.5l4.1,4.1s3.1-8.2-7.1-20.4l7.1,5.1s-7.1-21.5-12.3-26.6Z"/><path class="cls-5" d="M786,259.3s83,37.9,148.5,25.6c0,0-2.5,56.1-8.5,86.1,0,0-34,15-81,10C845,381,781.9,300.2,786,259.3Z"/><polygon class="cls-6" points="810.2 305.1 808.2 316.4 817.4 312.1 820.3 325.2 828 316 833.9 326.8 835.4 316.5 842.7 323.5 841.7 311.2 810.2 305.1"/><path class="cls-2" d="M853.2,287s40.2-86.7,12-108.1-41.8,17.5-41.8,17.5-10.7,48-9.4,74.8c0,0-28.5,34.9,12.6,43.7C864.7,323,853.2,287,853.2,287Z"/><path class="cls-4" d="M824.9,61.7s20.5-22.5,71.7-7.2,52.2,48.1,51.2,90.1-9.2,82.9-43,56.3S799.3,109.8,828,74h-5.1s3.1-8.2,5.1-9.2Z"/><path class="cls-7" d="M925.8,209.2s-15.9,4-45.6-25.7"/><path class="cls-8" d="M866.5,89.3s-8.4,2.2-7.8,32.4v2.4s16.7-3.3,25.6-23.5Z"/><path class="cls-6" d="M900.2,77.6a36.5,36.5,0,0,1,20.5-30.8s-7.2,29.7-5.2,33.8"/><path class="cls-9" d="M922.2,87.3c-2-4.1,5-14.6-13.3-12.3-8.2,1-11.3-7.2-16.4,6.1"/><path class="cls-10" d="M936.1,115.2s1.7-8.9-23.1-11.5"/><ellipse cx="928.5" cy="124.5" rx="2.2" ry="5.8"/><path class="cls-6" d="M928.9,168.7s2-10.3,5.1-11.3c0,0-1,10.2,1,12.3Z"/><path class="cls-11" d="M947.3,169.7c-11.3,0-12.3-1-18.4-3.1s-11.3,0-11.3,5.1"/><rect class="cls-1" x="1050" y="1" width="350" height="500"/><path class="cls-2" d="M1205.7,322.5s23.5,83.8,24.4,91l70.2-18.8s-1.7-26.1-37.6-21.7l-21.9-62Z"/><path class="cls-3" d="M1170.4,294.5l31.1,69.3s67.2-9.2,74.2-20.5l-28.2-83.4Z"/><path class="cls-4" d="M1174.5,323.9s-21.6,84.4-24.4,91l70.2,18.8s11.6-23.4-21.7-37.6l12-64.6Z"/><path class="cls-4" d="M1183.2,106.8s-34.3,9.7-46.6,29.2h8.2s-9.2,8.2-10.2,18.4l6.1-2s-8.2,9.2-9.2,19.4l7.2-3s-10.8,51.7-2.6,97.7l142.8,32.3s14.1-47.8,0-63.5l4.1,4.1s3.1-8.2-7.1-20.5l7.1,5.1s-7.1-21.5-12.3-26.6S1183.2,106.8,1183.2,106.8Z"/><path class="cls-5" d="M1137,250.3s83,37.9,148.5,25.6c0,0-8.5,59.1-47.5,94.1,0,0-37-3-84-8C1154,362,1132.9,291.2,1137,250.3Z"/><polygon class="cls-6" points="1217.4 301.3 1222.3 311.7 1227.4 302.9 1237.2 311.9 1238.2 300 1249.3 305.5 1244.6 296.2 1254.6 297.7 1246.7 288.2 1217.4 301.3"/><path class="cls-2" d="M1242.2,261.8s-16.8-94.1-52.1-95.4-24.2,38.3-24.2,38.3,18.7,45.4,35.1,66.7c0,0-3.3,45,35.5,28.5C1272.3,284.7,1242.2,261.8,1242.2,261.8Z"/><path class="cls-4" d="M1175.9,52.7s20.5-22.5,71.7-7.2,52.2,48.1,51.2,90.1-9.2,82.9-43,56.3S1150.3,100.8,1179,65h-5.1s3.1-8.2,5.1-9.2Z"/><path class="cls-7" d="M1276.8,200.2s-15.9,4-45.6-25.7"/><path class="cls-8" d="M1217.5,80.3s-8.4,2.2-7.8,32.4v2.4s16.7-3.3,25.6-23.5Z"/><path class="cls-6" d="M1251.2,68.6a36.5,36.5,0,0,1,20.5-30.8s-7.2,29.7-5.2,33.8"/><path class="cls-9" d="M1273.2,78.3c-2-4.1,5-14.6-13.3-12.3-8.2,1-11.3-7.2-16.4,6.1"/><path class="cls-10" d="M1287.1,106.2s1.7-8.9-23.1-11.5"/><ellipse cx="1279.5" cy="115.5" rx="2.2" ry="5.8"/><path class="cls-6" d="M1279.9,159.7s2-10.3,5.1-11.3c0,0-1,10.2,1,12.3Z"/><path class="cls-11" d="M1298.3,160.7c-11.3,0-12.3-1-18.4-3.1s-11.3,0-11.3,5.1"/><rect class="cls-1" x="1400" y="1" width="350" height="500"/><path class="cls-2" d="M1574.1,315.7s44.4,74.8,47.1,81.5l62.9-36.3s-8.3-24.7-41.9-11.2L1605,295.5Z"/><path class="cls-3" d="M1532.7,297.8l48,58.9s62.5-26.3,66.4-39.1L1629,257Z"/><path class="cls-4" d="M1508.1,300.8s-42.6,75.9-47.1,81.6l62.9,36.3s17.3-19.6-11.2-42l28.3-59.3Z"/><path class="cls-4" d="M1537.2,99.8s-34.3,9.7-46.6,29.2h8.2s-9.2,8.2-10.2,18.4l6.1-2s-8.2,9.2-9.2,19.4l7.2-3s-10.8,51.7-2.6,97.7L1633,273s14-29-.1-44.7l4.1,4.1s3.1-8.2-7.1-20.5l7.1,5.1s-7.1-21.5-12.3-26.6S1537.2,99.8,1537.2,99.8Z"/><path class="cls-5" d="M1491,243.3s82.5,33,148,20.7c0,0-36,61-75,96,0,0-46-12-84-30C1480,330,1486.9,284.2,1491,243.3Z"/><polygon class="cls-6" points="1571.2 287.1 1576.1 297.4 1581.2 288.6 1591 297.6 1592.1 285.7 1603.1 291.2 1598.5 281.9 1608.4 283.4 1600.6 273.9 1571.2 287.1"/><path class="cls-2" d="M1596.1,247.6s-16.8-94.2-52.2-95.5-24.2,38.3-24.2,38.3,18.7,45.5,35.2,66.7c0,0-3.3,45,35.4,28.5C1626.2,270.4,1596.1,247.6,1596.1,247.6Z"/><path class="cls-4" d="M1529.9,45.7s20.5-22.5,71.7-7.2,52.2,48.1,51.2,90.1-9.2,82.9-43,56.3S1504.3,93.8,1533,58h-5.1s3.1-8.2,5.1-9.2Z"/><path class="cls-7" d="M1630.8,193.2s-15.9,4-45.6-25.7"/><path class="cls-8" d="M1571.5,73.3s-8.4,2.2-7.8,32.4v2.4s16.7-3.3,25.6-23.5Z"/><path class="cls-6" d="M1605.2,61.6a36.5,36.5,0,0,1,20.5-30.8s-7.2,29.7-5.2,33.8"/><path class="cls-9" d="M1627.2,71.3c-2-4.1,5-14.6-13.3-12.3-8.2,1-11.3-7.2-16.4,6.1"/><path class="cls-10" d="M1641.1,99.2s1.7-8.9-23.1-11.5"/><ellipse cx="1633.5" cy="108.5" rx="2.2" ry="5.8"/><path class="cls-6" d="M1633.9,152.7s2-10.3,5.1-11.3c0,0-1,10.2,1,12.3Z"/><path class="cls-11" d="M1652.3,153.7c-11.3,0-12.3-1-18.4-3.1s-11.3,0-11.3,5.1"/><rect class="cls-1" x="1750" width="350" height="500"/><path class="cls-2" d="M1908.2,336.2s23.5,83.8,24.4,91l70.2-18.9s-1.7-26-37.6-21.7l-21.9-61.9Z"/><path class="cls-3" d="M1872.9,308.2l31.1,69.3s67.2-9.2,74.2-20.5l-4.2-74Z"/><path class="cls-4" d="M1856.1,301.6s-60.8,62.3-66.6,66.6l51.4,51.4s21.7-14.5,0-43.4l42.7-50Z"/><path class="cls-4" d="M1889.2,105.8s-34.3,9.7-46.6,29.2h8.2s-9.2,8.2-10.2,18.4l6.1-2s-8.2,9.2-9.2,19.4l7.2-3s-10.8,51.7-2.6,97.7L1981,279s13-29,3.9-44.7l4.1,4.1s3.1-8.2-7.1-20.5l7.1,5.1s-7.1-21.5-12.3-26.6S1889.2,105.8,1889.2,105.8Z"/><path class="cls-5" d="M1841,245.3s79.5,34,145,21.7c0,0-25,70-73,101,0,0-61-21-99-39C1811,325.2,1831.4,279.1,1841,245.3Z"/><polygon class="cls-6" points="1857.2 292.1 1855.2 303.4 1864.4 299.1 1867.3 312.2 1875 303 1880.9 313.8 1882.4 303.5 1889.7 310.5 1888.7 298.2 1857.2 292.1"/><path class="cls-2" d="M1900.2,274s40.2-86.7,12-108.1-41.8,17.5-41.8,17.5-10.7,48-9.4,74.8c0,0-28.5,34.9,12.6,43.7C1911.7,310,1900.2,274,1900.2,274Z"/><path class="cls-4" d="M1881.9,51.7s20.5-22.5,71.7-7.2,52.2,48.1,51.2,90.1-9.2,82.9-43,56.3S1856.3,99.8,1885,64h-5.1s3.1-8.2,5.1-9.2Z"/><path class="cls-7" d="M1982.8,199.2s-15.9,4-45.6-25.7"/><path class="cls-8" d="M1923.5,79.3s-8.4,2.2-7.8,32.4v2.4s16.7-3.3,25.6-23.5Z"/><path class="cls-6" d="M1957.2,67.6a36.5,36.5,0,0,1,20.5-30.8s-7.2,29.7-5.2,33.8"/><path class="cls-9" d="M1979.2,77.3c-2-4.1,5-14.6-13.3-12.3-8.2,1-11.3-7.2-16.4,6.1"/><path class="cls-10" d="M1993.1,105.2s1.7-8.9-23.1-11.5"/><ellipse cx="1985.5" cy="114.5" rx="2.2" ry="5.8"/><path class="cls-6" d="M1985.9,158.7s2-10.3,5.1-11.3c0,0-1,10.2,1,12.3Z"/><path class="cls-11" d="M2004.3,159.7c-11.3,0-12.3-1-18.4-3.1s-11.3,0-11.3,5.1"/><rect class="cls-1" x="2100" width="350" height="500"/><path class="cls-2" d="M2259.1,336.8s1,87,0,94.2h72.7s5.1-25.6-30.7-30.7l-5.1-65.5Z"/><path class="cls-3" d="M2232.2,300.6l12.1,75s67.3,8.5,77.1-.6l10.6-93Z"/><path class="cls-4" d="M2215.2,314.6s-42.7,75.8-47.1,81.5l62.9,36.4s17.3-19.6-11.2-42l28.3-59.3Z"/><path class="cls-4" d="M2242.2,113.8s-34.3,9.7-46.6,29.2h8.2s-9.2,8.2-10.2,18.4l6.1-2s-8.2,9.2-9.2,19.4l7.2-3s-10.8,51.7-2.6,97.7L2334,287s13-29,3.9-44.7l4.1,4.1s3.1-8.2-7.1-20.5l7.1,5.1s-7.1-21.5-12.3-26.6S2242.2,113.8,2242.2,113.8Z"/><path class="cls-5" d="M2192,249s81.5,38.3,147,26c0,0-25,70-73,101,0,0-48-15-86-33C2177,339.2,2182.3,282.8,2192,249Z"/><polygon class="cls-6" points="2169.5 273 2162.2 281.8 2172.3 282.6 2168.2 295.4 2179.5 291.3 2179.1 303.6 2185.7 295.4 2188.5 305.1 2193.8 294 2169.5 273"/><path class="cls-2" d="M2215.8,278.8s78.2-55,64.4-87.6-44.9-5.8-44.9-5.8-33.3,36.2-45.6,60.1c0,0-42.1,16-10.9,44.1C2207.8,315.7,2215.8,278.8,2215.8,278.8Z"/><path class="cls-4" d="M2234.9,59.7s20.5-22.5,71.7-7.2,52.2,48.1,51.2,90.1-9.2,82.9-43,56.3S2209.3,107.8,2238,72h-5.1s3.1-8.2,5.1-9.2Z"/><path class="cls-7" d="M2335.8,207.2s-15.9,4-45.6-25.7"/><path class="cls-8" d="M2276.5,87.3s-8.4,2.2-7.8,32.4v2.4s16.7-3.3,25.6-23.5Z"/><path class="cls-6" d="M2310.2,75.6a36.5,36.5,0,0,1,20.5-30.8s-7.2,29.7-5.2,33.8"/><path class="cls-9" d="M2332.2,85.3c-2-4.1,5-14.6-13.3-12.3-8.2,1-11.3-7.2-16.4,6.1"/><path class="cls-10" d="M2346.1,113.2s1.7-8.9-23.1-11.5"/><ellipse cx="2338.5" cy="122.5" rx="2.2" ry="5.8"/><path class="cls-6" d="M2338.9,166.7s2-10.3,5.1-11.3c0,0-1,10.2,1,12.3Z"/><path class="cls-11" d="M2357.3,167.7c-11.3,0-12.3-1-18.4-3.1s-11.3,0-11.3,5.1"/><rect class="cls-1" x="2450" y="1" width="350" height="500"/><path class="cls-2" d="M2561.2,311.8s-21.6,84.3-24.4,91l70.2,18.8s11.6-23.4-21.7-37.6l12-64.6Z"/><path class="cls-3" d="M2544.6,269.9l-7.8,75.6s62.8,25.6,74.6,19.3l34.4-87.1Z"/><path class="cls-4" d="M2575.9,327.8s1,87,0,94.2h72.6s5.2-25.6-30.7-30.7l-5.1-65.5Z"/><path class="cls-4" d="M2592.2,103.8s-34.3,9.7-46.6,29.2h8.2s-9.2,8.2-10.2,18.4l6.1-2s-8.2,9.2-9.2,19.4l7.2-3s-10.8,51.7-2.6,97.7L2684,277s13-29,3.9-44.7l4.1,4.1s3.1-8.2-7.1-20.5l7.1,5.1s-7.1-21.5-12.3-26.6S2592.2,103.8,2592.2,103.8Z"/><path class="cls-5" d="M2542,239s81.5,38.3,147,26c0,0-8,58-49,97,0,0-46,3-84-15C2553,343.2,2532.3,272.8,2542,239Z"/><polygon class="cls-6" points="2543.9 278.6 2539.1 289 2549.1 287.2 2548.5 300.6 2558.3 293.7 2561.1 305.7 2565.3 296.1 2570.5 304.8 2572.8 292.6 2543.9 278.6"/><path class="cls-2" d="M2590.1,272.2s61.3-73.3,39.6-101.2-44.9,6-44.9,6-22.8,43.6-28.5,69.8c0,0-36.6,26.4.9,45.5C2592,310,2590.1,272.2,2590.1,272.2Z"/><path class="cls-4" d="M2584.9,49.7s20.5-22.5,71.7-7.2,52.2,48.1,51.2,90.1-9.2,82.9-43,56.3S2559.3,97.8,2588,62h-5.1s3.1-8.2,5.1-9.2Z"/><path class="cls-7" d="M2685.8,197.2s-15.9,4-45.6-25.7"/><path class="cls-8" d="M2626.5,77.3s-8.4,2.2-7.8,32.4v2.4s16.7-3.3,25.6-23.5Z"/><path class="cls-6" d="M2660.2,65.6a36.5,36.5,0,0,1,20.5-30.8s-7.2,29.7-5.2,33.8"/><path class="cls-9" d="M2682.2,75.3c-2-4.1,5-14.6-13.3-12.3-8.2,1-11.3-7.2-16.4,6.1"/><path class="cls-10" d="M2696.1,103.2s1.7-8.9-23.1-11.5"/><ellipse cx="2688.5" cy="112.5" rx="2.2" ry="5.8"/><path class="cls-6" d="M2688.9,156.7s2-10.3,5.1-11.3c0,0-1,10.2,1,12.3Z"/><path class="cls-11" d="M2707.3,157.7c-11.3,0-12.3-1-18.4-3.1s-11.3,0-11.3,5.1"/><rect class="cls-1" y="500" width="350" height="500"/><path class="cls-4" d="M151.1,854.4s-.9,83.7,0,90.6H81.2s-4.9-24.6,29.5-29.6l5-63Z"/><path class="cls-4" d="M215.9,854.4s1,83.7,0,90.6h70s4.9-24.6-29.6-29.6l-4.9-63Z"/><path class="cls-4" d="M222.6,634.2s27.6,4.9,38.4,13.8c0,0,6.9,77.8-2,126.1S102.4,814.5,99.4,760.3c0,0-8.4-80.3,4.5-114.8C103.9,645.5,165.4,622.3,222.6,634.2Z"/><path class="cls-10" d="M169.4,753.4c-5-7.9,0-22.7,0-22.7-2,0-6.9,4-6.9,4-1-6.9,6.9-15.8,6.9-15.8-2-1-6.9,3-6.9,3,1-6,6.9-12.9,6.9-12.9"/><path class="cls-5" d="M179.7,841.6,195.5,877s41.4,12.8,74.9-6.9c0,0-12.4-71.4-9.4-101.9,0,0-98.5,28.5-162.6-9.9,0,0,3.5,70.4-2.4,107.9,0,0,21.6,20.7,73.9,9.8Z"/><polygon class="cls-6" points="31.4 803.6 27.5 812.5 37.4 809.5 38.3 819.4 48.2 813.5 55.1 822.3 59 813.5 65.9 821.4 66.9 808.5 31.4 803.6"/><polygon class="cls-6" points="291.5 811.5 293.5 822.3 300.4 815.4 307.3 826.3 311.2 815.4 320.1 823.3 318.1 813.5 327 817.4 322.1 806.6 291.5 811.5"/><path class="cls-2" d="M247.2,724.8s24.6,39.4,32.5,63.1c0,0-1,30.5,27.6,28.5s8.9-31.5,8.9-31.5-8.9-71.9-26.6-103.4c0,0,1.9-2,5.9,1.9,0,0-1-5.9-8.9-13.8,0,0,5.9,2,8.9,4,0,0-16.7-19.1-38.4-27.3C257.1,646.3,230.5,678.5,247.2,724.8Z"/><path class="cls-2" d="M103.4,720.9s-34.5,53.2-33.5,61c0,0,12.8,33.5-19.7,31.6S31.4,784.9,41.3,777c0,0-3-55.1,25.6-100.5,0,0-2-1-5.9,2,0,0,4.9-8.9,11.8-11.8,0,0-5.9-1-8.8,1,0,0,8.8-7.9,16.7-7.9,0,0-7.9-2-9.9,0,0,0,21.2-13.7,36.7-15.2C107.5,644.6,121.1,674.6,103.4,720.9Z"/><path class="cls-4" d="M166.4,551.4s-84.7-1-64,52.2c23.6,60.8,60.1,89.7,78.8,89.7s50.2-21.7,72.9-72.9-37.4-61.1-50.2-64.1-23.7-12.8-23.7-12.8l3.9,8.9s-9.8-7.9-15.7-7.9c0,0,4.9,3,6.9,7.9a21,21,0,0,0-18.7-5.9Z"/><path class="cls-6" d="M217.6,536.6s18.8,12.8,10.9,45.4l-17.8-4S221.6,559.3,217.6,536.6Z"/><path class="cls-6" d="M130.9,575.1s-10.8-19.7,6.9-41.4c0,0,5,32.5,13.8,37.4Z"/><path class="cls-12" d="M160.5,576s-3-11.8-15.8-8.8S126,566.2,124,580"/><path class="cls-13" d="M238.3,586.9a12.4,12.4,0,0,0-8.3-9.7,20.4,20.4,0,0,0-5.5-1.2c-12.8-.9-15.7-7.8-20.6,4"/><path class="cls-10" d="M165.4,618.4s2-9.8-25.6-12.8"/><path class="cls-10" d="M180.2,622.3s-1-9.8,23.7-12.8"/><path class="cls-6" d="M159.5,656.8s2-9.8,4.9-10.8c0,0-.9,9.8,1,11.8Z"/><path class="cls-6" d="M195,659.8s1-8.9-2-10.9c0,0-2,8.9-2.9,10.9Z"/><path class="cls-11" d="M203.9,663.7s-1-5.9-11.9-5.9-23.6-1-29.5-2.9-10.9,0-10.9,4.9"/><path class="cls-14" d="M181.2,676.5s-6.9-6.9-14.8-2.9"/><path class="cls-2" d="M252.1,602.6s18.7,16.8,20.7,34.5c0,0-22.6-1.9-33.5-19.7"/><path class="cls-2" d="M110.3,596.7s-17.8,11.9-14.8,34.5c0,0,20.7,0,29.5-21.7"/><ellipse cx="157.1" cy="628.8" rx="2.5" ry="6.4"/><ellipse cx="188.6" cy="630.7" rx="2.5" ry="6.4"/><path class="cls-14" d="M121.1,641.1s30.5,49.2,53.2,50.2c30.5,1.3,69.9-50.2,69.9-50.2"/></svg>
