<?xml version="1.0" encoding="utf-8"?>
<!-- Generator: Adobe Illustrator 22.1.0, SVG Export Plug-In . SVG Version: 6.00 Build 0)  -->
<svg version="1.1" id="Layer_1" xmlns="http://www.w3.org/2000/svg" xmlns:xlink="http://www.w3.org/1999/xlink" x="0px" y="0px"
	 viewBox="0 0 400 600" style="enable-background:new 0 0 400 600;" xml:space="preserve">
<style type="text/css">
	.st0{fill:#CCC0A2;}
	.st1{fill:#5B4A1B;}
	.st2{fill:none;stroke:#443716;stroke-miterlimit:10;}
	.st3{fill:#282A42;}
	.st4{fill:#5B4A1B;stroke:#352A0F;stroke-miterlimit:10;}
	.st5{fill:#5B4A1B;stroke:#2D230B;stroke-miterlimit:10;}
	.st6{fill:#5B4A1B;stroke:#000000;stroke-miterlimit:10;}
	.st7{fill:none;stroke:#382C11;stroke-miterlimit:10;}
</style>
<polygon class="st0" points="253.5,500.5 256.5,513.5 265.5,505.5 270.5,513.5 276.5,505.5 283.5,511.5 287.5,502.5 294.5,508.5
	293.5,498.5 "/>
<polygon class="st0" points="134.5,491.5 136.5,503.5 145.5,497.5 147.5,507.5 154.5,500.5 158.5,510.5 165.5,499.5 171.5,509.5
	174.5,497.5 "/>
<path class="st1" d="M241.5,428.5c0,0,7,29,6,34s-12,48,28,45s15-37,16-41s-11-38-11-38S261.5,412.5,241.5,428.5z"/>
<path class="st1" d="M137.5,416.5c0,0,0,38-4,42s-17,41,21,44s29-30,27-37s-6-46-6-46S157.5,405.5,137.5,416.5z"/>
<path class="st1" d="M246.5,188.5c0,0,28,5,39,14c0,0,7,79-2,128s-159,41-162-14c0,0-8.5-81.5,4.5-116.5
	C126,200,188.5,176.5,246.5,188.5z"/>
<path class="st2" d="M192.5,309.5c-5-8,0-23,0-23c-2,0-7,4-7,4c-1-7,7-16,7-16c-2-1-7,3-7,3c1-6,7-13,7-13"/>
<path class="st3" d="M208.5,400.5l15,34c0,0,47,14,81-6c0,0-22-73-19-104c0,0-100,29-165-10c0,0,1,64-5,102c0,0,27,24,80,13
	L208.5,400.5z"/>
<polygon class="st0" points="52.5,360.5 48.5,369.5 58.5,366.5 59.5,376.5 69.5,370.5 76.5,379.5 80.5,370.5 87.5,378.5 88.5,365.5
	"/>
<polygon class="st0" points="316.5,368.5 318.5,379.5 325.5,372.5 332.5,383.5 336.5,372.5 345.5,380.5 343.5,370.5 352.5,374.5
	347.5,363.5 "/>
<path class="st1" d="M271.5,280.5c0,0,25,40,33,64c0,0-1,31,28,29s9-32,9-32s-9-73-27-105c0,0,2-2,6,2c0,0-1-6-9-14c0,0,6,2,9,4
	c0,0-16.9-19.4-38.9-27.7C281.6,200.8,254.5,233.5,271.5,280.5z"/>
<path class="st1" d="M125.5,276.5c0,0-35,54-34,62c0,0,13,34-20,32s-19-29-9-37c0,0-3-56,26-102c0,0-2-1-6,2c0,0,5-9,12-12
	c0,0-6-1-9,1c0,0,9-8,17-8c0,0-8-2-10,0c0,0,21.5-13.8,37.2-15.4C129.7,199.1,143.5,229.5,125.5,276.5z"/>
<path class="st1" d="M189.5,104.5c0,0-86-1-65,53c24,61.7,61,91,80,91s51-22,74-74s-38-62-51-65s-24-13-24-13l4,9c0,0-10-8-16-8
	c0,0,5,3,7,8c0,0-7-8-19-6L189.5,104.5z"/>
<path class="st0" d="M241.5,89.5c0,0,19,13,11,46l-18-4C234.5,131.5,245.5,112.5,241.5,89.5z"/>
<path class="st0" d="M153.5,128.5c0,0-11-20,7-42c0,0,5,33,14,38L153.5,128.5z"/>
<path class="st4" d="M183.5,129.5c0,0-3-12-16-9s-19-1-21,13"/>
<path class="st5" d="M262.5,140.5c0,0-0.7-7-8.5-9.9c-1.5-0.6-3.4-1-5.5-1.1c-13-1-16-8-21,4"/>
<path class="st2" d="M188.5,172.5c0,0,2-10-26-13"/>
<path class="st2" d="M203.5,176.5c0,0-1-10,24-13"/>
<path class="st0" d="M182.5,211.5c0,0,2-10,5-11c0,0-1,10,1,12L182.5,211.5z"/>
<path class="st0" d="M218.5,214.5c0,0,1-9-2-11c0,0-2,9-3,11H218.5z"/>
<path class="st6" d="M227.5,218.5c0,0-1-6-12-6s-24-1-30-3s-11,0-11,5"/>
<path class="st7" d="M204.5,231.5c0,0-7-7-15-3"/>
<path class="st1" d="M276.5,156.5c0,0,19,17,21,35c0,0-23-2-34-20"/>
<path class="st1" d="M132.5,150.5c0,0-18,12-15,35c0,0,21,0,30-22"/>
<ellipse cx="180" cy="183" rx="2.5" ry="6.5"/>
<ellipse cx="212" cy="185" rx="2.5" ry="6.5"/>
<path class="st7" d="M143.5,195.5c0,0,31,50,54,51c31,1.3,71-51,71-51"/>
</svg>
